<svg width="70" height="80" viewBox="0 0 70 80" fill="none" xmlns="http://www.w3.org/2000/svg">
<path d="M0.843507 79.9094H1.31732V77.2383H2.16082V76.8218H0V77.2383H0.843507V79.9094Z" fill="#10B981"/>
<path d="M7.26876 76.8218H6.87824L5.75879 79.9094H6.25341L6.48773 79.2221H7.65927L7.8988 79.9094H8.39345L7.26876 76.8218ZM6.6179 78.8056L7.06568 77.457H7.07089L7.51871 78.8056H6.6179Z" fill="#10B981"/>
<path d="M13.064 77.4882C13.1161 77.4258 13.1786 77.3737 13.2567 77.3268C13.3348 77.2852 13.4285 77.2643 13.5431 77.2591C13.6941 77.2643 13.819 77.306 13.9232 77.3893C14.0221 77.4778 14.095 77.582 14.1314 77.7069H14.6261C14.574 77.4466 14.4595 77.2331 14.272 77.0561C14.0846 76.8842 13.8398 76.7957 13.5431 76.7905C13.2983 76.7957 13.0953 76.853 12.9339 76.9624C12.7672 77.0717 12.6475 77.2019 12.5746 77.3425C12.5277 77.4153 12.4913 77.5143 12.4704 77.6392C12.4496 77.759 12.4392 77.9985 12.4392 78.3578C12.4392 78.7119 12.4496 78.9514 12.4704 79.0763C12.4809 79.144 12.4965 79.1961 12.5121 79.243C12.5329 79.2846 12.5486 79.3315 12.5746 79.3783C12.6475 79.5189 12.7672 79.6491 12.9339 79.7532C13.0953 79.8678 13.2983 79.9251 13.5431 79.9303C13.8555 79.9251 14.121 79.8157 14.3241 79.6126C14.5324 79.4044 14.6365 79.144 14.6417 78.8368V78.212H13.5431V78.6546H14.1731V78.816C14.1679 79.0086 14.1106 79.1648 13.9909 79.2846C13.8711 79.4096 13.7201 79.4721 13.5379 79.4721C13.4285 79.4721 13.3348 79.4512 13.2515 79.4044C13.1734 79.3627 13.1057 79.3159 13.0588 79.2482C12.9963 79.1805 12.9599 79.0972 12.9391 78.9878C12.9183 78.8785 12.9026 78.6754 12.9026 78.3734C12.9026 78.0714 12.913 77.8631 12.9391 77.7538C12.9651 77.6392 13.0016 77.5559 13.064 77.4882Z" fill="#10B981"/>
<path d="M20.4836 76.8218V79.9094H22.4518V79.4669H20.9471V76.8218H20.4836Z" fill="#10B981"/>
<path d="M27.2682 76.8218H26.7996V79.9094H27.2682V76.8218Z" fill="#10B981"/>
<path d="M31.8191 76.8218V79.9094H32.2877V77.7174H32.2981L33.6935 79.9094H34.1361V76.8218H33.6675V79.0191H33.6571L32.2617 76.8218H31.8191Z" fill="#10B981"/>
<path d="M40.6655 77.2644V76.8218H38.6921V79.9094H40.6655V79.4669H39.1607V78.5609H40.4416V78.1443H39.1607V77.2644H40.6655Z" fill="#10B981"/>
<path d="M50.1003 79.9094V76.8218H49.6317V78.1443H48.4081V76.8218H47.9395V79.9094H48.4081V78.5609H49.6317V79.9094H50.1003Z" fill="#10B981"/>
<path d="M56.6296 77.2644V76.8218H54.6562V79.9094H56.6296V79.4669H55.1249V78.5609H56.4057V78.1443H55.1249V77.2644H56.6296Z" fill="#10B981"/>
<path d="M62.5187 78.54C62.9093 78.389 63.1123 78.1027 63.1175 77.6861C63.1071 77.3997 63.0082 77.181 62.8103 77.0248C62.6437 76.8895 62.4355 76.8218 62.1803 76.8218H60.9775V79.9094H61.4461V78.5921H62.0449L62.6854 79.9094H63.2425L62.5187 78.54ZM61.441 78.1756V77.2383H62.1751C62.3261 77.2383 62.4406 77.2696 62.5187 77.3373C62.6177 77.4102 62.6698 77.5247 62.675 77.6861C62.675 77.8163 62.6333 77.9308 62.5448 78.0246C62.4615 78.1235 62.3261 78.1756 62.1543 78.1756H61.441Z" fill="#10B981"/>
<path d="M69.4958 77.2644V76.8218H67.5225V79.9094H69.4958V79.4669H67.9911V78.5609H69.2772V78.1443H67.9911V77.2644H69.4958Z" fill="#10B981"/>
<path d="M3.26467 73.1874C3.97281 73.1874 4.60283 73 5.14955 72.6251C5.70148 72.2502 6.08159 71.7295 6.30028 71.063H4.45185C4.21234 71.5265 3.8218 71.7608 3.2907 71.7608C2.7596 71.7608 2.33786 71.5941 2.03586 71.2609C1.72866 70.9277 1.57766 70.4851 1.57766 69.9279C1.57766 69.3708 1.72866 68.9282 2.03586 68.595C2.34307 68.2618 2.7596 68.0951 3.2907 68.0951C3.8218 68.0951 4.21234 68.3294 4.45185 68.7929H6.30028C6.08159 68.1264 5.69627 67.6057 5.14955 67.2308C4.59763 66.8559 3.9676 66.6685 3.26467 66.6685C2.35348 66.6685 1.57765 66.9757 0.947619 67.5901C0.31759 68.2045 0 68.9803 0 69.9279C0 70.8704 0.31759 71.6514 0.947619 72.2658C1.57765 72.8802 2.35348 73.1874 3.26467 73.1874Z" fill="#10B981"/>
<path d="M17.0837 69.9279C17.0837 68.9855 16.7712 68.2045 16.1464 67.5901C15.5216 66.9757 14.751 66.6685 13.8346 66.6685C12.9182 66.6685 12.1424 66.9757 11.5123 67.5901C10.8823 68.2045 10.5647 68.9803 10.5647 69.9279C10.5647 70.8704 10.8823 71.6514 11.5123 72.271C12.1424 72.8854 12.9182 73.1978 13.8294 73.1978C14.7406 73.1978 15.5112 72.8906 16.1412 72.271C16.7713 71.6514 17.0837 70.8704 17.0837 69.9279ZM15.0478 71.2609C14.7406 71.5941 14.3345 71.7608 13.8242 71.7608C13.3139 71.7608 12.9026 71.5941 12.6006 71.2609C12.2934 70.9277 12.1424 70.4851 12.1424 69.9279C12.1424 69.3708 12.2934 68.9282 12.6006 68.595C12.9078 68.2618 13.3139 68.0951 13.8242 68.0951C14.3345 68.0951 14.7458 68.2618 15.0478 68.595C15.355 68.9282 15.506 69.3708 15.506 69.9279C15.506 70.4851 15.3498 70.9277 15.0478 71.2609Z" fill="#10B981"/>
<path d="M28.9242 66.7622H27.1434L25.321 71.1516L23.4882 66.7622H21.7126V73.1302H23.2643V69.5375L24.743 73.1302H25.8938L27.3725 69.5375V73.1302H28.9242V66.7622Z" fill="#10B981"/>
<path d="M35.4638 70.6518H36.427C36.8696 70.6518 37.2497 70.5893 37.5725 70.4592C37.8954 70.329 38.1401 70.1624 38.3015 69.9541C38.6087 69.5532 38.7649 69.1418 38.7649 68.7096C38.7649 68.1733 38.5566 67.7099 38.1505 67.3298C37.7392 66.9497 37.1664 66.7571 36.427 66.7571H33.9121V73.1251H35.4638V70.6518ZM35.4638 67.939H36.427C36.6561 67.939 36.8436 68.0119 36.979 68.1577C37.1195 68.3035 37.1872 68.491 37.1872 68.7149C37.1872 68.944 37.1195 69.1262 36.9842 69.2616C36.8488 69.4022 36.6613 69.4699 36.427 69.4699H35.4638V67.939Z" fill="#10B981"/>
<path d="M44.9456 66.7415L42.7327 73.1303H44.3833L44.7373 72.0576H47.0231L47.3772 73.1303H49.0382L46.8357 66.7415H44.9456ZM45.1278 70.8809L45.8828 68.6107L46.6378 70.8809H45.1278Z" fill="#10B981"/>
<path d="M59.1238 73.1303V66.7415H57.5721V70.7611L54.9791 66.7415H53.4275V73.1303H54.9791V69.1106L57.5721 73.1303H59.1238Z" fill="#10B981"/>
<path d="M65.7728 71.0787V73.1302H67.3245V71.0787L69.5322 66.7622H67.7722L66.5538 69.6364L65.3302 66.7622H63.5703L65.7728 71.0787Z" fill="#10B981"/>
<path d="M39.0044 7.70605C39.9833 9.08066 40.7747 10.5959 41.3423 12.2204C42.0504 12.3141 42.7533 12.4443 43.4354 12.6057C43.55 12.6317 43.6645 12.663 43.7791 12.689C43.8051 12.6942 43.8364 12.7046 43.8624 12.7098C44.0082 12.7463 44.154 12.7879 44.2998 12.8296H44.305C44.4456 12.866 44.5861 12.9077 44.7215 12.9546C44.8413 12.991 44.961 13.0275 45.0808 13.0691C45.2058 13.1108 45.3255 13.1524 45.4505 13.1941C45.565 13.2305 45.6796 13.2722 45.7941 13.319C45.9087 13.3607 46.018 13.4024 46.1326 13.4492C46.7939 13.7044 47.4395 13.9959 48.0643 14.3188C48.2153 14.3969 48.3611 14.4698 48.5069 14.5531C48.7568 14.6884 49.0015 14.829 49.2463 14.9748C49.3504 15.0373 49.4546 15.0998 49.5535 15.1623C49.6004 15.1883 49.6524 15.2195 49.6993 15.2508C49.8086 15.3185 49.918 15.3914 50.0221 15.4643C50.1262 15.532 50.2304 15.5996 50.3293 15.6725C51.5269 16.49 52.6307 17.4377 53.6305 18.4842C53.7502 18.604 53.8595 18.7238 53.9689 18.8487C54.0626 18.9476 54.1511 19.0518 54.2397 19.1507C54.3854 19.3173 54.526 19.484 54.6666 19.6558C54.7551 19.7547 54.8332 19.8588 54.9165 19.963C55.0259 20.1036 55.1352 20.2442 55.2394 20.3847C55.3383 20.5201 55.4372 20.6555 55.5309 20.7857C55.6299 20.921 55.7236 21.0564 55.8173 21.197C56.0048 21.473 56.1818 21.7489 56.3536 22.0353C56.4422 22.1759 56.5255 22.3217 56.6088 22.4675C56.6921 22.6133 56.7754 22.7591 56.8535 22.9049C57.0253 23.2225 57.1919 23.5453 57.3429 23.8681C57.4054 23.9983 57.4679 24.1285 57.5252 24.2586C57.5825 24.3888 57.6397 24.519 57.697 24.6491C57.7491 24.7637 57.7959 24.8783 57.8428 24.998C57.8844 25.1074 57.9313 25.2115 57.973 25.3208C58.0771 25.5916 58.1812 25.8676 58.2698 26.1435C58.327 26.3049 58.3791 26.4663 58.426 26.6278C58.426 26.633 58.4312 26.6382 58.4312 26.6486C58.478 26.8048 58.5249 26.961 58.5665 27.1172C58.6967 27.565 58.806 28.018 58.905 28.4762C58.931 28.5907 58.9518 28.7105 58.9779 28.825C58.9883 28.8927 59.0039 28.9604 59.0143 29.0229C59.03 29.1114 59.0456 29.1999 59.0612 29.2937C59.082 29.4238 59.1029 29.5488 59.1237 29.679C59.1445 29.8091 59.1653 29.9393 59.181 30.0695C59.1862 30.1268 59.1966 30.184 59.2018 30.2413C59.2122 30.335 59.2226 30.434 59.233 30.5277C59.2434 30.6214 59.2539 30.7099 59.2591 30.8036C59.2747 30.9442 59.2851 31.0848 59.2955 31.2254C59.3059 31.392 59.3163 31.5586 59.3268 31.7253C59.3372 31.9023 59.3424 32.0793 59.3476 32.2564C59.3528 32.4334 59.3528 32.6104 59.3528 32.7875C59.3528 44.2217 50.0481 53.5263 38.6139 53.5263C38.4369 53.5263 38.2546 53.5263 38.0828 53.5211C37.9057 53.5211 37.7287 53.5107 37.5517 53.5003C37.3799 53.4951 37.2028 53.4847 37.031 53.4691H37.0102C36.8488 53.4587 36.6873 53.443 36.5259 53.4274C36.3854 53.4118 36.25 53.3962 36.1094 53.3806C36.0209 53.3701 35.9376 53.3597 35.8491 53.3493C35.7241 53.3337 35.6043 53.3181 35.4846 53.2972C35.4742 53.2972 35.4637 53.2972 35.4533 53.292C35.3284 53.2764 35.2086 53.2556 35.0888 53.2348C34.9847 53.2191 34.8806 53.1983 34.7817 53.1775C34.6307 53.1515 34.4797 53.1202 34.3339 53.089C33.5268 52.9171 32.7302 52.6985 31.9543 52.4329C31.8033 52.3808 31.6523 52.3288 31.5013 52.2715C31.3556 52.2194 31.2097 52.1622 31.0587 52.1049C30.8609 52.0268 30.663 51.9435 30.4652 51.8602C30.3402 51.8081 30.2152 51.756 30.0955 51.6987C29.9653 51.6415 29.8299 51.5738 29.6945 51.5113C29.5279 51.428 29.3561 51.3499 29.1895 51.2614C29.0541 51.1885 28.9135 51.1208 28.7781 51.0427C28.6219 50.9542 28.4657 50.8709 28.3095 50.7823C28.1637 50.699 28.0232 50.6157 27.8774 50.5272C27.8774 50.5272 27.8721 50.5272 27.8669 50.522C27.6014 50.3658 27.3463 50.1992 27.0911 50.0273C27.0703 50.0169 27.0495 50.0013 27.0339 49.9857C26.8985 49.892 26.7631 49.7982 26.6277 49.7045C26.4923 49.6108 26.357 49.5119 26.2268 49.4129C26.0914 49.314 25.9612 49.2151 25.8311 49.1109C25.7217 49.0276 25.6176 48.9443 25.5135 48.8558C25.3468 48.7204 25.1802 48.5798 25.0136 48.4393C24.9042 48.3455 24.7949 48.2466 24.6908 48.1529V48.1477C24.5658 48.0383 24.446 47.9238 24.3263 47.8092C24.2065 47.6947 24.0868 47.5801 23.967 47.4604C23.7379 47.2313 23.514 46.997 23.2953 46.7574C23.1808 46.6273 23.061 46.4971 22.9517 46.3669C22.733 46.117 22.5247 45.8671 22.3217 45.6067C22.1967 45.4505 22.0769 45.2891 21.9572 45.1277C21.8843 45.034 21.8166 44.9403 21.7489 44.8413C21.7281 44.8101 21.702 44.7788 21.6812 44.7476C21.5979 44.6278 21.5146 44.5081 21.4313 44.3883C21.348 44.2686 21.2751 44.154 21.197 44.0343C21.0876 43.8676 20.9783 43.6958 20.8741 43.524C20.7075 43.248 20.5461 42.9669 20.3899 42.6805C20.0879 42.1338 19.8171 41.5662 19.5672 40.983C19.5099 40.8477 19.4527 40.7175 19.4006 40.5821C19.4006 40.5769 19.3954 40.5717 19.3954 40.5613C19.3538 40.4572 19.3121 40.3582 19.2756 40.2593C19.2392 40.1656 19.2028 40.0718 19.1663 39.9781C19.1299 39.8792 19.0934 39.7803 19.0622 39.6813C19.0101 39.5407 18.9632 39.4002 18.9164 39.2596C18.8695 39.119 18.8226 38.9732 18.781 38.8274C18.7758 38.817 18.7706 38.8014 18.7706 38.7858C18.7289 38.6504 18.6873 38.5046 18.6456 38.364C18.604 38.213 18.5623 38.062 18.5206 37.911C18.4061 37.4528 18.302 36.9894 18.2187 36.526C18.1926 36.3698 18.1666 36.2136 18.1405 36.0574C18.1145 35.9012 18.0937 35.745 18.0729 35.5835C16.4483 35.0212 14.9279 34.2298 13.5481 33.2561C13.7824 46.9032 24.9199 57.8949 38.6243 57.8949C52.4745 57.8949 63.7057 46.6689 63.7057 32.8135C63.7161 19.0518 52.688 7.89871 39.0044 7.70605ZM17.9896 30.8141C18.0052 30.6631 18.0208 30.5069 18.0364 30.3559C18.052 30.2049 18.0729 30.0487 18.0937 29.8977C18.1145 29.7467 18.1353 29.5957 18.1614 29.4447C18.1822 29.2937 18.2134 29.1427 18.2395 28.9969C18.354 28.3981 18.4894 27.8045 18.6508 27.2265C18.6873 27.086 18.7341 26.9402 18.7758 26.7944C18.807 26.685 18.8435 26.5705 18.8799 26.4611C18.8903 26.4143 18.906 26.3622 18.9268 26.3205C18.9684 26.1956 19.0101 26.0706 19.057 25.9457C19.0934 25.8363 19.1298 25.727 19.1767 25.6176C19.2027 25.5499 19.2288 25.4822 19.2548 25.4146C19.3485 25.1698 19.4423 24.9355 19.5412 24.696C19.6609 24.4201 19.7807 24.1441 19.9161 23.8733C19.9786 23.7432 20.0411 23.613 20.1035 23.488C20.14 23.4047 20.1868 23.3266 20.2285 23.2433C20.2754 23.1444 20.3274 23.0506 20.3795 22.9569C20.3951 22.9257 20.416 22.8892 20.4368 22.858C20.5045 22.7278 20.5774 22.6029 20.6502 22.4727C20.7179 22.3581 20.7856 22.2436 20.8481 22.129C20.9106 22.0301 20.9679 21.9312 21.0303 21.8375C21.0876 21.7489 21.1449 21.6604 21.2022 21.5667C21.4417 21.197 21.6916 20.8325 21.952 20.4837C22.0405 20.3639 22.129 20.2494 22.2175 20.1296C22.2852 20.0411 22.3529 19.9526 22.4258 19.8641C22.634 19.6037 22.8476 19.3434 23.0714 19.0934C23.16 18.9893 23.2537 18.8852 23.3474 18.7862C23.5453 18.5675 23.7483 18.3593 23.9566 18.151C24.0399 18.0677 24.1232 17.9844 24.2118 17.9011C24.3471 17.7709 24.4773 17.6407 24.6127 17.521C24.7116 17.4272 24.8105 17.3387 24.9147 17.2502C25.0969 17.0888 25.2843 16.9326 25.4666 16.7764C25.5603 16.6983 25.6592 16.6202 25.753 16.5421C26.1695 16.2088 26.6017 15.8912 27.0443 15.5944C27.1692 15.5059 27.2994 15.4226 27.4296 15.3393C27.5337 15.2716 27.6326 15.2091 27.7368 15.1466C27.8149 15.0998 27.893 15.0477 27.9711 15.0061C28.0856 14.9332 28.2002 14.8655 28.3199 14.803C28.4657 14.7145 28.6115 14.6364 28.7573 14.5583C28.9031 14.475 29.0541 14.3969 29.1999 14.324C29.3457 14.2459 29.4967 14.173 29.6477 14.1001C29.6581 14.0949 29.6633 14.0949 29.6737 14.0897C29.9393 13.9595 30.21 13.8397 30.4808 13.72C30.6839 13.6315 30.8869 13.5481 31.0952 13.47C31.2306 13.4128 31.3659 13.3607 31.5065 13.3138C31.6263 13.267 31.7513 13.2253 31.871 13.1837C31.9335 13.1628 31.996 13.142 32.0584 13.116C32.1938 13.0743 32.3292 13.0275 32.4646 12.9858C32.626 12.9337 32.7874 12.8869 32.954 12.84C33.1155 12.7931 33.2821 12.7463 33.4487 12.7046C33.5945 12.6682 33.7403 12.6317 33.8861 12.5953C33.9954 12.5693 34.11 12.5432 34.2193 12.5224C34.2662 12.512 34.3182 12.5016 34.3651 12.4912C34.4484 12.4755 34.5317 12.4599 34.6202 12.4391C34.766 12.4131 34.917 12.3818 35.0628 12.3558C35.1722 12.3402 35.2763 12.3193 35.3804 12.3037C35.495 12.2829 35.6043 12.2673 35.7189 12.2516C36.0105 12.21 36.302 12.1735 36.5988 12.1475C35.8699 10.6635 34.8754 9.32539 33.6882 8.19029C23.7743 10.1741 15.9693 17.9948 14.0219 27.9191C15.1622 29.101 16.5004 30.0851 17.9896 30.8141Z" fill="#10B981"/>
<path d="M42.066 14.9228C40.9518 14.7094 39.8063 14.5948 38.6295 14.5948C38.265 14.5948 37.9005 14.6052 37.5465 14.626C37.8641 15.7924 38.0359 17.0212 38.0359 18.2813C38.0359 25.9666 31.7825 32.22 24.0972 32.22C22.8475 32.22 21.6343 32.0534 20.4836 31.741C20.468 32.0846 20.4576 32.4231 20.4576 32.7719C20.4576 33.9643 20.5721 35.1306 20.796 36.2605C21.8687 36.4584 22.9725 36.5573 24.1076 36.5573C34.2037 36.5573 42.3888 28.3721 42.3888 18.276C42.3784 17.1357 42.2691 16.0111 42.066 14.9228ZM24.0972 0C14.0011 0 5.81592 8.18517 5.81592 18.2813C5.81592 23.2694 7.81534 27.789 11.0488 31.0849C11.1686 29.0907 11.4966 27.1381 12.0277 25.2532C10.8353 23.2017 10.1584 20.817 10.1584 18.2813C10.1584 10.5959 16.4119 4.34251 24.0972 4.34251C26.6225 4.34251 28.9968 5.0142 31.0379 6.19615C32.9228 5.65985 34.8702 5.32661 36.8644 5.20164C33.5736 1.98381 29.0645 0 24.0972 0Z" fill="#10B981"/>
</svg>
