<svg width="70" height="81" viewBox="0 0 70 81" fill="none" xmlns="http://www.w3.org/2000/svg">
<path d="M0.843507 80.056H1.31732V77.3849H2.16082V76.9684H0V77.3849H0.843507V80.056Z" fill="white"/>
<path d="M7.26873 76.9684H6.87821L5.75876 80.056H6.25338L6.4877 79.3687H7.65924L7.89877 80.056H8.39342L7.26873 76.9684ZM6.61787 78.9522L7.06565 77.6036H7.07086L7.51868 78.9522H6.61787Z" fill="white"/>
<path d="M13.064 77.6349C13.1161 77.5724 13.1785 77.5203 13.2566 77.4734C13.3347 77.4318 13.4285 77.411 13.543 77.4057C13.694 77.411 13.819 77.4526 13.9231 77.5359C14.0221 77.6244 14.0949 77.7286 14.1314 77.8535H14.626C14.574 77.5932 14.4594 77.3797 14.272 77.2027C14.0845 77.0309 13.8398 76.9423 13.543 76.9371C13.2983 76.9423 13.0952 76.9996 12.9338 77.109C12.7672 77.2183 12.6474 77.3485 12.5745 77.4891C12.5277 77.562 12.4912 77.6609 12.4704 77.7858C12.4496 77.9056 12.4392 78.1451 12.4392 78.5044C12.4392 78.8585 12.4496 79.098 12.4704 79.2229C12.4808 79.2906 12.4964 79.3427 12.5121 79.3896C12.5329 79.4312 12.5485 79.4781 12.5745 79.5249C12.6474 79.6655 12.7672 79.7957 12.9338 79.8998C13.0952 80.0144 13.2983 80.0717 13.543 80.0769C13.8554 80.0717 14.121 79.9623 14.324 79.7592C14.5323 79.551 14.6365 79.2906 14.6417 78.9834V78.3586H13.543V78.8012H14.1731V78.9626C14.1678 79.1553 14.1106 79.3115 13.9908 79.4312C13.8711 79.5562 13.7201 79.6187 13.5378 79.6187C13.4285 79.6187 13.3347 79.5978 13.2514 79.551C13.1733 79.5093 13.1056 79.4625 13.0588 79.3948C12.9963 79.3271 12.9599 79.2438 12.939 79.1344C12.9182 79.0251 12.9026 78.822 12.9026 78.52C12.9026 78.218 12.913 78.0097 12.939 77.9004C12.9651 77.7858 13.0015 77.7025 13.064 77.6349Z" fill="white"/>
<path d="M20.4837 76.9684V80.056H22.452V79.6135H20.9472V76.9684H20.4837Z" fill="white"/>
<path d="M27.2683 76.9684H26.7996V80.056H27.2683V76.9684Z" fill="white"/>
<path d="M31.8191 76.9684V80.056H32.2877V77.864H32.2981L33.6935 80.056H34.1361V76.9684H33.6675V79.1657H33.6571L32.2616 76.9684H31.8191Z" fill="white"/>
<path d="M40.6655 77.411V76.9684H38.6921V80.056H40.6655V79.6135H39.1607V78.7075H40.4416V78.2909H39.1607V77.411H40.6655Z" fill="white"/>
<path d="M50.1003 80.056V76.9684H49.6317V78.2909H48.4081V76.9684H47.9395V80.056H48.4081V78.7075H49.6317V80.056H50.1003Z" fill="white"/>
<path d="M56.6297 77.411V76.9684H54.6563V80.056H56.6297V79.6135H55.1249V78.7075H56.4058V78.2909H55.1249V77.411H56.6297Z" fill="white"/>
<path d="M62.5186 78.6866C62.9092 78.5356 63.1122 78.2493 63.1174 77.8327C63.107 77.5463 63.0081 77.3277 62.8102 77.1715C62.6436 77.0361 62.4353 76.9684 62.1802 76.9684H60.9774V80.056H61.446V78.7387H62.0448L62.6853 80.056H63.2424L62.5186 78.6866ZM61.4408 78.3222V77.3849H62.175C62.326 77.3849 62.4405 77.4162 62.5186 77.4839C62.6176 77.5568 62.6697 77.6713 62.6749 77.8327C62.6749 77.9629 62.6332 78.0774 62.5447 78.1712C62.4614 78.2701 62.326 78.3222 62.1542 78.3222H61.4408Z" fill="white"/>
<path d="M69.4958 77.411V76.9684H67.5225V80.056H69.4958V79.6135H67.9911V78.7075H69.2772V78.2909H67.9911V77.411H69.4958Z" fill="white"/>
<path d="M3.26467 73.334C3.97281 73.334 4.60283 73.1466 5.14955 72.7717C5.70148 72.3968 6.08159 71.8761 6.30028 71.2096H4.45185C4.21234 71.673 3.8218 71.9073 3.2907 71.9073C2.7596 71.9073 2.33786 71.7407 2.03586 71.4075C1.72866 71.0742 1.57766 70.6317 1.57766 70.0745C1.57766 69.5174 1.72866 69.0748 2.03586 68.7416C2.34307 68.4083 2.7596 68.2417 3.2907 68.2417C3.8218 68.2417 4.21234 68.476 4.45185 68.9394H6.30028C6.08159 68.273 5.69627 67.7523 5.14955 67.3774C4.59763 67.0025 3.9676 66.815 3.26467 66.815C2.35348 66.815 1.57765 67.1222 0.947619 67.7366C0.31759 68.3511 0 69.1269 0 70.0745C0 71.017 0.31759 71.798 0.947619 72.4124C1.57765 73.0268 2.35348 73.334 3.26467 73.334Z" fill="white"/>
<path d="M17.0837 70.0745C17.0837 69.1321 16.7712 68.3511 16.1464 67.7366C15.5216 67.1222 14.751 66.815 13.8346 66.815C12.9182 66.815 12.1424 67.1222 11.5123 67.7366C10.8823 68.3511 10.5647 69.1269 10.5647 70.0745C10.5647 71.017 10.8823 71.798 11.5123 72.4176C12.1424 73.032 12.9182 73.3444 13.8294 73.3444C14.7406 73.3444 15.5112 73.0372 16.1412 72.4176C16.7713 71.798 17.0837 71.017 17.0837 70.0745ZM15.0478 71.4075C14.7406 71.7407 14.3344 71.9073 13.8242 71.9073C13.3139 71.9073 12.9025 71.7407 12.6005 71.4075C12.2933 71.0742 12.1423 70.6317 12.1423 70.0745C12.1423 69.5174 12.2933 69.0748 12.6005 68.7416C12.9078 68.4083 13.3139 68.2417 13.8242 68.2417C14.3344 68.2417 14.7458 68.4083 15.0478 68.7416C15.355 69.0748 15.506 69.5174 15.506 70.0745C15.506 70.6317 15.3498 71.0742 15.0478 71.4075Z" fill="white"/>
<path d="M28.924 66.9088H27.1433L25.3209 71.2981L23.4881 66.9088H21.7125V73.2767H23.2642V69.684L24.7429 73.2767H25.8937L27.3724 69.684V73.2767H28.924V66.9088Z" fill="white"/>
<path d="M35.4639 70.7983H36.4271C36.8697 70.7983 37.2498 70.7358 37.5726 70.6056C37.8955 70.4755 38.1402 70.3088 38.3016 70.1006C38.6088 69.6996 38.765 69.2883 38.765 68.8561C38.765 68.3198 38.5567 67.8564 38.1506 67.4763C37.7392 67.0962 37.1665 66.9036 36.4271 66.9036H33.9122V73.2715H35.4639V70.7983ZM35.4639 68.0855H36.4271C36.6562 68.0855 36.8437 68.1584 36.979 68.3042C37.1196 68.45 37.1873 68.6374 37.1873 68.8613C37.1873 69.0904 37.1196 69.2727 36.9843 69.4081C36.8489 69.5486 36.6614 69.6163 36.4271 69.6163H35.4639V68.0855Z" fill="white"/>
<path d="M44.9455 66.8879L42.7326 73.2767H44.3832L44.7373 72.2041H47.0231L47.3771 73.2767H49.0381L46.8356 66.8879H44.9455ZM45.1278 71.0274L45.8828 68.7572L46.6377 71.0274H45.1278Z" fill="white"/>
<path d="M59.1238 73.2767V66.8879H57.5721V70.9076L54.9791 66.8879H53.4275V73.2767H54.9791V69.2571L57.5721 73.2767H59.1238Z" fill="white"/>
<path d="M65.7729 71.2252V73.2767H67.3246V71.2252L69.5323 66.9088H67.7724L66.554 69.7829L65.3304 66.9088H63.5704L65.7729 71.2252Z" fill="white"/>
<path d="M39.0045 7.8526C39.9834 9.22721 40.7748 10.7424 41.3424 12.3669C42.0505 12.4607 42.7534 12.5908 43.4355 12.7522C43.5501 12.7783 43.6646 12.8095 43.7792 12.8356C43.8052 12.8408 43.8365 12.8512 43.8625 12.8564C44.0083 12.8928 44.1541 12.9345 44.2999 12.9761H44.3051C44.4457 13.0126 44.5862 13.0542 44.7216 13.1011C44.8414 13.1376 44.9611 13.174 45.0809 13.2157C45.2058 13.2573 45.3256 13.299 45.4506 13.3406C45.5651 13.3771 45.6797 13.4187 45.7942 13.4656C45.9088 13.5072 46.0181 13.5489 46.1327 13.5958C46.7939 13.8509 47.4396 14.1425 48.0644 14.4653C48.2154 14.5434 48.3612 14.6163 48.507 14.6996C48.7569 14.835 49.0016 14.9756 49.2464 15.1214C49.3505 15.1839 49.4547 15.2463 49.5536 15.3088C49.6004 15.3348 49.6525 15.3661 49.6994 15.3973C49.8087 15.465 49.918 15.5379 50.0222 15.6108C50.1263 15.6785 50.2305 15.7462 50.3294 15.8191C51.527 16.6366 52.6308 17.5842 53.6306 18.6308C53.7503 18.7505 53.8596 18.8703 53.969 18.9953C54.0627 19.0942 54.1512 19.1983 54.2397 19.2973C54.3855 19.4639 54.5261 19.6305 54.6667 19.8023C54.7552 19.9013 54.8333 20.0054 54.9166 20.1095C55.026 20.2501 55.1353 20.3907 55.2395 20.5313C55.3384 20.6667 55.4373 20.802 55.531 20.9322C55.63 21.0676 55.7237 21.203 55.8174 21.3436C56.0049 21.6195 56.1819 21.8955 56.3537 22.1819C56.4422 22.3224 56.5255 22.4682 56.6089 22.614C56.6922 22.7598 56.7755 22.9056 56.8536 23.0514C57.0254 23.369 57.192 23.6918 57.343 24.0147C57.4055 24.1448 57.468 24.275 57.5253 24.4052C57.5825 24.5354 57.6398 24.6655 57.6971 24.7957C57.7492 24.9102 57.796 25.0248 57.8429 25.1446C57.8845 25.2539 57.9314 25.358 57.9731 25.4674C58.0772 25.7381 58.1813 26.0141 58.2698 26.2901C58.3271 26.4515 58.3792 26.6129 58.426 26.7743C58.426 26.7795 58.4313 26.7847 58.4313 26.7951C58.4781 26.9513 58.525 27.1075 58.5666 27.2637C58.6968 27.7115 58.8061 28.1645 58.9051 28.6227C58.9311 28.7373 58.9519 28.857 58.978 28.9716C58.9884 29.0393 59.004 29.107 59.0144 29.1695C59.03 29.258 59.0457 29.3465 59.0613 29.4402C59.0821 29.5704 59.103 29.6953 59.1238 29.8255C59.1446 29.9557 59.1654 30.0859 59.181 30.216C59.1863 30.2733 59.1967 30.3306 59.2019 30.3879C59.2123 30.4816 59.2227 30.5805 59.2331 30.6742C59.2435 30.768 59.254 30.8565 59.2592 30.9502C59.2748 31.0908 59.2852 31.2314 59.2956 31.3719C59.306 31.5386 59.3164 31.7052 59.3269 31.8718C59.3373 32.0488 59.3425 32.2259 59.3477 32.4029C59.3529 32.5799 59.3529 32.757 59.3529 32.934C59.3529 44.3682 50.0482 53.6729 38.614 53.6729C38.4369 53.6729 38.2547 53.6729 38.0829 53.6677C37.9058 53.6677 37.7288 53.6573 37.5518 53.6469C37.38 53.6416 37.2029 53.6312 37.0311 53.6156H37.0103C36.8488 53.6052 36.6874 53.5896 36.526 53.574C36.3854 53.5583 36.2501 53.5427 36.1095 53.5271C36.021 53.5167 35.9377 53.5063 35.8491 53.4959C35.7242 53.4802 35.6044 53.4646 35.4847 53.4438C35.4742 53.4438 35.4638 53.4438 35.4534 53.4386C35.3285 53.423 35.2087 53.4021 35.0889 53.3813C34.9848 53.3657 34.8807 53.3449 34.7817 53.324C34.6307 53.298 34.4798 53.2668 34.334 53.2355C33.5269 53.0637 32.7302 52.845 31.9544 52.5795C31.8034 52.5274 31.6524 52.4753 31.5014 52.418C31.3556 52.366 31.2098 52.3087 31.0588 52.2514C30.861 52.1733 30.6631 52.09 30.4652 52.0067C30.3403 51.9546 30.2153 51.9026 30.0956 51.8453C29.9654 51.788 29.83 51.7203 29.6946 51.6578C29.528 51.5745 29.3562 51.4964 29.1896 51.4079C29.0542 51.335 28.9136 51.2673 28.7782 51.1892C28.622 51.1007 28.4658 51.0174 28.3096 50.9289C28.1638 50.8456 28.0232 50.7623 27.8775 50.6737C27.8775 50.6737 27.8722 50.6738 27.867 50.6685C27.6015 50.5123 27.3464 50.3457 27.0912 50.1739C27.0704 50.1635 27.0496 50.1479 27.0339 50.1322C26.8986 50.0385 26.7632 49.9448 26.6278 49.8511C26.4924 49.7573 26.3571 49.6584 26.2269 49.5595C26.0915 49.4606 25.9613 49.3616 25.8312 49.2575C25.7218 49.1742 25.6177 49.0909 25.5136 49.0023C25.3469 48.867 25.1803 48.7264 25.0137 48.5858C24.9043 48.4921 24.795 48.3931 24.6909 48.2994V48.2942C24.5659 48.1849 24.4461 48.0703 24.3264 47.9558C24.2066 47.8412 24.0869 47.7267 23.9671 47.6069C23.738 47.3778 23.5141 47.1435 23.2954 46.904C23.1809 46.7738 23.0611 46.6436 22.9518 46.5135C22.7331 46.2635 22.5248 46.0136 22.3218 45.7533C22.1968 45.5971 22.077 45.4357 21.9573 45.2742C21.8844 45.1805 21.8167 45.0868 21.749 44.9879C21.7282 44.9566 21.7021 44.9254 21.6813 44.8941C21.598 44.7744 21.5147 44.6546 21.4314 44.5349C21.3481 44.4151 21.2752 44.3006 21.1971 44.1808C21.0877 44.0142 20.9784 43.8424 20.8742 43.6705C20.7076 43.3946 20.5462 43.1134 20.39 42.827C20.088 42.2803 19.8172 41.7128 19.5673 41.1296C19.51 40.9942 19.4528 40.864 19.4007 40.7287C19.4007 40.7235 19.3955 40.7182 19.3955 40.7078C19.3538 40.6037 19.3122 40.5048 19.2757 40.4058C19.2393 40.3121 19.2028 40.2184 19.1664 40.1247C19.13 40.0257 19.0935 39.9268 19.0623 39.8279C19.0102 39.6873 18.9633 39.5467 18.9165 39.4061C18.8696 39.2655 18.8227 39.1197 18.7811 38.974C18.7759 38.9635 18.7707 38.9479 18.7707 38.9323C18.729 38.7969 18.6874 38.6511 18.6457 38.5105C18.6041 38.3595 18.5624 38.2085 18.5207 38.0575C18.4062 37.5993 18.3021 37.1359 18.2187 36.6725C18.1927 36.5163 18.1667 36.3601 18.1406 36.2039C18.1146 36.0477 18.0938 35.8915 18.0729 35.7301C16.4484 35.1677 14.928 34.3763 13.5482 33.4026C13.7825 47.0498 24.92 58.0414 38.6244 58.0414C52.4746 58.0414 63.7058 46.8155 63.7058 32.96C63.7162 19.1983 52.6881 8.04525 39.0045 7.8526ZM17.9896 30.9606C18.0053 30.8096 18.0209 30.6534 18.0365 30.5024C18.0521 30.3514 18.073 30.1952 18.0938 30.0442C18.1146 29.8932 18.1354 29.7422 18.1615 29.5912C18.1823 29.4402 18.2135 29.2892 18.2396 29.1434C18.3541 28.5446 18.4895 27.951 18.6509 27.3731C18.6873 27.2325 18.7342 27.0867 18.7759 26.9409C18.8071 26.8316 18.8436 26.717 18.88 26.6077C18.8904 26.5608 18.906 26.5087 18.9269 26.4671C18.9685 26.3421 19.0102 26.2172 19.057 26.0922C19.0935 25.9829 19.1299 25.8735 19.1768 25.7642C19.2028 25.6965 19.2289 25.6288 19.2549 25.5611C19.3486 25.3164 19.4423 25.0821 19.5413 24.8426C19.661 24.5666 19.7808 24.2906 19.9162 24.0199C19.9787 23.8897 20.0411 23.7595 20.1036 23.6346C20.1401 23.5513 20.1869 23.4732 20.2286 23.3898C20.2754 23.2909 20.3275 23.1972 20.3796 23.1035C20.3952 23.0722 20.416 23.0358 20.4369 23.0045C20.5046 22.8744 20.5774 22.7494 20.6503 22.6192C20.718 22.5047 20.7857 22.3901 20.8482 22.2756C20.9107 22.1767 20.9679 22.0777 21.0304 21.984C21.0877 21.8955 21.145 21.807 21.2023 21.7132C21.4418 21.3436 21.6917 20.9791 21.9521 20.6302C22.0406 20.5105 22.1291 20.3959 22.2176 20.2761C22.2853 20.1876 22.353 20.0991 22.4259 20.0106C22.6341 19.7503 22.8476 19.4899 23.0715 19.24C23.1601 19.1358 23.2538 19.0317 23.3475 18.9328C23.5453 18.7141 23.7484 18.5058 23.9567 18.2975C24.04 18.2142 24.1233 18.1309 24.2118 18.0476C24.3472 17.9174 24.4774 17.7873 24.6127 17.6675C24.7117 17.5738 24.8106 17.4853 24.9148 17.3968C25.097 17.2353 25.2844 17.0791 25.4667 16.9229C25.5604 16.8448 25.6593 16.7667 25.753 16.6886C26.1696 16.3554 26.6018 16.0378 27.0444 15.741C27.1693 15.6525 27.2995 15.5692 27.4297 15.4858C27.5338 15.4182 27.6327 15.3557 27.7369 15.2932C27.815 15.2463 27.8931 15.1943 27.9712 15.1526C28.0857 15.0797 28.2003 15.012 28.32 14.9495C28.4658 14.861 28.6116 14.7829 28.7574 14.7048C28.9032 14.6215 29.0542 14.5434 29.2 14.4705C29.3458 14.3924 29.4968 14.3195 29.6478 14.2466C29.6582 14.2414 29.6634 14.2414 29.6738 14.2362C29.9394 14.106 30.2101 13.9863 30.4809 13.8665C30.6839 13.778 30.887 13.6947 31.0953 13.6166C31.2307 13.5593 31.366 13.5072 31.5066 13.4604C31.6264 13.4135 31.7513 13.3719 31.8711 13.3302C31.9336 13.3094 31.9961 13.2886 32.0585 13.2625C32.1939 13.2209 32.3293 13.174 32.4647 13.1324C32.6261 13.0803 32.7875 13.0334 32.9541 12.9866C33.1155 12.9397 33.2822 12.8928 33.4488 12.8512C33.5946 12.8147 33.7404 12.7783 33.8861 12.7418C33.9955 12.7158 34.1101 12.6898 34.2194 12.6689C34.2663 12.6585 34.3183 12.6481 34.3652 12.6377C34.4485 12.6221 34.5318 12.6065 34.6203 12.5856C34.7661 12.5596 34.9171 12.5284 35.0629 12.5023C35.1722 12.4867 35.2764 12.4659 35.3805 12.4503C35.4951 12.4294 35.6044 12.4138 35.719 12.3982C36.0106 12.3565 36.3021 12.3201 36.5989 12.294C35.87 10.8101 34.8754 9.47193 33.6883 8.33684C23.7744 10.3206 15.9694 18.1413 14.022 28.0656C15.1623 29.2476 16.5005 30.2316 17.9896 30.9606Z" fill="white"/>
<path d="M42.0661 15.0693C40.9519 14.8558 39.8064 14.7413 38.6296 14.7413C38.2652 14.7413 37.9007 14.7517 37.5466 14.7725C37.8642 15.9389 38.036 17.1677 38.036 18.4277C38.036 26.1131 31.7826 32.3665 24.0973 32.3665C22.8476 32.3665 21.6344 32.1999 20.4837 31.8874C20.4681 32.2311 20.4577 32.5695 20.4577 32.9184C20.4577 34.1108 20.5723 35.2771 20.7962 36.407C21.8688 36.6049 22.9726 36.7038 24.1077 36.7038C34.2038 36.7038 42.389 28.5186 42.389 18.4225C42.3785 17.2822 42.2692 16.1576 42.0661 15.0693ZM24.0973 0.146484C14.0012 0.146484 5.81604 8.33166 5.81604 18.4277C5.81604 23.4159 7.81546 27.9355 11.0489 31.2314C11.1687 29.2372 11.4967 27.2846 12.0278 25.3997C10.8354 23.3482 10.1585 20.9635 10.1585 18.4277C10.1585 10.7424 16.412 4.489 24.0973 4.489C26.6226 4.489 28.9969 5.16068 31.038 6.34264C32.9229 5.80633 34.8703 5.47309 36.8645 5.34813C33.5738 2.13029 29.0646 0.146484 24.0973 0.146484Z" fill="white"/>
</svg>
