<svg width="77" height="86" viewBox="0 0 77 86" fill="none" xmlns="http://www.w3.org/2000/svg">
<path d="M34.386 14.0273L41.155 25.7531C41.9204 25.7375 42.6858 25.7323 43.4616 25.7323C45.4402 25.7323 47.398 25.7791 49.3193 25.8624L34.386 0L17.9792 28.419C20.8274 27.7682 23.8526 27.2266 27.0131 26.7997L34.386 14.0273ZM22.2385 25.3626L34.3913 4.31648L45.5183 23.5923C44.831 23.5818 44.1489 23.5766 43.4616 23.5766C43.1075 23.5766 42.7535 23.5766 42.3942 23.5818L36.2553 12.9495L34.386 9.71079L32.5168 12.9495L25.6698 24.8107C24.5087 24.9773 23.3631 25.1595 22.2385 25.3626Z" fill="#10B981"/>
<path d="M24.3212 64.5441C15.8601 60.8264 10.6845 55.8487 10.6845 50.3815C10.6845 48.5591 11.2572 46.7939 12.335 45.1121H60.4307L51.6676 29.9394C55 29.6634 58.4521 29.5176 61.9876 29.5176C66.7519 29.5176 71.3599 29.7832 75.7337 30.2778C75.4837 30.1945 75.2234 30.1164 74.963 30.0383C75.2182 30.1164 75.4785 30.1945 75.7337 30.2778C76.0253 30.3091 76.3168 30.3455 76.6136 30.3819C75.843 30.1841 75.0568 30.0018 74.2601 29.8196C67.1163 28.2263 58.8947 27.3151 50.1472 27.3047C50.0951 27.3047 50.0431 27.3047 49.991 27.3047C48.002 27.3047 46.0338 27.3516 44.1073 27.4401C43.4616 27.4713 42.8264 27.5078 42.1911 27.5442C36.0939 27.9243 30.3664 28.7522 25.2116 29.9342C24.7638 30.0383 24.3264 30.1424 23.889 30.2466C20.8326 30.9964 17.9949 31.8763 15.4175 32.8656C5.91499 36.5104 2.08394e-06 41.6496 2.08394e-06 47.3407C-0.00520477 54.6459 9.74724 61.0399 24.3212 64.5441ZM44.0812 30.8193L48.2831 38.0933H20.515C26.3935 34.813 34.5683 32.2616 44.0812 30.8193Z" fill="#10B981"/>
<path d="M4.63419 78.9047C4.89974 78.7849 5.12885 78.6183 5.32671 78.4152C5.52457 78.2069 5.68077 77.9726 5.79011 77.7071C5.90466 77.4415 5.95673 77.1604 5.95673 76.8636V76.27H4.58213V76.7386C4.58213 76.9261 4.5561 77.0823 4.49882 77.2072C4.44675 77.3322 4.37906 77.4311 4.29575 77.504C4.20723 77.5769 4.1083 77.629 4.00417 77.6602C3.90003 77.6915 3.80631 77.7071 3.71258 77.7071C3.40017 77.7071 3.18148 77.6134 3.06173 77.4259C2.94197 77.2385 2.87948 77.0042 2.87948 76.7282V71.8286C2.87948 71.5057 2.93676 71.2402 3.04611 71.0267C3.16066 70.8184 3.38455 70.7091 3.7282 70.7091C3.98855 70.7091 4.19682 70.808 4.34782 71.0059C4.49882 71.2037 4.57692 71.4381 4.57692 71.7036V72.1618H5.95154V71.6255C5.95154 71.2923 5.89426 70.985 5.78492 70.7039C5.67037 70.4227 5.51936 70.178 5.3215 69.9697C4.91536 69.548 4.39468 69.3345 3.74382 69.3345C3.41058 69.3345 3.10859 69.3918 2.83262 69.5011C2.55666 69.6156 2.32236 69.7667 2.1245 69.9645C1.92664 70.1624 1.77564 70.3967 1.66629 70.6622C1.55695 70.933 1.50488 71.2246 1.50488 71.537V76.8167C1.50488 77.2541 1.57257 77.6186 1.71315 77.8997C1.85374 78.1809 2.03077 78.4152 2.24425 78.5923C2.45773 78.7745 2.70246 78.8995 2.97322 78.9671C3.24398 79.04 3.50952 79.0765 3.76987 79.0765C4.08228 79.0869 4.36864 79.0244 4.63419 78.9047Z" fill="#10B981"/>
<path d="M16.9847 71.6828C16.9847 71.2975 16.917 70.9539 16.7816 70.6623C16.6463 70.3655 16.4744 70.1208 16.2557 69.9229C16.0318 69.7355 15.7819 69.5897 15.5112 69.4908C15.2352 69.3918 14.9592 69.345 14.6833 69.345C14.4073 69.345 14.1313 69.3918 13.8554 69.4908C13.5794 69.5897 13.3347 69.7355 13.1212 69.9229C12.8973 70.1208 12.7151 70.3655 12.5849 70.6623C12.4495 70.9591 12.3818 71.2975 12.3818 71.6828V76.7439C12.3818 77.15 12.4495 77.4937 12.5849 77.7801C12.7203 78.0664 12.8973 78.3059 13.1212 78.4934C13.3347 78.6913 13.5794 78.8371 13.8554 78.936C14.1313 79.0349 14.4073 79.0818 14.6833 79.0818C14.9592 79.0818 15.2352 79.0297 15.5112 78.936C15.7871 78.8371 16.0318 78.6913 16.2557 78.4934C16.4692 78.3059 16.6463 78.0664 16.7816 77.7801C16.917 77.4937 16.9847 77.1448 16.9847 76.7439V71.6828ZM15.6101 76.7439C15.6101 77.0771 15.5164 77.3219 15.3341 77.4781C15.1519 77.6343 14.9332 77.7124 14.6833 77.7124C14.4333 77.7124 14.2147 77.6343 14.0324 77.4781C13.8502 77.3219 13.7565 77.0771 13.7565 76.7439V71.6828C13.7565 71.3496 13.8502 71.1049 14.0324 70.9487C14.2147 70.7925 14.4333 70.7144 14.6833 70.7144C14.9332 70.7144 15.1519 70.7925 15.3341 70.9487C15.5164 71.1049 15.6101 71.3496 15.6101 71.6828V76.7439Z" fill="#10B981"/>
<path d="M26.6903 74.4944H26.6643L24.8991 69.4177H23.5818V79.0035H24.9512V73.1771H24.9824L26.3258 77.2957H27.0131L28.3721 73.1771H28.3981V79.0035H29.7727V69.4177H28.4398L26.6903 74.4944Z" fill="#10B981"/>
<path d="M40.2854 70.0945C40.0511 69.8446 39.7908 69.6676 39.5044 69.5686C39.218 69.4697 38.8848 69.4229 38.5099 69.4229H36.448V79.0087H37.8226V75.2649H38.5203C39.0306 75.2649 39.4472 75.1764 39.7596 75.0046C40.072 74.8276 40.3271 74.5828 40.5145 74.2704C40.676 74.0101 40.7801 73.7341 40.8322 73.4373C40.879 73.1405 40.9051 72.7761 40.9051 72.3491C40.9051 71.7763 40.8582 71.3181 40.7697 70.9849C40.6812 70.636 40.5198 70.3445 40.2854 70.0945ZM39.5929 73.0156C39.5773 73.2134 39.5357 73.3801 39.4628 73.5154C39.3899 73.6612 39.2805 73.7706 39.1243 73.8539C38.9733 73.9372 38.7546 73.9736 38.4787 73.9736H37.8174V70.7142H38.5307C38.8015 70.7142 39.0046 70.7558 39.1504 70.8339C39.2961 70.9172 39.4003 71.0318 39.4732 71.1828C39.5461 71.3338 39.5877 71.5108 39.5929 71.7139C39.6034 71.9169 39.6086 72.1304 39.6086 72.3543C39.6138 72.599 39.6086 72.8177 39.5929 73.0156Z" fill="#10B981"/>
<path d="M48.3353 69.4177L46.1953 79.0035H47.5699L47.9761 76.9416H49.8453L50.2515 79.0035H51.6261L49.486 69.4177H48.3353ZM48.2156 75.6503L48.8873 72.1774H48.9133L49.585 75.6503H48.2156Z" fill="#10B981"/>
<path d="M62.4198 79.0035V69.4177H61.0452V75.1973H61.0191L58.9468 69.4177H57.6243V79.0035H58.9989V73.2448H59.0249L61.1285 79.0035H62.4198Z" fill="#10B981"/>
<path d="M71.6931 79.0035V74.9526L73.578 69.4177H72.1252L71.0214 73.2291H70.9954L69.8915 69.4177H68.4336L70.3185 74.9526V79.0035H71.6931Z" fill="#10B981"/>
<path d="M2.66584 85.3975V82.9919H3.43124V82.6118H1.48389V82.9919H2.24408V85.3975H2.66584Z" fill="#10B981"/>
<path d="M6.50329 82.6118L5.49316 85.3923H5.94095L6.15443 84.7675H7.21142L7.4249 85.3923H7.86749L6.85736 82.6118H6.50329ZM6.27419 84.403L6.67511 83.1898H6.68552L7.08646 84.403H6.27419Z" fill="#10B981"/>
<path d="M10.9083 83.2158C10.9552 83.1585 11.0124 83.1117 11.0853 83.0752C11.1582 83.0388 11.2415 83.0179 11.3405 83.0179C11.4758 83.0232 11.5904 83.0596 11.6841 83.1325C11.7726 83.2106 11.8351 83.3043 11.8716 83.4189H12.3193C12.2725 83.1846 12.1684 82.9919 11.9965 82.8357C11.8299 82.6795 11.606 82.6014 11.3405 82.5962C11.1218 82.5962 10.9395 82.6483 10.7937 82.7524C10.6427 82.8513 10.5386 82.9659 10.4709 83.0961C10.4293 83.1637 10.398 83.2523 10.3772 83.3616C10.3564 83.4709 10.3459 83.6896 10.3459 84.0125C10.3459 84.3301 10.3564 84.5436 10.3772 84.6581C10.3876 84.7154 10.398 84.7674 10.4136 84.8091C10.4293 84.8456 10.4501 84.8872 10.4709 84.9289C10.5386 85.059 10.648 85.1684 10.7937 85.2673C10.9395 85.3714 11.1218 85.4235 11.3405 85.4287C11.6216 85.4235 11.8612 85.3298 12.0486 85.1423C12.236 84.9549 12.3298 84.7206 12.335 84.4394V83.8719H11.3457V84.2728H11.9132V84.4186C11.908 84.5904 11.8559 84.731 11.7518 84.8403C11.6425 84.9497 11.5071 85.007 11.3457 85.007C11.2467 85.007 11.1634 84.9861 11.0905 84.9445C11.0176 84.908 10.9604 84.8612 10.9135 84.8039C10.8614 84.7466 10.825 84.6633 10.8042 84.5696C10.7833 84.4707 10.7729 84.2884 10.7729 84.0125C10.7729 83.7365 10.7833 83.5542 10.8042 83.4553C10.8146 83.3512 10.851 83.2731 10.9083 83.2158Z" fill="#10B981"/>
<path d="M15.1675 82.6118V85.3975H16.9482V84.9966H15.5892V82.6118H15.1675Z" fill="#10B981"/>
<path d="M20.1088 82.6118H19.687V85.3923H20.1088V82.6118Z" fill="#10B981"/>
<path d="M23.0403 82.6118V85.3975H23.462V83.4189H23.4725L24.7273 85.3975H25.1282V82.6118H24.7065V84.5904H24.6961L23.436 82.6118H23.0403Z" fill="#10B981"/>
<path d="M29.8354 83.0128V82.6118H28.0598V85.3975H29.8354V84.9966H28.4816V84.1791H29.6375V83.8094H28.4816V83.0128H29.8354Z" fill="#10B981"/>
<path d="M35.8908 83.091C35.8491 83.1587 35.8179 83.2472 35.797 83.3566C35.7762 83.4659 35.771 83.6846 35.771 84.0074C35.771 84.325 35.7814 84.5385 35.797 84.6531C35.8074 84.7103 35.8179 84.7624 35.8335 84.8041C35.8491 84.8405 35.8699 84.8822 35.8908 84.9238C35.9584 85.054 36.0678 85.1633 36.2136 85.2623C36.3594 85.3664 36.5416 85.4185 36.7603 85.4237C37.0415 85.4185 37.281 85.3247 37.4684 85.1373C37.6559 84.9499 37.7496 84.7155 37.7548 84.4344V83.8668H36.7655V84.2678H37.3331V84.4136C37.3278 84.5854 37.2758 84.726 37.1664 84.8353C37.0571 84.9447 36.9217 85.0019 36.7603 85.0019C36.6614 85.0019 36.5781 84.9811 36.5052 84.9394C36.4323 84.903 36.375 84.8561 36.3281 84.7989C36.2761 84.7416 36.2396 84.6583 36.2188 84.5645C36.198 84.4656 36.1875 84.2834 36.1875 84.0074C36.1875 83.7315 36.198 83.5492 36.2188 83.4503C36.2344 83.3566 36.2709 83.2785 36.3281 83.2212C36.375 83.1639 36.4323 83.117 36.5052 83.0806C36.5781 83.0442 36.6614 83.0233 36.7603 83.0233C36.8957 83.0285 37.0102 83.065 37.1039 83.1379C37.1925 83.216 37.2549 83.3097 37.2914 83.4242H37.7392C37.6923 83.1899 37.5882 82.9973 37.4164 82.8411C37.2445 82.6849 37.0258 82.6068 36.7603 82.6016C36.5416 82.6016 36.3594 82.6536 36.2136 82.7578C36.0626 82.8463 35.9584 82.9608 35.8908 83.091Z" fill="#10B981"/>
<path d="M40.6186 83.0909C40.577 83.1586 40.5457 83.2471 40.5249 83.3565C40.5041 83.4658 40.4937 83.6845 40.4937 84.0073C40.4937 84.3249 40.5041 84.5384 40.5249 84.653C40.5353 84.7102 40.5457 84.7623 40.5613 84.804C40.5769 84.8404 40.5978 84.8821 40.6186 84.9237C40.6863 85.0539 40.7956 85.1632 40.9414 85.2622C41.0872 85.3663 41.2695 85.4184 41.4882 85.4236C41.7121 85.4184 41.8943 85.3663 42.0401 85.2622C42.1859 85.1632 42.29 85.0487 42.3577 84.9237C42.4046 84.856 42.4358 84.7675 42.4566 84.653C42.4723 84.5436 42.4827 84.3249 42.4827 84.0073C42.4827 83.6845 42.4723 83.4658 42.4566 83.3565C42.441 83.2471 42.4046 83.1586 42.3577 83.0909C42.2952 82.9607 42.1859 82.8462 42.0401 82.7473C41.8943 82.6431 41.7069 82.5911 41.4882 82.5911C41.2695 82.5911 41.0872 82.6431 40.9414 82.7473C40.7956 82.8462 40.6863 82.9607 40.6186 83.0909ZM40.9518 83.445C40.9675 83.3513 41.0039 83.2732 41.0612 83.2159C41.1081 83.1586 41.1653 83.1117 41.2382 83.0753C41.3111 83.0388 41.3944 83.018 41.4934 83.018C41.5923 83.0232 41.6808 83.0388 41.7537 83.0753C41.8214 83.1117 41.8787 83.1638 41.9203 83.2159C41.9776 83.2732 42.014 83.3513 42.0349 83.445C42.0557 83.5439 42.0609 83.7314 42.0609 84.0021C42.0609 84.2781 42.0505 84.4603 42.0349 84.5593C42.014 84.6582 41.9776 84.7363 41.9203 84.7936C41.8787 84.8508 41.8214 84.8977 41.7537 84.9341C41.6808 84.9758 41.5923 84.9966 41.4934 84.9966C41.3944 84.9966 41.3111 84.9758 41.2382 84.9341C41.1653 84.8977 41.1081 84.8508 41.0612 84.7936C41.0039 84.7363 40.9727 84.653 40.9518 84.5593C40.931 84.4603 40.9206 84.2781 40.9206 84.0021C40.9206 83.7314 40.931 83.5439 40.9518 83.445Z" fill="#10B981"/>
<path d="M45.3206 85.3975H47.0961V84.9966H45.7423V84.1791H46.8982V83.8094H45.7423V83.0128H47.0961V82.6118H45.3206V85.3975Z" fill="#10B981"/>
<path d="M50.6626 84.9966C50.3554 84.9914 50.0951 84.9029 49.8712 84.7207L49.5952 85.0383C49.892 85.2934 50.2461 85.4184 50.6574 85.4184C51.2927 85.4132 51.6207 85.1424 51.6363 84.6113C51.6363 84.4134 51.5738 84.2416 51.4489 84.0906C51.3239 83.9396 51.1312 83.8459 50.8709 83.8095C50.7407 83.7938 50.6366 83.7782 50.5585 83.7678C50.4231 83.7418 50.319 83.6949 50.2565 83.6324C50.194 83.57 50.1628 83.497 50.1628 83.4137C50.168 83.2784 50.2096 83.1794 50.3034 83.1117C50.3919 83.0493 50.496 83.0128 50.6262 83.0128C50.8761 83.018 51.1052 83.0909 51.3135 83.2263L51.5478 82.8774C51.2926 82.6952 50.9907 82.5963 50.647 82.5911C50.3606 82.5911 50.1367 82.6692 49.9805 82.815C49.8191 82.966 49.7358 83.1586 49.7358 83.4033C49.7358 83.6064 49.7983 83.7782 49.9285 83.9188C50.0534 84.0542 50.2357 84.1427 50.4752 84.1844C50.6106 84.2052 50.7303 84.2208 50.8449 84.2364C51.0896 84.2781 51.2093 84.403 51.2093 84.6113C51.2093 84.8612 51.0271 84.9914 50.6626 84.9966Z" fill="#10B981"/>
<path d="M59.6549 85.3975V82.6118H59.2331V83.8094H58.1293V82.6118H57.7075V85.3975H58.1293V84.1791H59.2331V85.3975H59.6549Z" fill="#10B981"/>
<path d="M64.362 83.0128V82.6118H62.5864V85.3975H64.362V84.9966H63.0082V84.1791H64.1641V83.8094H63.0082V83.0128H64.362Z" fill="#10B981"/>
<path d="M68.496 84.1636C68.8501 84.0282 69.0271 83.7731 69.0323 83.393C69.0271 83.1379 68.9334 82.94 68.7564 82.7994C68.6106 82.6797 68.4231 82.6172 68.1888 82.6172H67.1006V85.3976H67.5224V84.2105H68.0587L68.6314 85.3976H69.1417L68.496 84.1636ZM67.5276 83.8356V82.9921H68.1888C68.3242 82.9921 68.4283 83.0181 68.496 83.0754C68.5846 83.1379 68.6314 83.2472 68.6366 83.3878C68.6366 83.5076 68.6002 83.6117 68.5221 83.695C68.444 83.7835 68.3242 83.8304 68.168 83.8304H67.5276V83.8356Z" fill="#10B981"/>
<path d="M73.6093 83.0128V82.6118H71.8337V85.3975H73.6093V84.9966H72.2555V84.1791H73.4114V83.8094H72.2555V83.0128H73.6093Z" fill="#10B981"/>
</svg>
