<svg width="70" height="80" viewBox="0 0 70 80" fill="none" xmlns="http://www.w3.org/2000/svg">
<path d="M20.8599 55.8108L20.8558 55.8006L19.1553 52.1549L5.68761 23.2549H2.29077L17.4589 55.8006L17.4548 55.8108H17.463H20.8516H20.8599Z" fill="#111827"/>
<path d="M34.447 55.8108L34.4429 55.8006L32.7424 52.1549L31.0461 48.5142L29.3456 44.8685L27.6492 41.2228L25.9488 37.577L19.2748 23.2549H15.8779L24.2524 41.2228L25.9488 44.8685L27.6492 48.5142L29.3456 52.1549L31.0461 55.8006L31.042 55.8108H31.0502H34.4388H34.447Z" fill="#111827"/>
<path d="M39.5361 52.1549L37.8398 48.5142L36.1393 44.8685L34.4429 41.2228L32.7425 37.577L31.0461 33.9364L29.3456 30.2907L26.0685 23.2549H22.6716L27.6493 33.9313L31.0461 41.2228L32.7425 44.8685L34.4429 48.5142L36.1393 52.1549L37.8398 55.8006L37.8357 55.8108H37.8439H41.2325H41.2407L41.2366 55.8006L39.5361 52.1549Z" fill="#111827"/>
<path d="M46.8624 0H43.4614L31.0627 26.6093L32.7632 30.2499L46.8624 0Z" fill="#111827"/>
<path d="M24.2568 55.8108H27.6453H27.6536L27.6495 55.8006L25.949 52.1549L24.2526 48.5142L22.5521 44.8685L12.4813 23.2549H9.08447L20.8558 48.5091L22.5521 52.1549L24.2526 55.8006L24.2485 55.8108H24.2568Z" fill="#111827"/>
<path d="M36.16 37.5413L53.656 0H50.2591L34.4595 33.8956L34.4801 33.9365L36.16 37.5413Z" fill="#111827"/>
<path d="M39.5569 44.8277L60.4498 0H57.0529L37.8564 41.182L37.8771 41.2229L39.5569 44.8277Z" fill="#111827"/>
<path d="M67.2433 0H63.8465L41.2532 48.4734L41.2738 48.5143L42.9537 52.1192L67.2433 0Z" fill="#111827"/>
<path d="M4.46178 71.0281C4.12746 71.4115 3.66932 71.6467 3.17403 71.6467C2.12155 71.6467 1.2713 70.6037 1.2713 69.2998C1.2713 67.9959 2.12155 66.9528 3.17403 66.9528C3.66519 66.9528 4.12746 67.1931 4.46178 67.5817L5.35742 66.4619C4.78784 65.787 4.02014 65.3779 3.17816 65.3779C1.43227 65.3779 0.0124512 67.1369 0.0124512 69.2998C0.0124512 71.4627 1.43227 73.2216 3.17816 73.2216C4.02014 73.2216 4.79197 72.8075 5.35742 72.1376L4.46178 71.0281Z" fill="#111827"/>
<path d="M13.6989 65.3779C11.953 65.3779 10.5332 67.1369 10.5332 69.2998C10.5332 71.4627 11.953 73.2216 13.6989 73.2216C15.4448 73.2216 16.8646 71.4627 16.8646 69.2998C16.8646 67.1369 15.4448 65.3779 13.6989 65.3779ZM13.6989 71.657C12.6464 71.657 11.7962 70.6037 11.7962 69.2998C11.7962 67.9959 12.6464 66.9528 13.6989 66.9528C14.7514 66.9528 15.5934 68.0061 15.5934 69.2998C15.5934 70.5934 14.7431 71.657 13.6989 71.657Z" fill="#111827"/>
<path d="M25.6764 71.1099L23.8191 65.3779H22.4612V73.2216H23.72V69.2998L24.9913 73.2216H26.3533L27.6204 69.2998V73.2216H28.8834V65.3779H27.5214L25.6764 71.1099Z" fill="#111827"/>
<path d="M36.2467 65.3779H34.4761V73.2216H35.7391V70.0872H36.255C37.2992 70.0872 38.1412 69.0339 38.1412 67.7402C38.1412 66.4466 37.2992 65.383 36.2467 65.383V65.3779ZM36.2467 68.5123H35.7391V66.9477H36.2467C36.5976 66.9477 36.8823 67.3005 36.8823 67.7351C36.8823 68.1698 36.5976 68.5123 36.2467 68.5123Z" fill="#111827"/>
<path d="M45.1909 65.3779L42.9043 73.2216H44.2498L44.8937 71.0281H46.8377L47.4816 73.2216H48.8271L46.5405 65.3779H45.195H45.1909ZM45.3477 69.4532L45.8554 67.684L46.3713 69.4532H45.3436H45.3477Z" fill="#111827"/>
<path d="M59.5251 65.3779H58.2621V70.6139L55.732 65.3779H54.2544V73.2216H55.5132V67.9959L58.0557 73.2216H59.5251V65.3779Z" fill="#111827"/>
<path d="M67.8666 73.2216V69.4839L69.5217 65.3779H68.1101L67.2392 67.5511L66.3642 65.3779H64.9526L66.6077 69.4839V73.2216H67.8666Z" fill="#111827"/>
<path d="M0 77.0308H0.734675V79.9044H1.14329V77.0308H1.87796V76.5808H0V77.0308Z" fill="#111827"/>
<path d="M4.84149 76.5808L3.86743 79.9044H4.29668L4.50305 79.163H5.51839L5.72476 79.9044H6.154L5.17994 76.5808H4.84149ZM4.62274 78.713L5.01072 77.2609H5.01897L5.40695 78.713H4.62274Z" fill="#111827"/>
<path d="M9.50536 78.5495H10.0502V78.7234C10.0502 78.933 9.99652 79.1018 9.89333 79.2245C9.79015 79.3574 9.65807 79.4239 9.50123 79.4239C9.4063 79.4239 9.32375 79.3983 9.25359 79.3472C9.18342 79.3063 9.12564 79.2501 9.08437 79.1785C9.03071 79.1069 8.99769 79.0148 8.98118 78.8972C8.96054 78.7796 8.95229 78.5598 8.95229 78.2325C8.95229 77.9053 8.96054 77.6854 8.98118 77.5627C8.99769 77.4502 9.03484 77.3582 9.08437 77.2866C9.12564 77.2201 9.18342 77.1587 9.25359 77.1178C9.32375 77.0718 9.4063 77.0514 9.50123 77.0462C9.63331 77.0462 9.74062 77.0974 9.83142 77.1843C9.9181 77.2763 9.98001 77.3939 10.013 77.5269H10.4423C10.401 77.2508 10.2978 77.0156 10.1327 76.8264C9.96763 76.6372 9.75713 76.5452 9.50123 76.54C9.29074 76.54 9.11326 76.6065 8.97293 76.7292C8.82847 76.8468 8.72528 76.9849 8.65924 77.1383C8.61797 77.2201 8.58908 77.3224 8.56844 77.4553C8.55193 77.5882 8.53955 77.8439 8.53955 78.2325C8.53955 78.6211 8.54781 78.8717 8.56844 79.0046C8.5767 79.0762 8.58908 79.1376 8.60559 79.1836C8.6221 79.2296 8.63861 79.2756 8.65924 79.3267C8.72528 79.4801 8.82847 79.6131 8.97293 79.7307C9.11326 79.8534 9.29074 79.9148 9.50123 79.9199C9.77364 79.9148 10.0006 79.7972 10.1823 79.5773C10.3597 79.3523 10.4547 79.0711 10.4588 78.7387V78.0638H9.50536V78.5393V78.5495Z" fill="#111827"/>
<path d="M13.5998 76.5808H13.1953V79.9044H14.9082V79.4238H13.5998V76.5808Z" fill="#111827"/>
<path d="M17.9582 76.5808H17.5496V79.9044H17.9582V76.5808Z" fill="#111827"/>
<path d="M22.387 78.9431H22.3788L21.1653 76.5808H20.7815V79.9044H21.1901V77.5421H21.1984L22.4077 79.9044H22.7915V76.5808H22.387V78.9431Z" fill="#111827"/>
<path d="M25.6228 79.9044H27.3315V79.4238H26.0273V78.4522H27.1417V78.0023H26.0273V77.0563H27.3315V76.5808H25.6228V79.9044Z" fill="#111827"/>
<path d="M34.0098 78.5495H34.5546V78.7234C34.5546 78.933 34.5009 79.1018 34.3977 79.2245C34.2945 79.3574 34.1625 79.4239 34.0056 79.4239C33.9107 79.4239 33.8282 79.3983 33.758 79.3472C33.6878 79.3063 33.63 79.2501 33.5888 79.1785C33.5351 79.1069 33.5021 79.0148 33.4856 78.8972C33.4649 78.7796 33.4567 78.5598 33.4567 78.2325C33.4567 77.9053 33.4649 77.6854 33.4856 77.5627C33.5021 77.4502 33.5392 77.3582 33.5888 77.2866C33.63 77.2201 33.6878 77.1587 33.758 77.1178C33.8282 77.0718 33.9107 77.0514 34.0056 77.0462C34.1336 77.0462 34.245 77.0974 34.3358 77.1843C34.4225 77.2763 34.4844 77.3939 34.5174 77.5269H34.9467C34.9054 77.2508 34.8022 77.0156 34.6371 76.8264C34.472 76.6372 34.2615 76.5452 34.0056 76.54C33.7951 76.54 33.6177 76.6065 33.4773 76.7292C33.3329 76.8468 33.2297 76.9849 33.1636 77.1383C33.1224 77.2201 33.0935 77.3224 33.0728 77.4553C33.0563 77.5882 33.0439 77.8439 33.0439 78.2325C33.0439 78.6211 33.0522 78.8717 33.0728 79.0046C33.0811 79.0762 33.0935 79.1376 33.11 79.1836C33.1265 79.2296 33.143 79.2756 33.1636 79.3267C33.2297 79.4801 33.3329 79.6131 33.4773 79.7307C33.6177 79.8534 33.7951 79.9148 34.0056 79.9199C34.278 79.9148 34.505 79.7972 34.6866 79.5773C34.8641 79.3523 34.9591 79.0711 34.9632 78.7387V78.0638H34.0098V78.5393V78.5495Z" fill="#111827"/>
<path d="M39.4043 77.1483C39.3424 76.9949 39.2392 76.8568 39.0989 76.7392C38.9544 76.6165 38.7769 76.5552 38.5664 76.55C38.3559 76.55 38.1784 76.6165 38.0381 76.7392C37.8937 76.8568 37.7905 76.9949 37.7244 77.1483C37.6832 77.2301 37.6543 77.3324 37.6336 77.4653C37.6171 77.5983 37.6047 77.8539 37.6047 78.2425C37.6047 78.6311 37.613 78.8817 37.6336 79.0146C37.6419 79.0862 37.6543 79.1476 37.6708 79.1936C37.6873 79.2396 37.7038 79.2856 37.7244 79.3368C37.7905 79.4902 37.8937 79.6231 38.0381 79.7407C38.1784 79.8634 38.3559 79.9248 38.5664 79.9299C38.781 79.9248 38.9585 79.8583 39.0989 79.7407C39.2392 79.6231 39.3424 79.4902 39.4043 79.3368C39.4497 79.2549 39.4827 79.1476 39.4992 79.0146C39.5157 78.8817 39.524 78.626 39.524 78.2425C39.524 77.859 39.5157 77.5983 39.4992 77.4653C39.4827 77.3324 39.4497 77.2301 39.4043 77.1483ZM39.0865 78.9021C39.0658 79.0197 39.0287 79.1118 38.9792 79.1834C38.9379 79.2498 38.8842 79.3061 38.8182 79.3521C38.748 79.4032 38.6613 79.4288 38.5664 79.4288C38.4715 79.4288 38.3889 79.4032 38.3188 79.3521C38.2486 79.3112 38.1908 79.2549 38.1496 79.1834C38.0959 79.1118 38.0629 79.0197 38.0464 78.9021C38.0257 78.7845 38.0175 78.5647 38.0175 78.2374C38.0175 77.9102 38.0257 77.6903 38.0464 77.5676C38.0629 77.4551 38.1 77.3631 38.1496 77.2915C38.1908 77.225 38.2486 77.1636 38.3188 77.1227C38.3889 77.0767 38.4715 77.0563 38.5664 77.0511C38.6613 77.0511 38.748 77.0767 38.8182 77.1227C38.8842 77.1687 38.9379 77.225 38.9792 77.2915C39.0328 77.3631 39.07 77.4551 39.0865 77.5676C39.103 77.6852 39.1154 77.9102 39.1154 78.2374C39.1154 78.5647 39.1071 78.7845 39.0865 78.9021Z" fill="#111827"/>
<path d="M42.2603 79.9044H43.9731V79.4238H42.6647V78.4522H43.7791V78.0023H42.6647V77.0563H43.9731V76.5808H42.2603V79.9044Z" fill="#111827"/>
<path d="M47.6135 78.0073C47.4856 77.9869 47.3865 77.9715 47.3122 77.9562C47.1801 77.9255 47.0852 77.8693 47.0233 77.7926C46.9614 77.7159 46.9325 77.629 46.9325 77.5318C46.9325 77.3733 46.9779 77.2506 47.0687 77.1739C47.1512 77.0972 47.2544 77.0563 47.3824 77.0563C47.6259 77.0614 47.8446 77.1483 48.0469 77.3119L48.2739 76.8978C48.0262 76.6779 47.7373 76.5603 47.403 76.5552C47.1265 76.5552 46.9119 76.6472 46.7591 76.8262C46.6023 77.0051 46.5239 77.2403 46.5239 77.5267C46.5239 77.767 46.5858 77.9715 46.7096 78.1403C46.8293 78.3039 47.0068 78.4113 47.2379 78.4573C47.3659 78.4778 47.4856 78.4982 47.5929 78.5187C47.8281 78.5698 47.9437 78.7181 47.9437 78.9635C47.9396 79.2652 47.7621 79.4186 47.4154 79.4237C47.1223 79.4237 46.8664 79.3112 46.6518 79.0913L46.3835 79.4697C46.6683 79.7714 47.0109 79.9248 47.4071 79.9248C48.0221 79.9146 48.3358 79.5924 48.3482 78.9584C48.3482 78.7232 48.2904 78.5187 48.1707 78.3397C48.051 78.1607 47.8653 78.0482 47.6135 78.0022V78.0073Z" fill="#111827"/>
<path d="M55.6703 78.0023H54.6095V76.5808H54.2009V79.9044H54.6095V78.4522H55.6703V79.9044H56.0748V76.5808H55.6703V78.0023Z" fill="#111827"/>
<path d="M58.9019 79.9044H60.6147V79.4238H59.3105V78.4522H60.4249V78.0023H59.3105V77.0563H60.6147V76.5808H58.9019V79.9044Z" fill="#111827"/>
<path d="M65.1219 77.5063C65.1137 77.1995 65.027 76.9643 64.8537 76.7956C64.7133 76.6524 64.5317 76.5757 64.3089 76.5757H63.2605V79.8993H63.6691V78.4778H64.1892L64.7422 79.8993H65.2251L64.6019 78.4267C64.9445 78.2631 65.1137 77.9563 65.1219 77.5063ZM63.6691 78.033V77.0257H64.3047C64.4327 77.0257 64.5359 77.0614 64.6019 77.1279C64.6886 77.2046 64.734 77.3324 64.7381 77.5063C64.7381 77.6495 64.701 77.7722 64.6267 77.8693C64.5524 77.9767 64.4368 78.0278 64.2841 78.033H63.6691Z" fill="#111827"/>
<path d="M67.8171 79.9044H69.53V79.4238H68.2258V78.4522H69.3401V78.0023H68.2258V77.0563H69.53V76.5808H67.8171V79.9044Z" fill="#111827"/>
</svg>
