<svg width="79" height="83" viewBox="0 0 79 83" fill="none" xmlns="http://www.w3.org/2000/svg">
<path d="M3.59281 76.0877C4.54567 76.0877 5.41521 75.7076 6.06086 75.0932L5.05073 74.0831C4.67063 74.4319 4.15516 74.6506 3.59802 74.6506C2.40565 74.6506 1.44238 73.6978 1.44238 72.5054C1.44238 71.3235 2.40565 70.3602 3.59802 70.3602C4.15516 70.3602 4.67584 70.5789 5.05073 70.9381L6.06086 69.9176C5.42042 69.3032 4.55088 68.9231 3.59281 68.9231C1.61942 68.9231 0.010498 70.5268 0.010498 72.5054C0.0157049 74.484 1.61942 76.0877 3.59281 76.0877Z" fill="#111827"/>
<path d="M19.078 72.5105C19.078 70.5371 17.4742 68.9282 15.4956 68.9282C13.517 68.9282 11.9133 70.5319 11.9133 72.5105C11.9133 74.4839 13.517 76.0929 15.4956 76.0929C17.4742 76.0929 19.078 74.4839 19.078 72.5105ZM15.5009 74.661C14.3085 74.661 13.3452 73.6977 13.3452 72.5053C13.3452 71.3234 14.3085 70.3601 15.5009 70.3601C16.6828 70.3601 17.6461 71.3234 17.6461 72.5053C17.6461 73.6977 16.6828 74.661 15.5009 74.661Z" fill="#111827"/>
<path d="M32.673 76.0876V68.9282H31.137L29.049 74.1611L26.9507 68.9282H25.4094V76.0876H26.8361V72.5105L28.2732 76.0876H29.8144L31.2463 72.5105V76.0876H32.673Z" fill="#111827"/>
<path d="M40.4311 73.2291H41.0195C42.2014 73.2291 43.1543 72.2658 43.1543 71.0839C43.1543 69.8915 42.2014 68.9282 41.009 68.9282H39.0044V76.0876H40.4311V73.2291ZM40.4311 70.3653H41.009C41.4048 70.3653 41.7276 70.6881 41.7276 71.0839C41.7276 71.4692 41.4048 71.792 41.009 71.792H40.4311V70.3653Z" fill="#111827"/>
<path d="M52.6465 68.9282H51.1261L48.5383 76.0876H50.0587L50.7877 74.083H52.9902L53.7192 76.0876H55.2396L52.6465 68.9282ZM51.3032 72.6511L51.8811 71.037L52.4695 72.6511H51.3032Z" fill="#111827"/>
<path d="M67.3403 76.0876V68.9282H65.9136V73.7081L63.0498 68.9282H61.3784V76.0876H62.8051V71.3182L65.6741 76.0876H67.3403Z" fill="#111827"/>
<path d="M75.0775 68.9282H73.479L75.3483 72.6772V76.0876H76.7749V72.6772L78.6494 68.9282H77.0509L76.0668 70.912L75.0775 68.9282Z" fill="#111827"/>
<path d="M0.833096 82.1901H1.29651V79.5658H2.1244V79.1597H0V79.5658H0.833096V82.1901Z" fill="#111827"/>
<path d="M5.47763 79.1597L4.37378 82.1953H4.86322L5.09753 81.5184H6.24825L6.48255 82.1953H6.96679L5.86294 79.1597H5.47763ZM5.2277 81.107L5.66508 79.7793H5.67549L6.11287 81.107H5.2277Z" fill="#111827"/>
<path d="M10.2782 79.8159C10.3251 79.7534 10.3928 79.7013 10.4709 79.6597C10.549 79.618 10.6427 79.5972 10.7521 79.5972C10.8978 79.6024 11.0228 79.6441 11.1269 79.7222C11.2259 79.8107 11.2936 79.9096 11.33 80.0346H11.8195C11.7726 79.7794 11.6528 79.566 11.4706 79.3941C11.2884 79.2223 11.0488 79.139 10.7521 79.1338C10.5125 79.139 10.3147 79.1911 10.1533 79.3056C9.99185 79.415 9.87209 79.5399 9.7992 79.6805C9.75234 79.7534 9.7211 79.8523 9.69506 79.9721C9.67423 80.0919 9.66382 80.3262 9.66382 80.6802C9.66382 81.0291 9.67423 81.2634 9.69506 81.3832C9.70548 81.4508 9.72109 81.5029 9.73671 81.5446C9.75233 81.5862 9.77316 81.6279 9.7992 81.6747C9.87209 81.8153 9.99185 81.9403 10.1533 82.0444C10.3147 82.1538 10.5125 82.211 10.7521 82.2215C11.0593 82.2162 11.3196 82.1121 11.5227 81.909C11.7257 81.706 11.8299 81.4508 11.8351 81.1436V80.524H10.7573V80.9614H11.3769V81.1176C11.3717 81.3103 11.3144 81.4613 11.1998 81.5758C11.0853 81.6956 10.9343 81.758 10.7573 81.758C10.6479 81.758 10.5542 81.7372 10.4761 81.6904C10.398 81.6539 10.3355 81.6018 10.2834 81.5394C10.2262 81.4717 10.1845 81.3884 10.1637 81.2842C10.1428 81.1801 10.1324 80.977 10.1324 80.6802C10.1324 80.3834 10.1428 80.1804 10.1637 80.071C10.1793 79.9617 10.221 79.8784 10.2782 79.8159Z" fill="#111827"/>
<path d="M14.928 79.1597V82.1901H16.8649V81.7579H15.3862V79.1597H14.928Z" fill="#111827"/>
<path d="M20.312 79.1597H19.8538V82.1953H20.312V79.1597Z" fill="#111827"/>
<path d="M25.3261 81.3153H25.3209L23.9463 79.1597H23.5142V82.1901H23.9724V80.0344H23.9828L25.3522 82.1901H25.7896V79.1597H25.3261V81.3153Z" fill="#111827"/>
<path d="M30.9235 79.5918V79.1597H28.9866V82.1901H30.9235V81.7579H29.4448V80.8675H30.7048V80.4562H29.4448V79.5918H30.9235Z" fill="#111827"/>
<path d="M37.8747 79.3056C37.7133 79.415 37.5935 79.5399 37.5206 79.6805C37.4738 79.7534 37.4425 79.8523 37.4165 79.9721C37.3957 80.0919 37.3853 80.3262 37.3853 80.6802C37.3853 81.0291 37.3957 81.2634 37.4165 81.3832C37.4269 81.4508 37.4425 81.5029 37.4581 81.5446C37.4738 81.5862 37.4946 81.6279 37.5206 81.6747C37.5935 81.8153 37.7133 81.9403 37.8747 82.0444C38.0361 82.1538 38.234 82.211 38.4735 82.2215C38.7807 82.2163 39.041 82.1121 39.2441 81.909C39.4472 81.706 39.5513 81.4508 39.5565 81.1436V80.524H38.4787V80.9614H39.0983V81.1176C39.0931 81.3103 39.0358 81.4613 38.9213 81.5758C38.8067 81.6956 38.6557 81.758 38.4787 81.758C38.3694 81.758 38.2756 81.7372 38.1975 81.6904C38.1194 81.6539 38.0569 81.6018 38.0049 81.5394C37.9476 81.4717 37.9059 81.3884 37.8851 81.2842C37.8643 81.1801 37.8539 80.977 37.8539 80.6802C37.8539 80.3834 37.8643 80.1804 37.8851 80.071C37.9059 79.9669 37.9424 79.8836 38.0049 79.8211C38.0517 79.7586 38.1194 79.7065 38.1975 79.6649C38.2756 79.6232 38.3694 79.6024 38.4787 79.6024C38.6245 79.6076 38.7495 79.6493 38.8536 79.7274C38.9525 79.8159 39.0202 79.9148 39.0567 80.0398H39.5461C39.4992 79.7847 39.3795 79.5712 39.1972 79.3993C39.015 79.2275 38.7755 79.1442 38.4787 79.139C38.234 79.1338 38.0361 79.1911 37.8747 79.3056Z" fill="#111827"/>
<path d="M44.581 81.6694C44.6331 81.5965 44.6696 81.4975 44.6852 81.3778C44.7008 81.258 44.7112 81.0237 44.7112 80.6749C44.7112 80.3208 44.7008 80.0865 44.6852 79.9667C44.6644 79.847 44.6279 79.7532 44.581 79.6751C44.5082 79.5345 44.3936 79.4096 44.2374 79.3002C44.076 79.1909 43.8729 79.1336 43.6334 79.1284C43.3939 79.1336 43.196 79.1857 43.0346 79.3002C42.8732 79.4096 42.7534 79.5345 42.6805 79.6751C42.6337 79.748 42.6024 79.847 42.5764 79.9667C42.5556 80.0865 42.5452 80.3208 42.5452 80.6749C42.5452 81.0237 42.5556 81.258 42.5764 81.3778C42.5868 81.4455 42.6024 81.4975 42.6181 81.5392C42.6337 81.5808 42.6545 81.6225 42.6805 81.6694C42.7534 81.8099 42.8732 81.9349 43.0346 82.039C43.196 82.1484 43.3939 82.2057 43.6334 82.2161C43.8729 82.2109 44.076 82.1536 44.2374 82.039C44.3936 81.9349 44.5082 81.8099 44.581 81.6694ZM44.0968 81.534C44.0499 81.5965 43.9875 81.6485 43.9146 81.685C43.8365 81.7318 43.7375 81.7527 43.6282 81.7527C43.5188 81.7527 43.4251 81.7318 43.347 81.685C43.2689 81.6485 43.2064 81.5965 43.1544 81.534C43.0971 81.4663 43.0554 81.383 43.0346 81.2788C43.0138 81.1747 43.0034 80.9716 43.0034 80.6749C43.0034 80.3781 43.0138 80.175 43.0346 80.0656C43.0554 79.9615 43.0919 79.8782 43.1544 79.8157C43.2012 79.7532 43.2689 79.7012 43.347 79.6595C43.4251 79.6179 43.5188 79.597 43.6282 79.597C43.7375 79.6022 43.8313 79.6231 43.9146 79.6595C43.9927 79.7012 44.0499 79.7532 44.0968 79.8157C44.1541 79.8834 44.1957 79.9667 44.2218 80.0656C44.2426 80.175 44.253 80.3781 44.253 80.6749C44.253 80.9716 44.2426 81.1747 44.2218 81.2788C44.2009 81.3882 44.1593 81.4715 44.0968 81.534Z" fill="#111827"/>
<path d="M49.7463 79.5918V79.1597H47.8093V82.1901H49.7463V81.7579H48.2675V80.8675H49.5276V80.4562H48.2675V79.5918H49.7463Z" fill="#111827"/>
<path d="M53.6357 81.758C53.3025 81.7528 53.0161 81.6539 52.7766 81.456L52.4746 81.7997C52.7974 82.0757 53.1827 82.2162 53.6357 82.2162C54.3335 82.2058 54.6875 81.9142 54.7031 81.3363C54.7031 81.1228 54.6355 80.9302 54.5001 80.7687C54.3647 80.6021 54.1564 80.5032 53.87 80.4615C53.7243 80.4459 53.6097 80.4251 53.5264 80.4147C53.3754 80.3886 53.2661 80.3366 53.1984 80.2637C53.1307 80.1908 53.0942 80.1127 53.0942 80.0242C53.0994 79.8784 53.1463 79.769 53.2452 79.6961C53.3389 79.6232 53.4587 79.592 53.5993 79.592C53.8752 79.5972 54.1252 79.6753 54.3491 79.8263L54.6042 79.4462C54.323 79.2431 53.995 79.139 53.6201 79.1338C53.3077 79.139 53.063 79.2171 52.8912 79.3785C52.7141 79.5399 52.6256 79.7534 52.6256 80.019C52.6256 80.2376 52.6933 80.4251 52.8339 80.5813C52.9693 80.7323 53.1671 80.826 53.4275 80.8729C53.5732 80.8937 53.7086 80.9145 53.8284 80.9302C54.0939 80.977 54.2241 81.1124 54.2241 81.3363C54.2293 81.6122 54.0262 81.7528 53.6357 81.758Z" fill="#111827"/>
<path d="M63.4403 82.1901V79.1597H62.9769V80.4562H61.7793V79.1597H61.3159V82.1901H61.7793V80.8675H62.9769V82.1901H63.4403Z" fill="#111827"/>
<path d="M68.5742 79.5918V79.1597H66.6372V82.1901H68.5742V81.7579H67.0954V80.8675H68.3555V80.4562H67.0954V79.5918H68.5742Z" fill="#111827"/>
<path d="M72.0263 80.8936H72.6147L73.2395 82.1901H73.7862L73.0833 80.8415C73.4686 80.6905 73.6665 80.4145 73.6717 80.0032C73.6613 79.722 73.5623 79.5085 73.3697 79.3575C73.2083 79.2222 73.0052 79.1597 72.7501 79.1597H71.5681V82.1953H72.0263V80.8936ZM72.0263 79.5658H72.7449C72.8907 79.5658 73.0052 79.597 73.0833 79.6595C73.1822 79.7324 73.2343 79.847 73.2343 80.0032C73.2343 80.1333 73.1926 80.2479 73.1093 80.3364C73.0208 80.4353 72.8959 80.4822 72.724 80.4874H72.0263V79.5658Z" fill="#111827"/>
<path d="M78.6598 79.5918V79.1597H76.7229V82.1901H78.6598V81.7579H77.1811V80.8675H78.4412V80.4562H77.1811V79.5918H78.6598Z" fill="#111827"/>
<path d="M9.92421 25.6438L9.91895 25.6649H9.92421V25.6438Z" fill="#111827"/>
<path d="M9.96582 25.3376C9.97105 25.2852 9.98152 25.2329 9.98675 25.1858C9.98152 25.2381 9.97105 25.2905 9.96582 25.3376Z" fill="#111827"/>
<path d="M9.84106 26.3414C9.84627 26.3049 9.84627 26.2737 9.85148 26.2424C9.84627 26.2737 9.84106 26.3049 9.84106 26.3414Z" fill="#111827"/>
<path d="M9.70041 28.0076C9.69517 28.0651 9.69517 28.1279 9.68994 28.1855C9.69517 28.1227 9.69517 28.0651 9.70041 28.0076Z" fill="#111827"/>
<path d="M9.76301 27.1016C9.75778 27.133 9.75778 27.1696 9.75255 27.201C9.75255 27.2167 9.75255 27.2376 9.74731 27.2533C9.74731 27.2376 9.74732 27.2167 9.75255 27.201C9.75778 27.1696 9.76301 27.133 9.76301 27.1016Z" fill="#111827"/>
<path d="M9.73673 27.4714C9.72631 27.5808 9.72111 27.6953 9.71069 27.8307C9.7159 27.6953 9.72631 27.5808 9.73673 27.4714Z" fill="#111827"/>
<path d="M25.1543 39.6294C25.1648 39.6556 25.1805 39.6871 25.191 39.7133C25.1805 39.6818 25.1648 39.6556 25.1543 39.6294Z" fill="#111827"/>
<path d="M29.6218 12.9181C32.1524 10.1897 35.2556 8.07575 38.7546 6.72196C39.8168 6.31062 40.8947 5.97738 41.9985 5.71704C40.8999 5.97738 39.8168 6.31062 38.7546 6.72196C35.2556 8.07575 32.1471 10.1949 29.6218 12.9181Z" fill="#111827"/>
<path d="M34.9016 50.6834C31.9753 48.913 29.4448 46.5439 27.4558 43.6958C26.7372 42.6648 26.0968 41.5818 25.55 40.4675C26.0968 41.5818 26.7372 42.6596 27.4558 43.6958C29.4448 46.5491 31.9753 48.9182 34.9016 50.6834Z" fill="#111827"/>
<path d="M16.0267 44.8727C12.0018 40.9051 9.742 35.6149 9.65869 29.9707V29.8926V29.7989C9.65869 29.7676 9.65869 29.7416 9.65869 29.7156C9.65869 29.7416 9.65869 29.7728 9.65869 29.7989C9.65869 29.8301 9.65869 29.8614 9.65869 29.8926V29.9707C9.742 35.6149 12.0018 40.9103 16.0267 44.8727Z" fill="#111827"/>
<path d="M59.327 7.72165L59.3374 7.73207C59.3894 7.77893 59.4415 7.82579 59.4936 7.87786C59.4415 7.831 59.3894 7.77893 59.3374 7.73207L59.327 7.72165L59.2593 7.65917C59.2489 7.64876 59.2384 7.63834 59.228 7.62793C59.2384 7.63834 59.2489 7.64876 59.2645 7.65917L59.327 7.72165Z" fill="#111827"/>
<path d="M59.8274 8.19081L59.8165 8.17993H59.811H59.8165L59.8274 8.19081Z" fill="#111827"/>
<path d="M60.1183 8.47682L60.1235 8.48202C60.1235 8.48202 60.1235 8.48202 60.1287 8.48202C60.1235 8.47682 60.1235 8.47682 60.1183 8.47682C60.0818 8.44037 60.0506 8.40913 60.0141 8.37268C60.0506 8.40392 60.087 8.44037 60.1183 8.47682Z" fill="#111827"/>
<path d="M9.6639 29.0387V28.997C9.6639 28.9762 9.6639 28.9606 9.6639 28.9397C9.6639 28.8252 9.6691 28.7106 9.67431 28.5909C9.67431 28.5596 9.67431 28.5336 9.67952 28.5076C9.67952 28.5336 9.67952 28.5648 9.67431 28.5909C9.6691 28.7106 9.6639 28.8252 9.6639 28.9449C9.6639 28.9658 9.6639 28.9814 9.6639 29.0022V29.0126V29.0335V29.0387Z" fill="#111827"/>
<path d="M9.99713 25.1231L9.99193 25.1491L9.98672 25.1855C9.97631 25.2376 9.9711 25.2897 9.96589 25.3365V25.3417V25.347C9.96589 25.3574 9.96589 25.3678 9.96069 25.3782C9.95548 25.4094 9.95027 25.4407 9.95027 25.4719L9.93986 25.55V25.5656L9.93465 25.5917V25.6021V25.6125V25.6177L9.92945 25.6437V25.6646V25.6698L9.92424 25.6802C9.91382 25.7791 9.8982 25.8781 9.88779 25.977C9.87738 26.0655 9.86696 26.154 9.85655 26.2425C9.85134 26.279 9.85135 26.3102 9.84614 26.3415V26.3467V26.3519C9.83572 26.4612 9.8201 26.5654 9.80969 26.6747C9.79928 26.7528 9.79407 26.8361 9.78886 26.9194V26.9298L9.77845 27.0079C9.77324 27.0392 9.77324 27.0704 9.76803 27.1017C9.76283 27.1329 9.76283 27.1694 9.75762 27.2006C9.75762 27.2162 9.75241 27.237 9.75241 27.2527C9.75241 27.2787 9.74721 27.3047 9.74721 27.3308C9.74721 27.362 9.742 27.3932 9.742 27.4297C9.742 27.4453 9.742 27.4609 9.73679 27.4766C9.72638 27.5859 9.72117 27.7005 9.71076 27.8358V27.841C9.70555 27.8983 9.70555 27.9556 9.70034 28.0077C9.69514 28.0649 9.69514 28.1274 9.68993 28.1847V28.1899V28.1951V28.2055V28.2107C9.68993 28.2159 9.68993 28.2211 9.68993 28.2315C9.68993 28.2472 9.68993 28.2576 9.68993 28.2732V28.2888V28.3097C9.68472 28.3773 9.68473 28.4398 9.67952 28.5075C9.67952 28.5335 9.67952 28.5648 9.67431 28.5908C9.6691 28.7106 9.6639 28.8251 9.6639 28.9397C9.6639 28.9553 9.6639 28.9761 9.6639 28.997V29.0386C9.65869 29.1323 9.65869 29.2261 9.65869 29.325V29.3771V29.4031V29.502C9.65869 29.5333 9.65869 29.5593 9.65869 29.5905C9.65869 29.6114 9.65869 29.6322 9.65869 29.653C9.65869 29.6738 9.65869 29.6947 9.65869 29.7155C9.65869 29.7415 9.65869 29.7728 9.65869 29.7988V29.8925V29.9706C9.742 35.6149 12.0018 40.9102 16.0267 44.8726C20.0516 48.8455 25.3834 51.0324 31.038 51.0324C31.9388 51.0324 32.8292 50.9751 33.7091 50.8657C34.1101 50.8137 34.5058 50.7616 34.9015 50.6887C31.9753 48.9184 29.4447 46.5493 27.4557 43.7011C26.732 42.6701 26.0967 41.5871 25.55 40.4729C25.425 40.2229 25.3105 39.9678 25.1959 39.7127C25.1855 39.6866 25.1699 39.6554 25.1595 39.6294C23.7745 36.5104 23.0507 33.1312 23.0507 29.653C23.0507 24.5972 24.5763 19.7392 27.4609 15.6049C28.1222 14.6573 28.8459 13.7617 29.627 12.9234C32.1575 10.195 35.2608 8.08103 38.7598 6.72725C39.822 6.31591 40.8998 5.98267 42.0037 5.72233C43.8365 5.29016 45.7213 5.07668 47.6323 5.07668C52.0997 5.07668 56.3902 6.26384 60.1391 8.48717L60.1339 8.48196C60.1027 8.45072 60.061 8.41427 60.0298 8.37782C59.9829 8.33096 59.9361 8.28931 59.8892 8.24244C59.8736 8.22682 59.8579 8.21641 59.8475 8.20079L59.8371 8.19038L59.8319 8.18517L59.8267 8.17476C59.7851 8.13831 59.7382 8.09665 59.6965 8.055C59.6497 8.01334 59.608 7.97169 59.5612 7.92483L59.556 7.91962L59.5507 7.91441L59.5403 7.904C59.5299 7.89879 59.5247 7.88838 59.5143 7.88317C59.4622 7.83631 59.4102 7.78424 59.3581 7.73738L59.3477 7.72697L59.28 7.66448C59.2696 7.65407 59.2592 7.64366 59.2435 7.63324C59.1654 7.56555 59.0925 7.49787 59.0196 7.43018C58.9311 7.35207 58.8478 7.27918 58.7697 7.21149C58.7437 7.19066 58.7176 7.16462 58.6864 7.1438C58.6291 7.09694 58.5719 7.04487 58.5146 6.99801L58.4 6.90428L58.3375 6.85222V6.84701L58.2907 6.81056L58.2647 6.78973C58.197 6.73246 58.1293 6.68039 58.0616 6.62311L58.0512 6.6127L58.046 6.60749L58.0408 6.60228L58.0303 6.59708C57.9783 6.55543 57.9314 6.51377 57.8793 6.47732L57.8741 6.47211H57.8689H57.8637C57.7023 6.34194 57.5357 6.21177 57.3691 6.08681L57.3639 6.0816L57.3587 6.0764C57.3118 6.03995 57.2701 6.0087 57.2233 5.97226L57.166 5.9306L57.1348 5.90457C57.1296 5.89936 57.1191 5.89416 57.1139 5.88895L57.1087 5.88374L57.1035 5.87853L57.0983 5.87333L57.0879 5.86812L56.9942 5.80043L56.9577 5.7744L56.8276 5.68067C56.8119 5.67026 56.8015 5.65985 56.7859 5.64943C56.7599 5.63381 56.739 5.61299 56.713 5.59737L56.6609 5.56091H56.6557H56.6505C56.5985 5.52447 56.5516 5.48802 56.4995 5.45157C56.4891 5.44116 56.4735 5.43595 56.4631 5.42554L56.4475 5.41512L56.4371 5.40471C56.3121 5.31619 56.1923 5.23288 56.0674 5.14437H56.0622H56.0569C55.9997 5.10792 55.9476 5.06626 55.8903 5.02982C55.8747 5.0194 55.8643 5.00899 55.8487 5.00378L55.8435 4.99858C55.7602 4.94651 55.6768 4.88923 55.5935 4.83196C55.5883 4.82675 55.5831 4.82675 55.5779 4.82154L55.5727 4.81634L55.5623 4.81113C55.5467 4.80072 55.5258 4.7903 55.5102 4.77468C55.4477 4.73303 55.3905 4.69658 55.328 4.66013L55.3176 4.65492L55.3072 4.64971C55.2186 4.59244 55.1249 4.53517 55.0364 4.47789L55.026 4.47268L55.0156 4.46227C54.9219 4.405 54.8281 4.34251 54.7344 4.29044L54.5834 4.20193C54.5574 4.18631 54.5365 4.17589 54.5157 4.16027C54.4897 4.14465 54.4584 4.12383 54.4272 4.10821L54.422 4.103L54.4168 4.09779C54.4012 4.08738 54.3803 4.07696 54.3647 4.06655C54.297 4.0249 54.2293 3.98845 54.1617 3.94679L54.1096 3.91555C54.0836 3.89993 54.0627 3.88952 54.0419 3.8739C53.9794 3.83745 53.9169 3.801 53.8544 3.76455C53.8492 3.75934 53.844 3.75935 53.8336 3.75414C53.4119 3.51983 52.9849 3.29073 52.5527 3.07725C52.5423 3.07204 52.5319 3.06683 52.5215 3.06163H52.5163H52.5111L52.5007 3.05642C52.4069 3.00435 52.3132 2.9627 52.2143 2.91584L51.9592 2.79608C51.9539 2.79087 51.9435 2.79087 51.9383 2.78567C51.9331 2.78567 51.9279 2.78046 51.9227 2.78046L51.9175 2.77525H51.9123C51.6103 2.63466 51.3343 2.5097 51.0688 2.39515L51.0636 2.38994L51.0584 2.38474H51.0532H51.048C50.9855 2.35349 50.9178 2.32746 50.8553 2.30143L50.8293 2.29101L50.8084 2.2806H50.8032L50.6887 2.23374C50.647 2.21812 50.6054 2.2025 50.5637 2.18167C50.5429 2.17125 50.5273 2.16605 50.5064 2.16084C50.2201 2.04629 49.9858 1.95257 49.7723 1.87447L49.6421 1.8276L49.6265 1.8224L49.4911 1.77033C49.1266 1.64016 48.7517 1.50999 48.3716 1.39023H48.3664H48.3612C48.356 1.39023 48.3508 1.38502 48.3404 1.38502C48.2675 1.36419 48.1946 1.33816 48.1269 1.31733C48.054 1.29651 47.9811 1.27047 47.903 1.24964C47.8614 1.23402 47.8145 1.22361 47.7729 1.20799C47.6062 1.16113 47.45 1.11427 47.3042 1.07261H47.299H47.2938H47.2886C47.2678 1.0674 47.247 1.0622 47.2261 1.05699C47.1949 1.04658 47.1584 1.04137 47.1272 1.03095L47.1064 1.02575L47.0751 1.01533C46.7627 0.932025 46.4451 0.859131 46.1275 0.781028C45.94 0.739373 45.7526 0.697715 45.5651 0.65606C45.2475 0.588371 44.9299 0.520685 44.6071 0.46341C44.4873 0.442582 44.3676 0.421753 44.2478 0.400926H44.2426H44.2374H44.2322C44.1124 0.380098 43.9927 0.359271 43.8729 0.34365C43.8156 0.333236 43.7636 0.328028 43.7063 0.317614C43.6386 0.307201 43.5657 0.296788 43.498 0.286374C43.1544 0.239513 42.8107 0.197859 42.4671 0.161411C41.8006 0.0937221 41.1341 0.0468582 40.4624 0.0208239C40.0875 0.00520336 39.7178 0 39.343 0C38.7129 0 38.0881 0.0208249 37.4581 0.0624797C37.3904 0.0676865 37.3279 0.0676888 37.2602 0.0728956C36.5677 0.119757 35.8752 0.192651 35.1931 0.286374C35.0681 0.301995 34.9484 0.322822 34.8234 0.338442C34.8182 0.338442 34.8182 0.338442 34.813 0.338442H34.8078L10.0128 25.1335L9.99713 25.1231Z" fill="#111827"/>
<path d="M68.6679 34.1413L68.6731 34.1205L68.6783 34.0945C68.6835 34.0528 68.6887 34.0111 68.6939 33.9695V33.9591V33.9435L68.6991 33.9278C68.7095 33.8758 68.7147 33.8185 68.7251 33.7612L68.7303 33.7248L68.7355 33.6883C68.7408 33.6727 68.7408 33.6519 68.746 33.6363L68.7668 33.4488L68.7824 33.3238C68.798 33.1989 68.8136 33.0843 68.8241 32.9698V32.9542C68.8345 32.8448 68.8501 32.7407 68.8553 32.6365C68.8657 32.548 68.8709 32.4647 68.8813 32.3866V32.3814L68.8918 32.3033C68.897 32.246 68.9022 32.1888 68.9074 32.1315V32.1106V32.0898C68.9178 32.0169 68.9178 31.9388 68.923 31.8659V31.8555V31.8347C68.9334 31.7253 68.9386 31.6108 68.949 31.4806V31.4702C68.9594 31.3557 68.9646 31.2411 68.9699 31.1266V31.0953V31.0485V31.0016C68.9751 30.9079 68.9803 30.8089 68.9803 30.7152C68.9855 30.585 68.9907 30.4653 68.9907 30.3403V30.3247V30.2674C68.9907 30.1789 68.9959 30.0904 68.9959 30.0019V29.9029V29.8873C68.9959 29.8092 68.9959 29.7363 68.9959 29.6582C68.9959 29.5801 68.9959 29.4968 68.9959 29.4187V29.4135V29.3354C68.9126 23.6912 66.6528 18.401 62.6331 14.4334C58.6082 10.4606 53.2764 8.27368 47.6166 8.27368C46.3096 8.27368 45.0183 8.38823 43.7531 8.62254C46.6793 10.3929 49.2151 12.762 51.1989 15.6101C54.0835 19.7444 55.6091 24.6024 55.6091 29.6582C55.6091 34.7141 54.0835 39.5721 51.1989 43.7063C48.382 47.7416 44.4768 50.8137 39.9 52.584C37.0727 53.6774 34.0944 54.2346 31.0327 54.2346C26.5653 54.2346 22.2748 53.0474 18.5259 50.8293L18.5311 50.8345L18.5467 50.8501L18.5623 50.8657C18.5779 50.8866 18.5988 50.9022 18.6144 50.9178L18.6717 50.9751C18.7185 51.0219 18.7654 51.0688 18.8175 51.1157L18.8279 51.1261L18.8383 51.1365C18.9164 51.2146 19.0101 51.3031 19.1038 51.3864L19.1195 51.3968L19.1299 51.4072C19.1924 51.4645 19.2496 51.5218 19.3121 51.5791L19.3173 51.5843L19.3225 51.5895C19.4319 51.6884 19.536 51.7873 19.6506 51.8811L19.6558 51.8863L19.661 51.8915C19.7339 51.954 19.8068 52.0217 19.8797 52.0841L19.8953 52.0945L19.9421 52.1362H19.9473L20.1608 52.3184L20.2025 52.3549L20.2129 52.3653C20.2702 52.4122 20.3274 52.459 20.3847 52.5059L20.4056 52.5215L20.4264 52.5423C20.4784 52.584 20.5305 52.6309 20.593 52.6777L20.6138 52.6933L20.6347 52.709C20.6815 52.7454 20.7232 52.7819 20.7648 52.8183L20.7804 52.8287L20.7909 52.8391C20.9471 52.9693 21.1137 53.0943 21.2803 53.2192C21.3168 53.2505 21.3532 53.2765 21.3896 53.3025C21.4313 53.3338 21.473 53.365 21.5146 53.3963C21.5406 53.4119 21.5615 53.4275 21.5823 53.4483L21.624 53.4796C21.6916 53.5316 21.7541 53.5785 21.8218 53.6306L21.8843 53.6774C21.9155 53.7035 21.952 53.7243 21.9832 53.7503L21.9936 53.7607L22.0093 53.7711C22.0561 53.8076 22.1082 53.844 22.1603 53.8805L22.2123 53.9169C22.3321 54.0055 22.4571 54.0888 22.582 54.1773L22.5924 54.1825L22.6028 54.1929C22.6549 54.2294 22.7122 54.2658 22.7695 54.3022L22.8111 54.3283L22.9465 54.4168L23.0923 54.5157C23.1652 54.5626 23.2433 54.6147 23.3214 54.6615C23.3995 54.7136 23.4776 54.7605 23.5505 54.8073H23.7379L24.0764 55.1301C24.1284 55.1614 24.1805 55.1926 24.2326 55.2239C24.3367 55.2863 24.4409 55.3436 24.545 55.4009L24.5554 55.4061L24.5658 55.4113C24.6491 55.4582 24.7272 55.505 24.8105 55.5519C25.2479 55.8018 25.6905 56.0361 26.1383 56.2548C26.2372 56.3017 26.3362 56.3537 26.4299 56.4006C26.4455 56.411 26.4611 56.4162 26.4715 56.4214C26.5653 56.4631 26.6538 56.51 26.7475 56.5516C27.0287 56.6818 27.315 56.812 27.591 56.9317H27.5962L27.6014 56.9369C27.6691 56.9682 27.742 56.9994 27.8097 57.0254C27.8305 57.0358 27.8513 57.0411 27.8774 57.0567C27.9711 57.0931 28.0648 57.1348 28.1586 57.1712C28.3877 57.265 28.6324 57.3587 28.8927 57.4576L28.9031 57.4628L28.9135 57.468C28.9916 57.4993 29.075 57.5305 29.1531 57.5565L29.1635 57.5617L29.1739 57.5669C29.554 57.7075 29.9289 57.8325 30.2882 57.947L30.2986 57.9523L30.309 57.9575C30.3819 57.9835 30.4548 58.0043 30.5277 58.0304H30.5381L30.5485 58.0356C30.6578 58.072 30.7672 58.1033 30.8765 58.1397L30.9703 58.1657C31.1004 58.2022 31.2358 58.2386 31.366 58.2751C31.4389 58.2959 31.5066 58.3115 31.569 58.3324L31.5847 58.3376C32.4021 58.5562 33.2352 58.7437 34.0527 58.8895L34.0631 58.8947H34.0735C34.1725 58.9103 34.2818 58.9311 34.412 58.952H34.4224H34.4276C34.5578 58.9728 34.6723 58.9936 34.7713 59.004H34.7869L34.8025 59.0092C34.917 59.0301 35.0316 59.0457 35.1514 59.0613H35.1618C36.5312 59.254 37.9266 59.3477 39.3116 59.3477C40.7019 59.3477 42.0973 59.2488 43.4667 59.0613L43.4979 59.0561C43.6073 59.0405 43.7166 59.0249 43.826 59.0092L43.8416 59.004H43.852L68.647 34.209C68.6627 34.1674 68.6626 34.1569 68.6679 34.1413Z" fill="#111827"/>
</svg>
