<svg width="70" height="80" viewBox="0 0 70 80" fill="none" xmlns="http://www.w3.org/2000/svg">
<path d="M21.1066 19.6507L42.763 0L34.1554 2.13686C25.2002 4.35845 17.6511 8.21327 11.7207 13.5884L5.04321 19.646C7.25867 21.6557 10.1642 22.663 13.0749 22.663C15.9856 22.663 18.8859 21.6557 21.1066 19.646V19.6507ZM13.8843 15.5511C18.8548 11.042 25.0705 7.66729 32.381 5.5116L18.9482 17.6974C17.3813 19.1188 15.2955 19.9048 13.0749 19.9048C11.9179 19.9048 10.7972 19.693 9.76986 19.2882L13.8843 15.5558V15.5511Z" fill="#10B981"/>
<path d="M18.1646 49.5291L24.8421 55.5867C27.0575 53.5769 28.1679 50.9411 28.1679 48.3007C28.1679 45.6602 27.0575 43.0291 24.8421 41.0146L3.18042 21.3687L5.53596 29.1771C7.9849 37.301 12.2342 44.1493 18.1646 49.5291ZM22.6837 42.9773C25.1586 45.2224 25.7449 48.5501 24.4322 51.3036L20.323 47.5758C15.3525 43.0668 11.6324 37.4281 9.25606 30.7963L22.6889 42.982L22.6837 42.9773Z" fill="#10B981"/>
<path d="M56.4552 34.6651C53.5497 34.6651 50.6442 35.6724 48.4236 37.6821L26.7671 57.3281L35.3747 55.1912C44.3299 52.9696 51.879 49.1148 57.8094 43.735L64.4869 37.6774C63.3766 36.6702 62.0951 35.9171 60.7305 35.4135C59.3659 34.9099 57.9132 34.6604 56.4604 34.6604L56.4552 34.6651ZM55.651 41.7817C50.6805 46.2908 44.4648 49.6655 37.1543 51.8212L50.5871 39.6354C52.154 38.214 54.2398 37.428 56.4604 37.428C57.6174 37.428 58.7381 37.6398 59.7654 38.0493L55.651 41.7817Z" fill="#10B981"/>
<path d="M44.6931 16.3135L66.3496 35.9595L63.994 28.151C61.5451 20.0272 57.2958 13.1788 51.3654 7.79904L44.6879 1.74146C40.2518 5.76572 40.2518 12.2846 44.6879 16.3088L44.6931 16.3135ZM45.103 6.03401L49.2122 9.76175C54.1827 14.2708 57.9028 19.9095 60.2791 26.5413L46.8463 14.3555C44.3714 12.1104 43.7851 8.78275 45.0978 6.0293L45.103 6.03401Z" fill="#10B981"/>
<path d="M0.747252 73.9617C0.954789 74.1171 1.18827 74.23 1.44769 74.2912C1.70711 74.3524 1.96134 74.3854 2.21558 74.3854C2.51131 74.3854 2.7863 74.3336 3.04053 74.2253C3.29477 74.1171 3.51787 73.9759 3.70984 73.797C3.90181 73.6182 4.04709 73.4111 4.15604 73.1804C4.265 72.9498 4.31688 72.705 4.31688 72.4462V71.9284H2.99384V72.3426C2.99384 72.5074 2.9679 72.6439 2.91601 72.7568C2.86413 72.8651 2.79668 72.9545 2.71885 73.0157C2.63065 73.0769 2.53726 73.1239 2.43868 73.1522C2.3401 73.1804 2.24671 73.1945 2.1585 73.1945C1.85757 73.1945 1.64485 73.1098 1.5307 72.9451C1.41137 72.7804 1.3543 72.578 1.3543 72.3332V68.0501C1.3543 67.7677 1.40618 67.5323 1.51514 67.3488C1.6241 67.1652 1.84201 67.0711 2.16888 67.0711C2.41792 67.0711 2.62027 67.1558 2.76555 67.3299C2.91082 67.5041 2.98865 67.7065 2.98865 67.9418V68.3419H4.3117V67.8712C4.3117 67.5794 4.25981 67.3111 4.15086 67.0664C4.0419 66.8169 3.89143 66.6051 3.70465 66.4262C3.31552 66.0591 2.80705 65.8708 2.18444 65.8708C1.86276 65.8708 1.57221 65.9179 1.3076 66.0168C1.04299 66.1156 0.814702 66.2521 0.627918 66.4215C0.441135 66.591 0.290671 66.7981 0.186903 67.0334C0.0831342 67.2688 0.03125 67.5229 0.03125 67.8006V72.4132C0.03125 72.7992 0.0986995 73.1145 0.233598 73.3593C0.368497 73.6087 0.539715 73.8064 0.747252 73.9665V73.9617Z" fill="#10B981"/>
<path d="M14.9426 67.9088C14.9426 67.5699 14.8803 67.2734 14.7454 67.0146C14.6105 66.7557 14.4445 66.5392 14.2369 66.365C14.019 66.2003 13.7804 66.0732 13.5158 65.9885C13.2511 65.9038 12.9865 65.8567 12.7167 65.8567C12.4469 65.8567 12.1823 65.899 11.9177 65.9885C11.6531 66.0732 11.4196 66.2003 11.2121 66.365C10.9942 66.5392 10.823 66.7557 10.6933 67.0146C10.5635 67.2734 10.4961 67.5699 10.4961 67.9088V72.3332C10.4961 72.6862 10.5584 72.9874 10.6933 73.2416C10.823 73.491 10.9942 73.7028 11.2121 73.8676C11.4196 74.0417 11.6531 74.1688 11.9177 74.2582C12.1823 74.343 12.4469 74.3853 12.7167 74.3853C12.9865 74.3853 13.2511 74.343 13.5158 74.2582C13.7804 74.1735 14.019 74.0417 14.2369 73.8676C14.4445 73.7028 14.6157 73.4957 14.7454 73.2416C14.8751 72.9921 14.9426 72.6862 14.9426 72.3332V67.9088ZM13.6195 72.3332C13.6195 72.625 13.5313 72.8368 13.3549 72.9733C13.1785 73.1098 12.9658 73.1804 12.7271 73.1804C12.4884 73.1804 12.2757 73.1098 12.0993 72.9733C11.9229 72.8368 11.8347 72.6203 11.8347 72.3332V67.9088C11.8347 67.617 11.9229 67.4052 12.0993 67.2687C12.2757 67.1322 12.4884 67.0616 12.7271 67.0616C12.9658 67.0616 13.1785 67.1322 13.3549 67.2687C13.5313 67.4052 13.6195 67.6217 13.6195 67.9088V72.3332Z" fill="#10B981"/>
<path d="M24.2974 70.3706H24.2715L22.5749 65.9321H21.3037V74.3148H22.6268V69.2174H22.6527L23.9498 72.8181H24.6087L25.9214 69.2174H25.9473V74.3148H27.2704V65.9321H25.9889L24.2974 70.3706Z" fill="#10B981"/>
<path d="M37.4086 66.5205C37.1855 66.2993 36.9312 66.1486 36.6563 66.0592C36.3813 65.9745 36.0596 65.9321 35.6964 65.9321H33.7092V74.3148H35.0323V71.0437H35.7068C36.1997 71.0437 36.5992 70.9683 36.9001 70.813C37.201 70.6624 37.4449 70.4459 37.6265 70.1729C37.7821 69.947 37.8859 69.7022 37.9326 69.4434C37.9793 69.1845 38.0052 68.8644 38.0052 68.4879C38.0052 67.9843 37.9637 67.5889 37.8755 67.2924C37.7873 66.9959 37.6317 66.7417 37.4086 66.5205ZM36.7393 69.0762C36.7289 69.2504 36.6874 69.3963 36.6147 69.514C36.5473 69.641 36.4383 69.7399 36.2879 69.8105C36.1426 69.8811 35.9351 69.9187 35.6653 69.9187H35.0271V67.0712H35.7171C35.9766 67.0712 36.1737 67.1088 36.3138 67.1794C36.4539 67.25 36.5577 67.3536 36.6251 67.4854C36.6926 67.6171 36.7341 67.7725 36.7445 67.9513C36.7548 68.1302 36.7548 68.3137 36.7548 68.5114C36.7548 68.7232 36.7496 68.9162 36.7341 69.0904L36.7393 69.0762Z" fill="#10B981"/>
<path d="M45.1653 65.9321L43.1003 74.3148H44.4234L44.8125 72.5122H46.6181L47.0072 74.3148H48.3303L46.2653 65.9321H45.1601H45.1653ZM45.046 71.3825L45.6946 68.3467H45.7205L46.369 71.3825H45.046Z" fill="#10B981"/>
<path d="M58.7432 74.3148V65.9321H57.415V70.9825H57.3891L55.3915 65.9321H54.1204V74.3148H55.4434V69.2786H55.4694L57.4928 74.3148H58.7432Z" fill="#10B981"/>
<path d="M64.5439 65.9321L66.3599 70.7707V74.3148H67.6829V70.7707L69.4989 65.9321H68.098L67.0344 69.2645H67.0084L65.9448 65.9321H64.5439Z" fill="#10B981"/>
<path d="M0.731567 79.9065H1.14145V77.8026H1.87821V77.4731H0V77.8026H0.731567V79.9065Z" fill="#10B981"/>
<path d="M5.52034 79.3605L5.72788 79.9065H6.15852L5.18309 77.4731H4.84066L3.86523 79.9065H4.29587L4.50341 79.3605H5.52034ZM5.00669 77.9721H5.01188L5.40101 79.0358H4.61756L5.00669 77.9721Z" fill="#10B981"/>
<path d="M9.08494 77.9954C9.12645 77.9437 9.18352 77.9013 9.25616 77.8684C9.32361 77.8354 9.40663 77.8166 9.50521 77.8166C9.63492 77.8166 9.74387 77.8542 9.83727 77.9201C9.92547 77.9907 9.98254 78.0708 10.0189 78.1696H10.4495C10.408 77.9672 10.3042 77.7931 10.1382 77.6566C9.97735 77.5201 9.76463 77.4495 9.50521 77.4495C9.29248 77.4495 9.11607 77.4965 8.97599 77.586C8.83071 77.6754 8.72694 77.7742 8.66468 77.8872C8.62318 77.9484 8.59205 78.0237 8.57648 78.1178C8.55573 78.212 8.55054 78.4049 8.55054 78.6873C8.55054 78.9697 8.56091 79.1533 8.57648 79.2521C8.58686 79.3039 8.59723 79.3463 8.6128 79.3839C8.62836 79.4169 8.64393 79.4545 8.66468 79.4875C8.73213 79.6004 8.8359 79.6993 8.97599 79.784C9.11607 79.8734 9.29248 79.9205 9.50521 79.9252C9.78019 79.9252 10.0033 79.8358 10.1849 79.671C10.3665 79.5063 10.4547 79.3039 10.4599 79.0592V78.565H9.50521V78.9133H10.05V79.0403C10.05 79.191 9.99292 79.318 9.89434 79.4075C9.79057 79.5063 9.66086 79.5534 9.50002 79.5534C9.40663 79.5534 9.32361 79.5345 9.25097 79.4969C9.18352 79.4639 9.12645 79.4263 9.07976 79.3745C9.02787 79.3227 8.99155 79.2521 8.97599 79.1674C8.95523 79.0827 8.94486 78.9227 8.94486 78.6826C8.94486 78.4426 8.95523 78.2826 8.97599 78.1931C8.99155 78.1084 9.02787 78.0425 9.07976 77.9907L9.08494 77.9954Z" fill="#10B981"/>
<path d="M13.1941 77.4731V79.9065H14.9063V79.5582H13.5988V77.4731H13.1941Z" fill="#10B981"/>
<path d="M17.9572 77.4731H17.5525V79.9065H17.9572V77.4731Z" fill="#10B981"/>
<path d="M20.7849 77.4731V79.9065H21.1896V78.1744H21.1948L22.4089 79.9065H22.7928V77.4731H22.3881V79.2005H22.3778L21.1637 77.4731H20.7849Z" fill="#10B981"/>
<path d="M27.3325 77.8214V77.4731H25.6204V79.9065H27.3325V79.5582H26.0251V78.8428H27.1406V78.5133H26.0251V77.8214H27.3325Z" fill="#10B981"/>
<path d="M33.1644 77.8873C33.1229 77.9484 33.0918 78.0238 33.0762 78.1179C33.0555 78.212 33.0503 78.405 33.0503 78.6874C33.0503 78.9698 33.0607 79.1534 33.0762 79.2522C33.0866 79.304 33.097 79.3464 33.1126 79.384C33.1281 79.417 33.1437 79.4546 33.1644 79.4876C33.2319 79.6005 33.3357 79.6994 33.4757 79.7841C33.6158 79.8735 33.7922 79.9206 34.005 79.9253C34.2799 79.9253 34.503 79.8359 34.6846 79.6711C34.8662 79.5064 34.9544 79.304 34.9596 79.0592V78.565H34.005V78.9133H34.5497V79.0404C34.5497 79.191 34.4927 79.3181 34.3941 79.4075C34.2903 79.5064 34.1606 79.5535 33.9998 79.5535C33.9064 79.5535 33.8234 79.5346 33.7507 79.497C33.6833 79.464 33.6262 79.4264 33.5795 79.3746C33.5276 79.3228 33.4913 79.2522 33.4757 79.1675C33.455 79.0828 33.4446 78.9227 33.4446 78.6827C33.4446 78.4427 33.455 78.2826 33.4757 78.1932C33.4913 78.1085 33.5276 78.0426 33.5795 77.9908C33.621 77.939 33.6781 77.8967 33.7507 77.8637C33.8182 77.8308 33.9012 77.812 33.9998 77.812C34.1295 77.812 34.2384 77.8496 34.3318 77.9155C34.42 77.9861 34.4771 78.0661 34.5134 78.165H34.9441C34.9026 77.9626 34.7988 77.7884 34.6328 77.6519C34.4719 77.5154 34.2592 77.4448 33.9998 77.4448C33.787 77.4448 33.6106 77.4919 33.4706 77.5813C33.3253 77.6708 33.2215 77.7696 33.1592 77.8826L33.1644 77.8873Z" fill="#10B981"/>
<path d="M37.725 77.8872C37.6835 77.9484 37.6523 78.0237 37.6368 78.1178C37.616 78.212 37.6108 78.4049 37.6108 78.6873C37.6108 78.9697 37.6212 79.1533 37.6368 79.2521C37.6472 79.3039 37.6575 79.3463 37.6731 79.3839C37.6887 79.4169 37.7042 79.4545 37.725 79.4875C37.7924 79.6004 37.8962 79.6993 38.0363 79.784C38.1764 79.8734 38.3528 79.9205 38.5655 79.9252C38.7782 79.9252 38.9546 79.8734 39.0999 79.784C39.24 79.6993 39.3438 79.6004 39.406 79.4875C39.4527 79.4263 39.4839 79.351 39.4994 79.2521C39.515 79.1533 39.5254 78.965 39.5254 78.6873C39.5254 78.4096 39.515 78.2167 39.4994 78.1178C39.4839 78.0237 39.4527 77.9437 39.406 77.8872C39.3438 77.7742 39.24 77.6754 39.0999 77.586C38.9598 77.4965 38.7782 77.4495 38.5655 77.4495C38.3528 77.4495 38.1764 77.4965 38.0363 77.586C37.891 77.6754 37.7872 77.7742 37.725 77.8872ZM38.0467 78.1978C38.0622 78.1131 38.0986 78.0472 38.1504 77.9954C38.1919 77.9437 38.249 77.9013 38.3217 77.8684C38.3891 77.8354 38.4721 77.8166 38.5707 77.8166C38.6693 77.8166 38.7523 77.8354 38.8249 77.8684C38.8924 77.9013 38.9443 77.9437 38.9858 77.9954C39.0377 78.0472 39.074 78.1131 39.0947 78.1978C39.1155 78.2826 39.1207 78.4473 39.1207 78.6873C39.1207 78.9274 39.1103 79.0874 39.0947 79.1721C39.074 79.2569 39.0377 79.3227 38.9858 79.3792C38.9443 79.431 38.8924 79.4687 38.8249 79.5016C38.7523 79.5393 38.6693 79.5581 38.5707 79.5581C38.4721 79.5581 38.3943 79.5393 38.3217 79.5016C38.2542 79.4687 38.1971 79.431 38.1504 79.3792C38.0986 79.3275 38.0622 79.2569 38.0467 79.1721C38.0259 79.0874 38.0155 78.9274 38.0155 78.6873C38.0155 78.4473 38.0259 78.2873 38.0467 78.1978Z" fill="#10B981"/>
<path d="M42.2598 79.9065H43.9719V79.5582H42.6645V78.8428H43.78V78.5133H42.6645V77.8214H43.9719V77.4731H42.2598V79.9065Z" fill="#10B981"/>
<path d="M47.4118 79.5582C47.1161 79.5582 46.8619 79.4735 46.6491 79.3181L46.3845 79.5958C46.6699 79.8171 47.0123 79.93 47.4118 79.93C48.0241 79.9253 48.3406 79.6853 48.3561 79.224C48.3561 79.0499 48.299 78.8992 48.1797 78.7722C48.0604 78.6404 47.8736 78.5557 47.6246 78.5274C47.4948 78.5133 47.3963 78.4992 47.3236 78.4898C47.1887 78.4662 47.0953 78.4286 47.0331 78.3674C46.9708 78.3109 46.9449 78.245 46.9449 78.1791C46.9449 78.0614 46.9916 77.9767 47.0798 77.9155C47.1628 77.8591 47.2666 77.8308 47.3911 77.8308C47.6349 77.8308 47.8528 77.8967 48.0552 78.0191L48.2835 77.7131C48.0396 77.5531 47.7491 77.4684 47.4118 77.459C47.1368 77.459 46.9189 77.5249 46.7685 77.6567C46.6128 77.7885 46.535 77.9579 46.535 78.1697C46.535 78.3486 46.5972 78.4945 46.7218 78.6215C46.8411 78.7439 47.0175 78.8192 47.2458 78.8522C47.3755 78.871 47.4948 78.8851 47.5986 78.8992C47.8321 78.9369 47.9514 79.0452 47.9462 79.224C47.9462 79.4452 47.7646 79.5582 47.417 79.5629L47.4118 79.5582Z" fill="#10B981"/>
<path d="M56.0764 79.9065V77.4731H55.6717V78.5133H54.6081V77.4731H54.2034V79.9065H54.6081V78.8428H55.6717V79.9065H56.0764Z" fill="#10B981"/>
<path d="M60.6162 77.8214V77.4731H58.9041V79.9065H60.6162V79.5582H59.3087V78.8428H60.4243V78.5133H59.3087V77.8214H60.6162Z" fill="#10B981"/>
<path d="M65.1199 78.1509C65.1147 77.925 65.0213 77.7508 64.8553 77.6332C64.7152 77.5249 64.5336 77.4731 64.3105 77.4731H63.2625V79.9065H63.6671V78.8663H64.186L64.7412 79.9065H65.2237L64.6011 78.8287C64.9435 78.711 65.1147 78.4851 65.1199 78.1556V78.1509ZM64.6218 78.4192C64.544 78.4992 64.4298 78.5369 64.2794 78.5416H63.6671V77.8026H64.3053C64.435 77.8026 64.5336 77.8262 64.6011 77.8779C64.6893 77.9344 64.7308 78.0285 64.736 78.1556C64.736 78.2592 64.6996 78.3486 64.6218 78.4239V78.4192Z" fill="#10B981"/>
<path d="M69.53 77.8214V77.4731H67.8179V79.9065H69.53V79.5582H68.2278V78.8428H69.3381V78.5133H68.2278V77.8214H69.53Z" fill="#10B981"/>
</svg>
