<svg width="57" height="74" viewBox="0 0 57 74" fill="none" xmlns="http://www.w3.org/2000/svg">
<path d="M23.9723 4.46878C24.0348 4.46878 24.1025 4.47399 24.165 4.47919C24.5347 4.49481 24.9044 4.51564 25.2897 4.54688C27.0236 4.67184 28.7002 4.92698 30.2831 5.29667V1.27177C28.6637 0.860428 26.9298 0.584465 25.1283 0.454294C24.467 0.402226 23.7641 0.370983 23.0403 0.355363C22.8477 0.350156 22.655 0.350159 22.4572 0.350159C22.452 0.350159 22.4467 0.350159 22.4363 0.350159C19.0519 0.350159 15.5737 0.797945 12.0903 1.6779C8.13311 2.67241 4.34252 4.20843 1.09344 6.12455V46.009C4.26442 44.2752 7.84673 42.8849 11.5696 41.9477C14.5115 41.2083 17.4742 40.7553 20.3744 40.6043H20.4004H20.4109C20.4369 40.6043 20.4629 40.5991 20.4838 40.5991C20.9836 40.5731 21.4783 40.5575 21.9885 40.5523V36.4701C18.2448 36.5065 14.4021 37.0168 10.5647 37.9801C9.18488 38.3289 7.84673 38.7247 6.59188 39.1516L5.17561 39.6359V38.1363V9.21222V8.53533L5.78481 8.24374C8.06541 7.15551 10.5231 6.27556 13.0848 5.62991C15.6206 4.98946 18.1511 4.60416 20.6087 4.47398C20.6608 4.46878 20.7024 4.46878 20.7337 4.46878C21.3012 4.44274 21.874 4.42712 22.4363 4.42712C22.6446 4.42712 22.8477 4.43233 23.0507 4.43233H23.0768C23.3788 4.44274 23.6755 4.45316 23.9723 4.46878Z" fill="white"/>
<path d="M34.0424 8.68112C33.1052 8.68112 32.1731 8.64987 31.2776 8.58219C30.1893 8.50408 29.1063 8.37391 28.0649 8.19688C27.4297 8.08754 26.8049 7.96257 26.1957 7.82199V47.2535C28.5908 47.8627 31.2255 48.1751 34.0424 48.1751C37.4217 48.1751 40.905 47.7273 44.3936 46.8525C48.3456 45.8528 52.1362 44.322 55.3905 42.4059V3.22433C52.2195 4.95822 48.6372 6.34845 44.9195 7.28568C41.2539 8.2125 37.5987 8.68112 34.0424 8.68112ZM49.8869 9.35801L51.3031 8.87898V10.3733V39.3026V39.9795L50.6939 40.2711C48.4185 41.3541 45.9609 42.2341 43.3887 42.8797C40.2281 43.6764 37.0832 44.0825 34.0424 44.0825C33.1 44.0825 32.1627 44.0408 31.2567 43.9627L30.2778 43.8794V42.8953V42.786V40.1097L30.2831 40.1149V13.0236V11.8781L31.4234 11.951C32.2513 12.0031 33.1104 12.0291 34.0424 12.0291C37.9371 12.0291 41.9308 11.5188 45.914 10.5139C47.2522 10.1963 48.5903 9.80059 49.8869 9.35801Z" fill="white"/>
<path d="M3.86872 59.6302C3.46259 59.2032 2.93149 58.9897 2.28064 58.9897C1.9474 58.9897 1.64019 59.047 1.36423 59.1615C1.08826 59.2761 0.848751 59.4323 0.650891 59.6302C0.45303 59.828 0.296817 60.0675 0.187473 60.3383C0.0781293 60.609 0.026062 60.9058 0.026062 61.2235V66.5501C0.026062 66.9926 0.0937479 67.3571 0.234333 67.6435C0.374918 67.9299 0.55195 68.1642 0.770638 68.3412C0.989326 68.5235 1.23405 68.6484 1.50481 68.7213C1.77556 68.7942 2.04632 68.8307 2.30667 68.8307C2.61387 68.8307 2.90025 68.7682 3.17101 68.6484C3.43655 68.5287 3.67086 68.3621 3.86872 68.1538C4.06658 67.9455 4.22278 67.706 4.33733 67.4404C4.45189 67.1749 4.50917 66.8885 4.50917 66.5917V65.9929H3.12415V66.4668C3.12415 66.6594 3.09811 66.8156 3.04083 66.9406C2.98877 67.0655 2.91586 67.1697 2.83776 67.2374C2.74924 67.3103 2.65031 67.3623 2.54618 67.3936C2.44204 67.4248 2.34311 67.4404 2.25459 67.4404C1.93698 67.4404 1.71829 67.3467 1.59333 67.1541C1.47357 66.9614 1.41109 66.7271 1.41109 66.4459V61.4994C1.41109 61.1714 1.46835 60.9058 1.58291 60.6924C1.69746 60.4789 1.92656 60.3747 2.27021 60.3747C2.53056 60.3747 2.73884 60.4737 2.89504 60.6715C3.05125 60.8694 3.12415 61.1089 3.12415 61.3797V61.8431H4.50917V61.3016C4.50917 60.9683 4.45189 60.6559 4.33733 60.3695C4.22278 60.0832 4.06658 59.8384 3.86872 59.6302Z" fill="white"/>
<path d="M12.184 59.5729C11.9549 59.3802 11.705 59.2396 11.429 59.1355C11.1531 59.0366 10.8719 58.9845 10.5907 58.9845C10.3096 58.9845 10.0336 59.0366 9.75243 59.1355C9.47647 59.2344 9.23176 59.3802 9.01307 59.5729C8.78397 59.7707 8.60693 60.0207 8.47155 60.3227C8.33617 60.6194 8.26849 60.9683 8.26849 61.3536V66.4615C8.26849 66.8677 8.33617 67.2165 8.47155 67.5081C8.60693 67.7997 8.78918 68.0392 9.01307 68.2267C9.23176 68.4245 9.47647 68.5755 9.75243 68.6744C10.0284 68.7734 10.3096 68.8254 10.5907 68.8254C10.8719 68.8254 11.1479 68.7734 11.429 68.6744C11.705 68.5755 11.9549 68.4245 12.184 68.2267C12.4027 68.034 12.5798 67.7945 12.7151 67.5081C12.8505 67.2165 12.9182 66.8677 12.9182 66.4615V61.3536C12.9182 60.9631 12.8505 60.6194 12.7151 60.3227C12.5745 60.0207 12.4027 59.7707 12.184 59.5729ZM11.5332 66.4615C11.5332 66.7948 11.4395 67.0447 11.252 67.2009C11.0646 67.3571 10.8459 67.4404 10.5907 67.4404C10.3356 67.4404 10.1169 67.3623 9.92946 67.2009C9.74202 67.0447 9.64831 66.7948 9.64831 66.4615V61.3536C9.64831 61.0204 9.74202 60.7704 9.92946 60.6142C10.1169 60.458 10.3356 60.3747 10.5907 60.3747C10.8459 60.3747 11.0646 60.4528 11.252 60.6142C11.4395 60.7704 11.5332 61.0204 11.5332 61.3536V66.4615Z" fill="white"/>
<path d="M23.108 68.7474V59.0731H21.7646L19.9943 64.1966H19.9683L18.1875 59.0731H16.8598V68.7474H18.2448V62.8636H18.2709L19.6298 67.0187H20.3224L21.697 62.8636H21.723V68.7474H23.108Z" fill="white"/>
<path d="M31.0068 59.7499C30.7725 59.4948 30.5069 59.3177 30.2206 59.2188C29.929 59.1199 29.5958 59.0678 29.2157 59.0678H27.1381V68.7421H28.5231V64.962H29.2313C29.7467 64.962 30.1633 64.8734 30.4809 64.6964C30.7985 64.5194 31.0537 64.2747 31.2411 63.957C31.4025 63.6967 31.5119 63.4155 31.5587 63.1135C31.6108 62.8167 31.6316 62.4471 31.6316 62.0149C31.6316 61.4369 31.5848 60.9735 31.4963 60.6351C31.4025 60.3018 31.2411 60.005 31.0068 59.7499ZM30.3039 62.697C30.2883 62.8948 30.2466 63.0615 30.1737 63.202C30.1008 63.3478 29.9863 63.4624 29.8353 63.5405C29.6791 63.6238 29.4656 63.6602 29.1844 63.6602H28.5179V60.3695H29.2365C29.5072 60.3695 29.7155 60.4112 29.8613 60.4893C30.0071 60.5726 30.1164 60.6871 30.1893 60.8433C30.2622 60.9995 30.3039 61.1766 30.3091 61.3796C30.3195 61.5827 30.3247 61.7962 30.3247 62.0253C30.3247 62.2804 30.3195 62.4991 30.3039 62.697Z" fill="white"/>
<path d="M37.5674 59.0731H36.4115L34.2507 68.7474H35.6357L36.0418 66.6699H37.9319L38.3381 68.7474H39.7231L37.5674 59.0731ZM36.2917 65.3629L36.9686 61.8587H36.9947L37.6716 65.3629H36.2917Z" fill="white"/>
<path d="M46.5232 64.8995H46.4972L44.404 59.0731H43.0711V68.7474H44.4561V62.9313H44.4873L46.6065 68.7474H47.9082V59.0731H46.5232V64.8995Z" fill="white"/>
<path d="M54.9896 59.0731L53.8753 62.9157H53.8493L52.735 59.0731H51.2667L53.1672 64.6548V68.7474H54.5522V64.6548L56.4579 59.0731H54.9896Z" fill="white"/>
<path d="M0 71.4758H0.671672V73.345H1.12468V71.4758H1.78595V71.0957H0V71.4758Z" fill="white"/>
<path d="M5.61297 71.0957L4.73822 73.345H5.21724L5.4047 72.8348H6.30547L6.49812 73.345H6.99278L6.09199 71.0957H5.61297ZM5.54528 72.4547L5.85248 71.6216L6.15968 72.4547H5.54528Z" fill="white"/>
<path d="M11.1687 72.5171H11.6894V72.8035C11.528 72.9285 11.3457 72.9909 11.1531 72.9909C10.9448 72.9909 10.7834 72.918 10.674 72.7775C10.5647 72.6369 10.5074 72.439 10.5074 72.1943C10.5074 71.6944 10.7261 71.4445 11.1583 71.4445C11.429 71.4445 11.5957 71.5643 11.6686 71.8038L12.1163 71.7205C12.0226 71.2779 11.6998 71.0592 11.1583 71.0592C10.8459 71.0592 10.5855 71.1529 10.3668 71.3508C10.1482 71.5434 10.044 71.8298 10.044 72.2151C10.044 72.5588 10.143 72.8399 10.3356 73.0586C10.5283 73.2773 10.8146 73.3867 11.1895 73.3867C11.5748 73.3867 11.8976 73.2721 12.1476 73.0378V72.1422H11.1687V72.5171Z" fill="white"/>
<path d="M17.5523 71.0957H17.0941V73.345H18.677V72.9649H17.5523V71.0957Z" fill="white"/>
<path d="M22.3426 71.0957H21.8844V73.345H22.3426V71.0957Z" fill="white"/>
<path d="M27.0288 72.5952L26.1019 71.0957H25.6594V73.345H26.0811V71.8767L26.9923 73.345H27.4453V71.0957H27.0288V72.5952Z" fill="white"/>
<path d="M31.2671 72.3505H32.3918V71.9704H31.2671V71.4758H32.4751V71.0957H30.8089V73.345H32.522V72.9649H31.2671V72.3505Z" fill="white"/>
<path d="M40.8217 71.9808H39.9313V71.0957H39.4783V73.345H39.9313V72.3609H40.8217V73.345H41.2747V71.0957H40.8217V71.9808Z" fill="white"/>
<path d="M45.0861 72.3505H46.2108V71.9704H45.0861V71.4758H46.2941V71.0957H44.6279V73.345H46.341V72.9649H45.0861V72.3505Z" fill="white"/>
<path d="M50.8605 72.3505C51.2563 72.2933 51.4541 72.085 51.4541 71.7257C51.4541 71.481 51.3812 71.3144 51.2354 71.2258C51.0896 71.1373 50.871 71.0957 50.5742 71.0957H49.6161V73.345H50.0691V72.4078H50.1576C50.2878 72.4078 50.3815 72.4234 50.4388 72.4599C50.4961 72.4911 50.5533 72.5484 50.6002 72.6213L51.0896 73.345H51.6312L51.3552 72.9077C51.1782 72.6161 51.0115 72.4338 50.8605 72.3505ZM50.4023 72.0433H50.0639V71.4758H50.4179C50.6627 71.4758 50.8137 71.4966 50.8814 71.533C50.9491 71.5695 50.9803 71.6424 50.9803 71.7569C50.9803 71.8767 50.9386 71.9548 50.8605 71.9913C50.7876 72.0277 50.6314 72.0433 50.4023 72.0433Z" fill="white"/>
<path d="M55.2186 72.3505H56.3433V71.9704H55.2186V71.4758H56.4319V71.0957H54.7657V73.345H56.4735V72.9649H55.2186V72.3505Z" fill="white"/>
</svg>
