<svg width="57" height="74" viewBox="0 0 57 74" fill="none" xmlns="http://www.w3.org/2000/svg">
<path d="M23.9724 4.11862C24.0349 4.11862 24.1026 4.12383 24.1651 4.12903C24.5348 4.14465 24.9044 4.16548 25.2897 4.19672C27.0236 4.32169 28.7002 4.57682 30.2831 4.94651V0.921611C28.6638 0.51027 26.9299 0.234307 25.1283 0.104135C24.4671 0.0520669 23.7641 0.0208245 23.0404 0.00520399C22.8477 -2.86009e-06 22.6551 0 22.4572 0C22.452 0 22.4468 0 22.4364 0C19.0519 0 15.5738 0.447787 12.0904 1.32774C8.13317 2.32225 4.34258 3.85827 1.09351 5.7744V45.6589C4.26448 43.925 7.84679 42.5348 11.5697 41.5975C14.5116 40.8582 17.4743 40.4052 20.3745 40.2542H20.4005H20.4109C20.4369 40.2542 20.463 40.249 20.4838 40.249C20.9837 40.2229 21.4783 40.2073 21.9886 40.2021V36.1199C18.2449 36.1564 14.4022 36.6666 10.5648 37.6299C9.18494 37.9788 7.84679 38.3745 6.59194 38.8015L5.17568 39.2857V37.7861V8.86206V8.18517L5.78487 7.89358C8.06547 6.80535 10.5231 5.9254 13.0849 5.27975C15.6206 4.6393 18.1511 4.254 20.6088 4.12383C20.6608 4.11862 20.7025 4.11862 20.7337 4.11862C21.3013 4.09258 21.874 4.07696 22.4364 4.07696C22.6447 4.07696 22.8477 4.08217 23.0508 4.08217H23.0768C23.3788 4.09258 23.6756 4.103 23.9724 4.11862Z" fill="#10B981"/>
<path d="M34.0425 8.33105C33.1053 8.33105 32.1733 8.29981 31.2777 8.23212C30.1894 8.15402 29.1064 8.02385 28.0651 7.84681C27.4298 7.73747 26.805 7.6125 26.1958 7.47192V46.9034C28.591 47.5126 31.2256 47.825 34.0425 47.825C37.4218 47.825 40.9051 47.3772 44.3937 46.5025C48.3457 45.5028 52.1363 43.972 55.3906 42.0558V2.87427C52.2196 4.60815 48.6373 5.99838 44.9196 6.93561C41.254 7.86243 37.5988 8.33105 34.0425 8.33105ZM49.887 9.00794L51.3032 8.52891V10.0233V38.9525V39.6294L50.694 39.921C48.4186 41.004 45.961 41.884 43.3888 42.5297C40.2283 43.3263 37.0833 43.7324 34.0425 43.7324C33.1001 43.7324 32.1629 43.6908 31.2569 43.6127L30.278 43.5294V42.5453V42.4359V39.7596L30.2832 39.7648V12.6736V11.5281L31.4235 11.601C32.2514 11.653 33.1105 11.6791 34.0425 11.6791C37.9373 11.6791 41.9309 11.1688 45.9141 10.1639C47.2523 9.84624 48.5905 9.45052 49.887 9.00794Z" fill="#10B981"/>
<path d="M3.86878 59.2801C3.46265 58.8531 2.93156 58.6396 2.2807 58.6396C1.94746 58.6396 1.64025 58.6969 1.36429 58.8115C1.08832 58.926 0.848812 59.0822 0.650952 59.2801C0.453091 59.4779 0.296878 59.7175 0.187534 59.9882C0.0781903 60.259 0.026123 60.5558 0.026123 60.8734V66.2C0.026123 66.6426 0.0938089 67.0071 0.234394 67.2934C0.374979 67.5798 0.552011 67.8141 0.770699 67.9912C0.989387 68.1734 1.23411 68.2984 1.50487 68.3713C1.77562 68.4442 2.04638 68.4806 2.30673 68.4806C2.61393 68.4806 2.90031 68.4181 3.17107 68.2984C3.43662 68.1786 3.67092 68.012 3.86878 67.8037C4.06664 67.5954 4.22285 67.3559 4.3374 67.0904C4.45195 66.8248 4.50923 66.5384 4.50923 66.2417V65.6429H3.12421V66.1167C3.12421 66.3093 3.09817 66.4655 3.04089 66.5905C2.98883 66.7155 2.91592 66.8196 2.83782 66.8873C2.7493 66.9602 2.65037 67.0123 2.54624 67.0435C2.4421 67.0747 2.34317 67.0904 2.25466 67.0904C1.93704 67.0904 1.71836 66.9966 1.59339 66.804C1.47363 66.6113 1.41115 66.377 1.41115 66.0959V61.1494C1.41115 60.8213 1.46842 60.5558 1.58297 60.3423C1.69752 60.1288 1.92662 60.0247 2.27027 60.0247C2.53062 60.0247 2.7389 60.1236 2.8951 60.3215C3.05131 60.5193 3.12421 60.7588 3.12421 61.0296V61.493H4.50923V60.9515C4.50923 60.6183 4.45195 60.3058 4.3374 60.0195C4.22285 59.7331 4.06664 59.4884 3.86878 59.2801Z" fill="#10B981"/>
<path d="M12.1841 59.2226C11.955 59.03 11.7051 58.8894 11.4291 58.7853C11.1531 58.6863 10.872 58.6343 10.5908 58.6343C10.3096 58.6343 10.0337 58.6863 9.75249 58.7853C9.47653 58.8842 9.23182 59.03 9.01313 59.2226C8.78403 59.4205 8.60699 59.6704 8.47161 59.9724C8.33624 60.2692 8.26855 60.6181 8.26855 61.0034V66.1113C8.26855 66.5175 8.33624 66.8663 8.47161 67.1579C8.60699 67.4495 8.78924 67.689 9.01313 67.8764C9.23182 68.0743 9.47653 68.2253 9.75249 68.3242C10.0285 68.4232 10.3096 68.4752 10.5908 68.4752C10.872 68.4752 11.1479 68.4232 11.4291 68.3242C11.7051 68.2253 11.955 68.0743 12.1841 67.8764C12.4028 67.6838 12.5798 67.4443 12.7152 67.1579C12.8506 66.8663 12.9183 66.5175 12.9183 66.1113V61.0034C12.9183 60.6129 12.8506 60.2692 12.7152 59.9724C12.5746 59.6704 12.4028 59.4205 12.1841 59.2226ZM11.5332 66.1113C11.5332 66.4446 11.4395 66.6945 11.2521 66.8507C11.0646 67.0069 10.8459 67.0902 10.5908 67.0902C10.3357 67.0902 10.117 67.0121 9.92953 66.8507C9.74208 66.6945 9.64837 66.4446 9.64837 66.1113V61.0034C9.64837 60.6702 9.74208 60.4202 9.92953 60.264C10.117 60.1078 10.3357 60.0245 10.5908 60.0245C10.8459 60.0245 11.0646 60.1026 11.2521 60.264C11.4395 60.4202 11.5332 60.6702 11.5332 61.0034V66.1113Z" fill="#10B981"/>
<path d="M23.1081 68.3972V58.7229H21.7647L19.9944 63.8464H19.9684L18.1876 58.7229H16.8599V68.3972H18.2449V62.5135H18.2709L19.6299 66.6686H20.3224L21.697 62.5135H21.7231V68.3972H23.1081Z" fill="#10B981"/>
<path d="M31.0069 59.3999C30.7726 59.1447 30.507 58.9677 30.2206 58.8688C29.929 58.7698 29.5958 58.7178 29.2157 58.7178H27.1382V68.3921H28.5232V64.6119H29.2313C29.7468 64.6119 30.1634 64.5234 30.481 64.3464C30.7986 64.1693 31.0537 63.9246 31.2412 63.607C31.4026 63.3467 31.5119 63.0655 31.5588 62.7635C31.6109 62.4667 31.6317 62.097 31.6317 61.6648C31.6317 61.0869 31.5848 60.6235 31.4963 60.285C31.4026 59.9518 31.2412 59.655 31.0069 59.3999ZM30.3039 62.3469C30.2883 62.5448 30.2467 62.7114 30.1738 62.852C30.1009 62.9978 29.9863 63.1124 29.8353 63.1905C29.6791 63.2738 29.4656 63.3102 29.1845 63.3102H28.518V60.0195H29.2365C29.5073 60.0195 29.7156 60.0611 29.8614 60.1392C30.0072 60.2226 30.1165 60.3371 30.1894 60.4933C30.2623 60.6495 30.3039 60.8265 30.3092 61.0296C30.3196 61.2327 30.3248 61.4462 30.3248 61.6753C30.3248 61.9304 30.3196 62.1491 30.3039 62.3469Z" fill="#10B981"/>
<path d="M37.5675 58.7229H36.4116L34.2507 68.3972H35.6358L36.0419 66.3197H37.932L38.3381 68.3972H39.7231L37.5675 58.7229ZM36.2918 65.0128L36.9687 61.5086H36.9947L37.6716 65.0128H36.2918Z" fill="#10B981"/>
<path d="M46.5232 64.5494H46.4971L44.404 58.7229H43.071V68.3972H44.4561V62.5812H44.4873L46.6065 68.3972H47.9082V58.7229H46.5232V64.5494Z" fill="#10B981"/>
<path d="M54.9895 58.7229L53.8752 62.5656H53.8492L52.7349 58.7229H51.2666L53.1671 64.3046V68.3972H54.5521V64.3046L56.4578 58.7229H54.9895Z" fill="#10B981"/>
<path d="M0 71.1257H0.671672V72.995H1.12468V71.1257H1.78595V70.7456H0V71.1257Z" fill="#10B981"/>
<path d="M5.61303 70.7456L4.73828 72.995H5.2173L5.40476 72.4847H6.30553L6.49818 72.995H6.99284L6.09205 70.7456H5.61303ZM5.54534 72.1046L5.85254 71.2715L6.15974 72.1046H5.54534Z" fill="#10B981"/>
<path d="M11.1686 72.1669H11.6893V72.4533C11.5279 72.5782 11.3457 72.6407 11.153 72.6407C10.9447 72.6407 10.7833 72.5678 10.674 72.4272C10.5646 72.2867 10.5074 72.0888 10.5074 71.8441C10.5074 71.3442 10.7261 71.0943 11.1582 71.0943C11.429 71.0943 11.5956 71.214 11.6685 71.4536L12.1163 71.3702C12.0226 70.9277 11.6997 70.709 11.1582 70.709C10.8458 70.709 10.5855 70.8027 10.3668 71.0006C10.1481 71.1932 10.0439 71.4796 10.0439 71.8649C10.0439 72.2086 10.1429 72.4897 10.3355 72.7084C10.5282 72.9271 10.8146 73.0364 11.1895 73.0364C11.5748 73.0364 11.8976 72.9219 12.1475 72.6876V71.792H11.1686V72.1669Z" fill="#10B981"/>
<path d="M17.5522 70.7456H17.094V72.995H18.6769V72.6149H17.5522V70.7456Z" fill="#10B981"/>
<path d="M22.3425 70.7456H21.8843V72.995H22.3425V70.7456Z" fill="#10B981"/>
<path d="M27.0288 72.2452L26.102 70.7456H25.6594V72.995H26.0812V71.5266L26.9924 72.995H27.4454V70.7456H27.0288V72.2452Z" fill="#10B981"/>
<path d="M31.267 72.0005H32.3917V71.6204H31.267V71.1257H32.475V70.7456H30.8088V72.995H32.5219V72.6149H31.267V72.0005Z" fill="#10B981"/>
<path d="M40.8216 71.6308H39.9313V70.7456H39.4783V72.995H39.9313V72.0109H40.8216V72.995H41.2746V70.7456H40.8216V71.6308Z" fill="#10B981"/>
<path d="M45.0861 72.0005H46.2108V71.6204H45.0861V71.1257H46.2941V70.7456H44.6279V72.995H46.341V72.6149H45.0861V72.0005Z" fill="#10B981"/>
<path d="M50.8607 72.0005C51.2564 71.9432 51.4542 71.7349 51.4542 71.3756C51.4542 71.1309 51.3813 70.9643 51.2356 70.8758C51.0898 70.7873 50.8711 70.7456 50.5743 70.7456H49.6162V72.995H50.0692V72.0577H50.1577C50.2879 72.0577 50.3816 72.0734 50.4389 72.1098C50.4962 72.141 50.5535 72.1983 50.6003 72.2712L51.0898 72.995H51.6313L51.3553 72.5576C51.1783 72.266 51.0117 72.0838 50.8607 72.0005ZM50.4025 71.6933H50.064V71.1257H50.4181C50.6628 71.1257 50.8138 71.1465 50.8815 71.183C50.9492 71.2194 50.9804 71.2923 50.9804 71.4069C50.9804 71.5266 50.9388 71.6047 50.8607 71.6412C50.7878 71.6776 50.6316 71.6933 50.4025 71.6933Z" fill="#10B981"/>
<path d="M55.2186 72.0005H56.3433V71.6204H55.2186V71.1257H56.4318V70.7456H54.7656V72.995H56.4735V72.6149H55.2186V72.0005Z" fill="#10B981"/>
</svg>
