<svg width="77" height="87" viewBox="0 0 77 87" fill="none" xmlns="http://www.w3.org/2000/svg">
<path d="M34.3861 14.771L41.155 26.4969C41.9204 26.4813 42.6858 26.476 43.4616 26.476C45.4402 26.476 47.398 26.5229 49.3193 26.6062L34.3861 0.743774L17.9793 29.1628C20.8274 28.5119 23.8526 27.9704 27.0132 27.5434L34.3861 14.771ZM22.2385 26.1064L34.3913 5.06026L45.5183 24.336C44.831 24.3256 44.1489 24.3204 43.4616 24.3204C43.1075 24.3204 42.7535 24.3204 42.3942 24.3256L36.2553 13.6932L34.3861 10.4546L32.5168 13.6932L25.6698 25.5544C24.5087 25.7211 23.3632 25.9033 22.2385 26.1064Z" fill="white"/>
<path d="M24.3212 65.2879C15.8601 61.5702 10.6845 56.5925 10.6845 51.1253C10.6845 49.3029 11.2572 47.5377 12.335 45.8559H60.4307L51.6676 30.6832C55 30.4072 58.4521 30.2614 61.9876 30.2614C66.7519 30.2614 71.3599 30.527 75.7337 31.0216C75.4837 30.9383 75.2234 30.8602 74.9631 30.7821C75.2182 30.8602 75.4785 30.9383 75.7337 31.0216C76.0253 31.0529 76.3168 31.0893 76.6136 31.1257C75.843 30.9279 75.0568 30.7457 74.2601 30.5634C67.1163 28.9701 58.8947 28.0589 50.1472 28.0485C50.0951 28.0485 50.0431 28.0485 49.991 28.0485C48.002 28.0485 46.0338 28.0954 44.1073 28.1839C43.4616 28.2151 42.8264 28.2516 42.1911 28.288C36.0939 28.6681 30.3664 29.496 25.2116 30.678C24.7638 30.7821 24.3264 30.8862 23.889 30.9904C20.8326 31.7402 17.9949 32.6201 15.4175 33.6094C5.91499 37.2542 2.08394e-06 42.3934 2.08394e-06 48.0845C-0.00520477 55.3897 9.74724 61.7837 24.3212 65.2879ZM44.0812 31.5631L48.2831 38.8371H20.515C26.3935 35.5568 34.5683 33.0054 44.0812 31.5631Z" fill="white"/>
<path d="M4.6341 79.6484C4.89965 79.5287 5.12876 79.362 5.32662 79.159C5.52448 78.9507 5.68068 78.7164 5.79002 78.4508C5.90457 78.1853 5.95664 77.9041 5.95664 77.6073V77.0137H4.58204V77.4824C4.58204 77.6698 4.55601 77.826 4.49873 77.951C4.44666 78.0759 4.37897 78.1749 4.29566 78.2478C4.20714 78.3207 4.10821 78.3727 4.00407 78.404C3.89994 78.4352 3.80621 78.4508 3.71249 78.4508C3.40008 78.4508 3.18139 78.3571 3.06163 78.1697C2.94188 77.9822 2.87939 77.7479 2.87939 77.472V72.5723C2.87939 72.2495 2.93667 71.9839 3.04602 71.7704C3.16057 71.5622 3.38446 71.4528 3.72811 71.4528C3.98845 71.4528 4.19673 71.5518 4.34773 71.7496C4.49873 71.9475 4.57683 72.1818 4.57683 72.4473V72.9055H5.95145V72.3692C5.95145 72.036 5.89417 71.7288 5.78482 71.4476C5.67027 71.1665 5.51927 70.9217 5.32141 70.7135C4.91527 70.2917 4.39459 70.0782 3.74373 70.0782C3.41049 70.0782 3.1085 70.1355 2.83253 70.2448C2.55657 70.3594 2.32227 70.5104 2.12441 70.7083C1.92655 70.9061 1.77555 71.1404 1.6662 71.406C1.55686 71.6767 1.50479 71.9683 1.50479 72.2807V77.5605C1.50479 77.9978 1.57248 78.3623 1.71306 78.6435C1.85365 78.9247 2.03067 79.159 2.24416 79.336C2.45764 79.5182 2.70237 79.6432 2.97313 79.7109C3.24388 79.7838 3.50943 79.8202 3.76978 79.8202C4.08219 79.8307 4.36855 79.7682 4.6341 79.6484Z" fill="white"/>
<path d="M16.9848 72.4265C16.9848 72.0412 16.9171 71.6975 16.7817 71.406C16.6463 71.1092 16.4745 70.8644 16.2558 70.6666C16.0319 70.4791 15.782 70.3333 15.5112 70.2344C15.2353 70.1355 14.9593 70.0886 14.6833 70.0886C14.4074 70.0886 14.1314 70.1355 13.8554 70.2344C13.5795 70.3333 13.3348 70.4791 13.1213 70.6666C12.8974 70.8644 12.7151 71.1092 12.585 71.406C12.4496 71.7027 12.3819 72.0412 12.3819 72.4265V77.4876C12.3819 77.8937 12.4496 78.2373 12.585 78.5237C12.7203 78.8101 12.8974 79.0496 13.1213 79.237C13.3348 79.4349 13.5795 79.5807 13.8554 79.6796C14.1314 79.7786 14.4074 79.8254 14.6833 79.8254C14.9593 79.8254 15.2353 79.7734 15.5112 79.6796C15.7872 79.5807 16.0319 79.4349 16.2558 79.237C16.4693 79.0496 16.6463 78.8101 16.7817 78.5237C16.9171 78.2373 16.9848 77.8885 16.9848 77.4876V72.4265ZM15.6102 77.4876C15.6102 77.8208 15.5164 78.0655 15.3342 78.2217C15.1519 78.3779 14.9333 78.456 14.6833 78.456C14.4334 78.456 14.2147 78.3779 14.0325 78.2217C13.8502 78.0655 13.7565 77.8208 13.7565 77.4876V72.4265C13.7565 72.0933 13.8502 71.8485 14.0325 71.6923C14.2147 71.5361 14.4334 71.458 14.6833 71.458C14.9333 71.458 15.1519 71.5361 15.3342 71.6923C15.5164 71.8485 15.6102 72.0933 15.6102 72.4265V77.4876Z" fill="white"/>
<path d="M26.6903 75.2382H26.6643L24.8992 70.1615H23.5818V79.7473H24.9513V73.9208H24.9825L26.3259 78.0395H27.0132L28.3722 73.9208H28.3982V79.7473H29.7728V70.1615H28.4398L26.6903 75.2382Z" fill="white"/>
<path d="M40.2854 70.8384C40.0511 70.5885 39.7907 70.4115 39.5044 70.3125C39.218 70.2136 38.8848 70.1667 38.5099 70.1667H36.4479V79.7526H37.8226V76.0088H38.5203C39.0305 76.0088 39.4471 75.9203 39.7595 75.7485C40.0719 75.5715 40.327 75.3267 40.5145 75.0143C40.6759 74.754 40.78 74.478 40.8321 74.1812C40.879 73.8844 40.905 73.52 40.905 73.093C40.905 72.5202 40.8582 72.062 40.7696 71.7288C40.6811 71.3799 40.5197 71.0884 40.2854 70.8384ZM39.5929 73.7595C39.5773 73.9573 39.5356 74.1239 39.4627 74.2593C39.3898 74.4051 39.2805 74.5145 39.1243 74.5978C38.9733 74.6811 38.7546 74.7175 38.4786 74.7175H37.8173V71.4581H38.5307C38.8014 71.4581 39.0045 71.4997 39.1503 71.5778C39.2961 71.6611 39.4002 71.7757 39.4731 71.9267C39.546 72.0777 39.5877 72.2547 39.5929 72.4578C39.6033 72.6608 39.6085 72.8743 39.6085 73.0982C39.6137 73.3429 39.6085 73.5616 39.5929 73.7595Z" fill="white"/>
<path d="M48.3352 70.1615L46.1952 79.7473H47.5698L47.9759 77.6854H49.8452L50.2513 79.7473H51.6259L49.4859 70.1615H48.3352ZM48.2155 76.3941L48.8871 72.9211H48.9132L49.5849 76.3941H48.2155Z" fill="white"/>
<path d="M62.4197 79.7473V70.1615H61.0451V75.9411H61.0191L58.9468 70.1615H57.6242V79.7473H58.9988V73.9885H59.0249L61.1284 79.7473H62.4197Z" fill="white"/>
<path d="M71.6931 79.7473V75.6964L73.578 70.1615H72.1253L71.0214 73.9729H70.9954L69.8916 70.1615H68.4337L70.3185 75.6964V79.7473H71.6931Z" fill="white"/>
<path d="M2.6659 86.1414V83.7358H3.43131V83.3557H1.48395V83.7358H2.24414V86.1414H2.6659Z" fill="white"/>
<path d="M6.50336 83.3557L5.49323 86.1362H5.94101L6.15449 85.5114H7.21148L7.42496 86.1362H7.86755L6.85742 83.3557H6.50336ZM6.27425 85.1469L6.67517 83.9337H6.68558L7.08652 85.1469H6.27425Z" fill="white"/>
<path d="M10.9084 83.9597C10.9552 83.9024 11.0125 83.8555 11.0854 83.8191C11.1583 83.7826 11.2416 83.7618 11.3405 83.7618C11.4759 83.767 11.5904 83.8035 11.6842 83.8764C11.7727 83.9545 11.8352 84.0482 11.8716 84.1627H12.3194C12.2725 83.9284 12.1684 83.7358 11.9966 83.5796C11.83 83.4234 11.6061 83.3453 11.3405 83.3401C11.1218 83.3401 10.9396 83.3921 10.7938 83.4963C10.6428 83.5952 10.5387 83.7098 10.471 83.8399C10.4293 83.9076 10.3981 83.9961 10.3773 84.1055C10.3564 84.2148 10.346 84.4335 10.346 84.7563C10.346 85.0739 10.3564 85.2874 10.3773 85.402C10.3877 85.4593 10.3981 85.5113 10.4137 85.553C10.4293 85.5894 10.4502 85.6311 10.471 85.6727C10.5387 85.8029 10.648 85.9122 10.7938 86.0112C10.9396 86.1153 11.1218 86.1674 11.3405 86.1726C11.6217 86.1674 11.8612 86.0737 12.0487 85.8862C12.2361 85.6988 12.3298 85.4645 12.335 85.1833V84.6157H11.3457V85.0167H11.9133V85.1625C11.9081 85.3343 11.856 85.4749 11.7519 85.5842C11.6425 85.6936 11.5071 85.7508 11.3457 85.7508C11.2468 85.7508 11.1635 85.73 11.0906 85.6884C11.0177 85.6519 10.9604 85.605 10.9136 85.5478C10.8615 85.4905 10.825 85.4072 10.8042 85.3135C10.7834 85.2145 10.773 85.0323 10.773 84.7563C10.773 84.4804 10.7834 84.2981 10.8042 84.1992C10.8146 84.095 10.8511 84.0169 10.9084 83.9597Z" fill="white"/>
<path d="M15.1676 83.3557V86.1414H16.9483V85.7405H15.5893V83.3557H15.1676Z" fill="white"/>
<path d="M20.1089 83.3557H19.6871V86.1362H20.1089V83.3557Z" fill="white"/>
<path d="M23.0403 83.3557V86.1414H23.4621V84.1628H23.4725L24.7274 86.1414H25.1283V83.3557H24.7065V85.3343H24.6961L23.4361 83.3557H23.0403Z" fill="white"/>
<path d="M29.8353 83.7567V83.3557H28.0597V86.1414H29.8353V85.7405H28.4815V84.923H29.6374V84.5533H28.4815V83.7567H29.8353Z" fill="white"/>
<path d="M35.8908 83.8347C35.8492 83.9024 35.8179 83.9909 35.7971 84.1003C35.7763 84.2096 35.7711 84.4283 35.7711 84.7511C35.7711 85.0688 35.7815 85.2822 35.7971 85.3968C35.8075 85.4541 35.8179 85.5061 35.8335 85.5478C35.8492 85.5842 35.87 85.6259 35.8908 85.6675C35.9585 85.7977 36.0679 85.907 36.2136 86.006C36.3594 86.1101 36.5417 86.1622 36.7604 86.1674C37.0415 86.1622 37.281 86.0685 37.4685 85.881C37.6559 85.6936 37.7497 85.4593 37.7549 85.1781V84.6105H36.7656V85.0115H37.3331V85.1573C37.3279 85.3291 37.2758 85.4697 37.1665 85.579C37.0571 85.6884 36.9218 85.7456 36.7604 85.7456C36.6614 85.7456 36.5781 85.7248 36.5052 85.6831C36.4323 85.6467 36.3751 85.5998 36.3282 85.5426C36.2761 85.4853 36.2397 85.402 36.2188 85.3083C36.198 85.2093 36.1876 85.0271 36.1876 84.7511C36.1876 84.4752 36.198 84.2929 36.2188 84.194C36.2345 84.1003 36.2709 84.0222 36.3282 83.9649C36.3751 83.9076 36.4323 83.8608 36.5052 83.8243C36.5781 83.7879 36.6614 83.767 36.7604 83.767C36.8957 83.7722 37.0103 83.8087 37.104 83.8816C37.1925 83.9597 37.255 84.0534 37.2914 84.168H37.7392C37.6924 83.9336 37.5883 83.741 37.4164 83.5848C37.2446 83.4286 37.0259 83.3505 36.7604 83.3453C36.5417 83.3453 36.3594 83.3973 36.2136 83.5015C36.0626 83.59 35.9585 83.7045 35.8908 83.8347Z" fill="white"/>
<path d="M40.6186 83.8347C40.577 83.9024 40.5458 83.9909 40.5249 84.1003C40.5041 84.2096 40.4937 84.4283 40.4937 84.7511C40.4937 85.0688 40.5041 85.2822 40.5249 85.3968C40.5353 85.4541 40.5457 85.5061 40.5614 85.5478C40.577 85.5842 40.5978 85.6259 40.6186 85.6675C40.6863 85.7977 40.7957 85.907 40.9415 86.006C41.0873 86.1101 41.2695 86.1622 41.4882 86.1674C41.7121 86.1622 41.8943 86.1101 42.0401 86.006C42.1859 85.907 42.29 85.7925 42.3577 85.6675C42.4046 85.5998 42.4358 85.5113 42.4567 85.3968C42.4723 85.2874 42.4827 85.0688 42.4827 84.7511C42.4827 84.4283 42.4723 84.2096 42.4567 84.1003C42.441 83.9909 42.4046 83.9024 42.3577 83.8347C42.2952 83.7046 42.1859 83.59 42.0401 83.4911C41.8943 83.3869 41.7069 83.3349 41.4882 83.3349C41.2695 83.3349 41.0873 83.3869 40.9415 83.4911C40.7957 83.59 40.6863 83.7046 40.6186 83.8347ZM40.9519 84.1888C40.9675 84.0951 41.004 84.017 41.0612 83.9597C41.1081 83.9024 41.1654 83.8556 41.2383 83.8191C41.3112 83.7827 41.3945 83.7618 41.4934 83.7618C41.5923 83.767 41.6808 83.7827 41.7537 83.8191C41.8214 83.8556 41.8787 83.9076 41.9204 83.9597C41.9776 84.017 42.0141 84.0951 42.0349 84.1888C42.0557 84.2877 42.0609 84.4752 42.0609 84.7459C42.0609 85.0219 42.0505 85.2041 42.0349 85.3031C42.0141 85.402 41.9776 85.4801 41.9204 85.5374C41.8787 85.5946 41.8214 85.6415 41.7537 85.678C41.6808 85.7196 41.5923 85.7404 41.4934 85.7404C41.3945 85.7404 41.3112 85.7196 41.2383 85.678C41.1654 85.6415 41.1081 85.5946 41.0612 85.5374C41.004 85.4801 40.9727 85.3968 40.9519 85.3031C40.931 85.2041 40.9206 85.0219 40.9206 84.7459C40.9206 84.4752 40.931 84.2877 40.9519 84.1888Z" fill="white"/>
<path d="M45.3205 86.1414H47.096V85.7405H45.7422V84.923H46.8981V84.5533H45.7422V83.7567H47.096V83.3557H45.3205V86.1414Z" fill="white"/>
<path d="M50.6627 85.7404C50.3555 85.7352 50.0951 85.6467 49.8712 85.4645L49.5953 85.7821C49.8921 86.0372 50.2461 86.1622 50.6575 86.1622C51.2927 86.157 51.6207 85.8862 51.6364 85.3551C51.6364 85.1573 51.5739 84.9854 51.4489 84.8344C51.3239 84.6834 51.1313 84.5897 50.871 84.5533C50.7408 84.5377 50.6366 84.522 50.5585 84.5116C50.4232 84.4856 50.319 84.4387 50.2566 84.3762C50.1941 84.3138 50.1628 84.2409 50.1628 84.1575C50.168 84.0222 50.2097 83.9232 50.3034 83.8556C50.3919 83.7931 50.4961 83.7566 50.6262 83.7566C50.8762 83.7618 51.1053 83.8347 51.3135 83.9701L51.5478 83.6212C51.2927 83.439 50.9907 83.3401 50.6471 83.3349C50.3607 83.3349 50.1368 83.413 49.9806 83.5588C49.8192 83.7098 49.7359 83.9024 49.7359 84.1471C49.7359 84.3502 49.7984 84.522 49.9285 84.6626C50.0535 84.798 50.2357 84.8865 50.4752 84.9282C50.6106 84.949 50.7304 84.9646 50.8449 84.9802C51.0896 85.0219 51.2094 85.1468 51.2094 85.3551C51.2094 85.605 51.0272 85.7352 50.6627 85.7404Z" fill="white"/>
<path d="M59.6549 86.1414V83.3557H59.2332V84.5533H58.1293V83.3557H57.7076V86.1414H58.1293V84.923H59.2332V86.1414H59.6549Z" fill="white"/>
<path d="M64.3619 83.7567V83.3557H62.5864V86.1414H64.3619V85.7405H63.0081V84.923H64.164V84.5533H63.0081V83.7567H64.3619Z" fill="white"/>
<path d="M68.4962 84.9073C68.8502 84.772 69.0273 84.5168 69.0325 84.1367C69.0273 83.8816 68.9335 83.6837 68.7565 83.5431C68.6107 83.4234 68.4233 83.3609 68.189 83.3609H67.1007V86.1414H67.5225V84.9542H68.0588L68.6315 86.1414H69.1418L68.4962 84.9073ZM67.5277 84.5793V83.7358H68.189C68.3243 83.7358 68.4285 83.7618 68.4962 83.8191C68.5847 83.8816 68.6315 83.9909 68.6367 84.1315C68.6367 84.2513 68.6003 84.3554 68.5222 84.4387C68.4441 84.5272 68.3243 84.5741 68.1681 84.5741H67.5277V84.5793Z" fill="white"/>
<path d="M73.6093 83.7567V83.3557H71.8337V86.1414H73.6093V85.7405H72.2555V84.923H73.4114V84.5533H72.2555V83.7567H73.6093Z" fill="white"/>
</svg>
