<svg width="79" height="83" viewBox="0 0 79 83" fill="none" xmlns="http://www.w3.org/2000/svg">
<path d="M3.59275 76.4333C4.54561 76.4333 5.41515 76.0532 6.0608 75.4388L5.05067 74.4287C4.67057 74.7775 4.15509 74.9962 3.59796 74.9962C2.40559 74.9962 1.44232 74.0434 1.44232 72.851C1.44232 71.669 2.40559 70.7058 3.59796 70.7058C4.15509 70.7058 4.67578 70.9245 5.05067 71.2837L6.0608 70.2632C5.42036 69.6488 4.55081 69.2687 3.59275 69.2687C1.61936 69.2687 0.010437 70.8724 0.010437 72.851C0.0156439 74.8296 1.61936 76.4333 3.59275 76.4333Z" fill="white"/>
<path d="M19.078 72.8562C19.078 70.8828 17.4742 69.2739 15.4956 69.2739C13.517 69.2739 11.9133 70.8776 11.9133 72.8562C11.9133 74.8296 13.517 76.4385 15.4956 76.4385C17.4742 76.4385 19.078 74.8296 19.078 72.8562ZM15.5009 75.0066C14.3085 75.0066 13.3452 74.0433 13.3452 72.851C13.3452 71.669 14.3085 70.7057 15.5009 70.7057C16.6828 70.7057 17.6461 71.669 17.6461 72.851C17.6461 74.0433 16.6828 75.0066 15.5009 75.0066Z" fill="white"/>
<path d="M32.673 76.4333V69.2739H31.137L29.049 74.5068L26.9507 69.2739H25.4094V76.4333H26.8361V72.8562L28.2732 76.4333H29.8144L31.2463 72.8562V76.4333H32.673Z" fill="white"/>
<path d="M40.4312 73.5747H41.0196C42.2015 73.5747 43.1544 72.6115 43.1544 71.4295C43.1544 70.2371 42.2015 69.2739 41.0092 69.2739H39.0045V76.4333H40.4312V73.5747ZM40.4312 70.711H41.0092C41.4049 70.711 41.7277 71.0338 41.7277 71.4295C41.7277 71.8148 41.4049 72.1376 41.0092 72.1376H40.4312V70.711Z" fill="white"/>
<path d="M52.6465 69.2739H51.1261L48.5383 76.4333H50.0587L50.7876 74.4287H52.9901L53.7191 76.4333H55.2395L52.6465 69.2739ZM51.3031 72.9968L51.8811 71.3826L52.4694 72.9968H51.3031Z" fill="white"/>
<path d="M67.3402 76.4333V69.2739H65.9135V74.0538L63.0498 69.2739H61.3784V76.4333H62.805V71.6638L65.674 76.4333H67.3402Z" fill="white"/>
<path d="M75.0776 69.2739H73.4791L75.3483 73.0228V76.4333H76.775V73.0228L78.6495 69.2739H77.051L76.0669 71.2577L75.0776 69.2739Z" fill="white"/>
<path d="M0.833096 82.5357H1.29651V79.9115H2.1244V79.5053H0V79.9115H0.833096V82.5357Z" fill="white"/>
<path d="M5.47763 79.5053L4.37378 82.5409H4.86322L5.09753 81.864H6.24825L6.48255 82.5409H6.96679L5.86294 79.5053H5.47763ZM5.2277 81.4527L5.66508 80.125H5.67549L6.11287 81.4527H5.2277Z" fill="white"/>
<path d="M10.2783 80.1614C10.3252 80.0989 10.3929 80.0468 10.471 80.0052C10.5491 79.9635 10.6428 79.9427 10.7522 79.9427C10.898 79.9479 11.0229 79.9896 11.1271 80.0677C11.226 80.1562 11.2937 80.2551 11.3301 80.3801H11.8196C11.7727 80.1249 11.653 79.9114 11.4707 79.7396C11.2885 79.5678 11.049 79.4845 10.7522 79.4793C10.5127 79.4845 10.3148 79.5366 10.1534 79.6511C9.99197 79.7604 9.87222 79.8854 9.79932 80.026C9.75246 80.0989 9.72122 80.1978 9.69518 80.3176C9.67436 80.4373 9.66394 80.6716 9.66394 81.0257C9.66394 81.3746 9.67436 81.6089 9.69518 81.7286C9.7056 81.7963 9.72122 81.8484 9.73684 81.8901C9.75246 81.9317 9.77329 81.9734 9.79932 82.0202C9.87222 82.1608 9.99197 82.2858 10.1534 82.3899C10.3148 82.4993 10.5127 82.5565 10.7522 82.5669C11.0594 82.5617 11.3197 82.4576 11.5228 82.2545C11.7259 82.0515 11.83 81.7963 11.8352 81.4891V80.8695H10.7574V81.3069H11.377V81.4631C11.3718 81.6557 11.3145 81.8067 11.2 81.9213C11.0854 82.0411 10.9344 82.1035 10.7574 82.1035C10.648 82.1035 10.5543 82.0827 10.4762 82.0358C10.3981 81.9994 10.3356 81.9473 10.2836 81.8848C10.2263 81.8172 10.1846 81.7338 10.1638 81.6297C10.143 81.5256 10.1326 81.3225 10.1326 81.0257C10.1326 80.7289 10.143 80.5259 10.1638 80.4165C10.1794 80.3072 10.2211 80.2239 10.2783 80.1614Z" fill="white"/>
<path d="M14.928 79.5053V82.5357H16.865V82.1036H15.3862V79.5053H14.928Z" fill="white"/>
<path d="M20.312 79.5053H19.8538V82.5409H20.312V79.5053Z" fill="white"/>
<path d="M25.3261 81.661H25.3209L23.9463 79.5053H23.5142V82.5357H23.9724V80.3801H23.9828L25.3522 82.5357H25.7896V79.5053H25.3261V81.661Z" fill="white"/>
<path d="M30.9235 79.9375V79.5053H28.9865V82.5357H30.9235V82.1036H29.4447V81.2132H30.7048V80.8018H29.4447V79.9375H30.9235Z" fill="white"/>
<path d="M37.8746 79.6511C37.7132 79.7605 37.5935 79.8854 37.5206 80.026C37.4737 80.0989 37.4425 80.1979 37.4164 80.3176C37.3956 80.4374 37.3852 80.6717 37.3852 81.0257C37.3852 81.3746 37.3956 81.6089 37.4164 81.7287C37.4268 81.7964 37.4425 81.8484 37.4581 81.8901C37.4737 81.9317 37.4945 81.9734 37.5206 82.0203C37.5935 82.1608 37.7132 82.2858 37.8746 82.3899C38.0361 82.4993 38.2339 82.5566 38.4734 82.567C38.7806 82.5618 39.041 82.4576 39.244 82.2546C39.4471 82.0515 39.5512 81.7964 39.5564 81.4892V80.8695H38.4786V81.3069H39.0983V81.4631C39.093 81.6558 39.0358 81.8068 38.9212 81.9213C38.8067 82.0411 38.6557 82.1036 38.4786 82.1036C38.3693 82.1036 38.2756 82.0827 38.1975 82.0359C38.1194 81.9994 38.0569 81.9474 38.0048 81.8849C37.9475 81.8172 37.9059 81.7339 37.8851 81.6297C37.8642 81.5256 37.8538 81.3225 37.8538 81.0257C37.8538 80.729 37.8642 80.5259 37.8851 80.4165C37.9059 80.3124 37.9423 80.2291 38.0048 80.1666C38.0517 80.1041 38.1194 80.0521 38.1975 80.0104C38.2756 79.9688 38.3693 79.9479 38.4786 79.9479C38.6244 79.9531 38.7494 79.9948 38.8535 80.0729C38.9525 80.1614 39.0201 80.2603 39.0566 80.3853H39.546C39.4992 80.1302 39.3794 79.9167 39.1972 79.7449C39.0149 79.573 38.7754 79.4897 38.4786 79.4845C38.2339 79.4793 38.0361 79.5366 37.8746 79.6511Z" fill="white"/>
<path d="M44.5811 82.0151C44.6332 81.9422 44.6696 81.8432 44.6852 81.7235C44.7009 81.6037 44.7113 81.3694 44.7113 81.0206C44.7113 80.6665 44.7009 80.4322 44.6852 80.3124C44.6644 80.1927 44.628 80.0989 44.5811 80.0208C44.5082 79.8802 44.3937 79.7553 44.2375 79.6459C44.076 79.5366 43.873 79.4793 43.6335 79.4741C43.3939 79.4793 43.1961 79.5314 43.0347 79.6459C42.8733 79.7553 42.7535 79.8802 42.6806 80.0208C42.6337 80.0937 42.6025 80.1927 42.5765 80.3124C42.5556 80.4322 42.5452 80.6665 42.5452 81.0206C42.5452 81.3694 42.5556 81.6037 42.5765 81.7235C42.5869 81.7912 42.6025 81.8432 42.6181 81.8849C42.6337 81.9265 42.6546 81.9682 42.6806 82.0151C42.7535 82.1556 42.8733 82.2806 43.0347 82.3847C43.1961 82.4941 43.3939 82.5514 43.6335 82.5618C43.873 82.5566 44.076 82.4993 44.2375 82.3847C44.3937 82.2806 44.5082 82.1556 44.5811 82.0151ZM44.0969 81.8797C44.05 81.9422 43.9875 81.9942 43.9146 82.0307C43.8365 82.0775 43.7376 82.0984 43.6283 82.0984C43.5189 82.0984 43.4252 82.0775 43.3471 82.0307C43.269 81.9942 43.2065 81.9422 43.1544 81.8797C43.0972 81.812 43.0555 81.7287 43.0347 81.6245C43.0138 81.5204 43.0034 81.3173 43.0034 81.0206C43.0034 80.7238 43.0138 80.5207 43.0347 80.4113C43.0555 80.3072 43.0919 80.2239 43.1544 80.1614C43.2013 80.0989 43.269 80.0469 43.3471 80.0052C43.4252 79.9636 43.5189 79.9427 43.6283 79.9427C43.7376 79.9479 43.8313 79.9688 43.9146 80.0052C43.9927 80.0469 44.05 80.0989 44.0969 80.1614C44.1541 80.2291 44.1958 80.3124 44.2218 80.4113C44.2427 80.5207 44.2531 80.7238 44.2531 81.0206C44.2531 81.3173 44.2427 81.5204 44.2218 81.6245C44.201 81.7339 44.1593 81.8172 44.0969 81.8797Z" fill="white"/>
<path d="M49.7463 79.9375V79.5053H47.8093V82.5357H49.7463V82.1036H48.2675V81.2132H49.5276V80.8018H48.2675V79.9375H49.7463Z" fill="white"/>
<path d="M53.6358 82.1035C53.3026 82.0983 53.0162 81.9994 52.7767 81.8015L52.4747 82.1452C52.7975 82.4211 53.1828 82.5617 53.6358 82.5617C54.3335 82.5513 54.6876 82.2597 54.7032 81.6818C54.7032 81.4683 54.6355 81.2756 54.5001 81.1142C54.3648 80.9476 54.1565 80.8487 53.8701 80.807C53.7243 80.7914 53.6098 80.7706 53.5264 80.7602C53.3755 80.7341 53.2661 80.6821 53.1984 80.6092C53.1307 80.5363 53.0943 80.4582 53.0943 80.3697C53.0995 80.2239 53.1464 80.1145 53.2453 80.0416C53.339 79.9687 53.4588 79.9375 53.5993 79.9375C53.8753 79.9427 54.1252 80.0208 54.3491 80.1718L54.6043 79.7917C54.3231 79.5886 53.9951 79.4845 53.6202 79.4793C53.3078 79.4845 53.063 79.5626 52.8912 79.724C52.7142 79.8854 52.6257 80.0989 52.6257 80.3644C52.6257 80.5831 52.6934 80.7706 52.8339 80.9268C52.9693 81.0778 53.1672 81.1715 53.4275 81.2184C53.5733 81.2392 53.7087 81.26 53.8284 81.2756C54.094 81.3225 54.2242 81.4579 54.2242 81.6818C54.2294 81.9577 54.0263 82.0983 53.6358 82.1035Z" fill="white"/>
<path d="M63.4403 82.5357V79.5053H62.9768V80.8018H61.7793V79.5053H61.3159V82.5357H61.7793V81.2132H62.9768V82.5357H63.4403Z" fill="white"/>
<path d="M68.5742 79.9375V79.5053H66.6373V82.5357H68.5742V82.1036H67.0955V81.2132H68.3555V80.8018H67.0955V79.9375H68.5742Z" fill="white"/>
<path d="M72.0264 81.2392H72.6148L73.2396 82.5357H73.7863L73.0834 81.1872C73.4687 81.0362 73.6665 80.7602 73.6717 80.3488C73.6613 80.0677 73.5624 79.8542 73.3697 79.7032C73.2083 79.5678 73.0053 79.5053 72.7501 79.5053H71.5682V82.5409H72.0264V81.2392ZM72.0264 79.9115H72.7449C72.8907 79.9115 73.0053 79.9427 73.0834 80.0052C73.1823 80.0781 73.2344 80.1926 73.2344 80.3488C73.2344 80.479 73.1927 80.5936 73.1094 80.6821C73.0209 80.781 72.8959 80.8279 72.7241 80.8331H72.0264V79.9115Z" fill="white"/>
<path d="M78.6599 79.9375V79.5053H76.723V82.5357H78.6599V82.1036H77.1812V81.2132H78.4412V80.8018H77.1812V79.9375H78.6599Z" fill="white"/>
<path d="M9.92434 25.9893L9.91907 26.0104H9.92434V25.9893Z" fill="white"/>
<path d="M9.96594 25.6831C9.97118 25.6307 9.98164 25.5784 9.98687 25.5313C9.98164 25.5836 9.97118 25.636 9.96594 25.6831Z" fill="white"/>
<path d="M9.84094 26.687C9.84615 26.6506 9.84615 26.6193 9.85135 26.5881C9.84615 26.6193 9.84094 26.6506 9.84094 26.687Z" fill="white"/>
<path d="M9.70041 28.3532C9.69517 28.4108 9.69517 28.4736 9.68994 28.5312C9.69517 28.4684 9.69517 28.4108 9.70041 28.3532Z" fill="white"/>
<path d="M9.76295 27.4472C9.75772 27.4786 9.75772 27.5153 9.75249 27.5467C9.75249 27.5624 9.75249 27.5833 9.74725 27.599C9.74725 27.5833 9.74725 27.5624 9.75249 27.5467C9.75772 27.5153 9.76295 27.4786 9.76295 27.4472Z" fill="white"/>
<path d="M9.73685 27.8169C9.72643 27.9263 9.72123 28.0408 9.71082 28.1762C9.71602 28.0408 9.72643 27.9263 9.73685 27.8169Z" fill="white"/>
<path d="M25.1543 39.9749C25.1648 40.0011 25.1805 40.0326 25.191 40.0588C25.1805 40.0274 25.1648 40.0011 25.1543 39.9749Z" fill="white"/>
<path d="M29.6218 13.2638C32.1523 10.5354 35.2556 8.42139 38.7546 7.06761C39.8168 6.65626 40.8946 6.32303 41.9985 6.06268C40.8998 6.32303 39.8168 6.65626 38.7546 7.06761C35.2556 8.42139 32.1471 10.5406 29.6218 13.2638Z" fill="white"/>
<path d="M34.9016 51.0291C31.9753 49.2587 29.4448 46.8896 27.4558 44.0415C26.7372 43.0105 26.0968 41.9275 25.55 40.8132C26.0968 41.9275 26.7372 43.0053 27.4558 44.0415C29.4448 46.8948 31.9753 49.2639 34.9016 51.0291Z" fill="white"/>
<path d="M16.0267 45.2182C12.0018 41.2506 9.742 35.9605 9.65869 30.3162V30.2381V30.1444C9.65869 30.1132 9.65869 30.0871 9.65869 30.0611C9.65869 30.0871 9.65869 30.1184 9.65869 30.1444C9.65869 30.1756 9.65869 30.2069 9.65869 30.2381V30.3162C9.742 35.9605 12.0018 41.2558 16.0267 45.2182Z" fill="white"/>
<path d="M59.3268 8.06733L59.3372 8.07774C59.3893 8.1246 59.4414 8.17146 59.4935 8.22353C59.4414 8.17667 59.3893 8.1246 59.3372 8.07774L59.3268 8.06733L59.2591 8.00485C59.2487 7.99443 59.2383 7.98402 59.2279 7.9736C59.2383 7.98402 59.2487 7.99443 59.2643 8.00485L59.3268 8.06733Z" fill="white"/>
<path d="M59.8274 8.53642L59.8165 8.52554H59.8111H59.8165L59.8274 8.53642Z" fill="white"/>
<path d="M60.1183 8.82234L60.1235 8.82754C60.1235 8.82754 60.1235 8.82754 60.1287 8.82754C60.1235 8.82234 60.1235 8.82234 60.1183 8.82234C60.0819 8.78589 60.0506 8.75465 60.0142 8.7182C60.0506 8.74944 60.0871 8.78589 60.1183 8.82234Z" fill="white"/>
<path d="M9.6639 29.3842V29.3425C9.6639 29.3217 9.6639 29.3061 9.6639 29.2853C9.6639 29.1707 9.6691 29.0562 9.67431 28.9364C9.67431 28.9052 9.67431 28.8791 9.67952 28.8531C9.67952 28.8791 9.67952 28.9104 9.67431 28.9364C9.6691 29.0562 9.6639 29.1707 9.6639 29.2905C9.6639 29.3113 9.6639 29.3269 9.6639 29.3477V29.3581V29.379V29.3842Z" fill="white"/>
<path d="M9.99713 25.4686L9.99193 25.4947L9.98672 25.5311C9.97631 25.5832 9.9711 25.6353 9.96589 25.6821V25.6873V25.6925C9.96589 25.7029 9.96589 25.7134 9.96069 25.7238C9.95548 25.755 9.95027 25.7863 9.95027 25.8175L9.93986 25.8956V25.9112L9.93465 25.9373V25.9477V25.9581V25.9633L9.92945 25.9893V26.0102V26.0154L9.92424 26.0258C9.91382 26.1247 9.8982 26.2236 9.88779 26.3226C9.87738 26.4111 9.86696 26.4996 9.85655 26.5881C9.85134 26.6246 9.85135 26.6558 9.84614 26.687V26.6923V26.6975C9.83572 26.8068 9.8201 26.9109 9.80969 27.0203C9.79928 27.0984 9.79407 27.1817 9.78886 27.265V27.2754L9.77845 27.3535C9.77324 27.3848 9.77324 27.416 9.76803 27.4472C9.76283 27.4785 9.76283 27.5149 9.75762 27.5462C9.75762 27.5618 9.75241 27.5826 9.75241 27.5982C9.75241 27.6243 9.74721 27.6503 9.74721 27.6763C9.74721 27.7076 9.742 27.7388 9.742 27.7753C9.742 27.7909 9.742 27.8065 9.73679 27.8221C9.72638 27.9315 9.72117 28.046 9.71076 28.1814V28.1866C9.70555 28.2439 9.70555 28.3012 9.70034 28.3532C9.69514 28.4105 9.69514 28.473 9.68993 28.5303V28.5355V28.5407V28.5511V28.5563C9.68993 28.5615 9.68993 28.5667 9.68993 28.5771C9.68993 28.5927 9.68993 28.6032 9.68993 28.6188V28.6344V28.6552C9.68472 28.7229 9.68473 28.7854 9.67952 28.8531C9.67952 28.8791 9.67952 28.9104 9.67431 28.9364C9.6691 29.0562 9.6639 29.1707 9.6639 29.2853C9.6639 29.3009 9.6639 29.3217 9.6639 29.3425V29.3842C9.65869 29.4779 9.65869 29.5716 9.65869 29.6706V29.7226V29.7487V29.8476C9.65869 29.8788 9.65869 29.9049 9.65869 29.9361C9.65869 29.9569 9.65869 29.9778 9.65869 29.9986C9.65869 30.0194 9.65869 30.0403 9.65869 30.0611C9.65869 30.0871 9.65869 30.1184 9.65869 30.1444V30.2381V30.3162C9.742 35.9604 12.0018 41.2558 16.0267 45.2182C20.0516 49.1911 25.3834 51.3779 31.038 51.3779C31.9388 51.3779 32.8292 51.3207 33.7091 51.2113C34.1101 51.1593 34.5058 51.1072 34.9015 51.0343C31.9753 49.264 29.4447 46.8948 27.4557 44.0467C26.732 43.0157 26.0967 41.9327 25.55 40.8184C25.425 40.5685 25.3105 40.3134 25.1959 40.0582C25.1855 40.0322 25.1699 40.001 25.1595 39.9749C23.7745 36.856 23.0507 33.4768 23.0507 29.9986C23.0507 24.9427 24.5763 20.0848 27.4609 15.9505C28.1222 15.0029 28.8459 14.1073 29.627 13.269C32.1575 10.5406 35.2608 8.42661 38.7598 7.07283C39.822 6.66149 40.8998 6.32825 42.0037 6.06791C43.8365 5.63574 45.7213 5.42226 47.6323 5.42226C52.0997 5.42226 56.3902 6.60942 60.1391 8.83275L60.1339 8.82754C60.1027 8.7963 60.061 8.75985 60.0298 8.7234C59.9829 8.67654 59.9361 8.63489 59.8892 8.58802C59.8736 8.5724 59.8579 8.56199 59.8475 8.54637L59.8371 8.53596L59.8319 8.53075L59.8267 8.52034C59.7851 8.48389 59.7382 8.44223 59.6965 8.40058C59.6497 8.35892 59.608 8.31727 59.5612 8.27041L59.556 8.2652L59.5507 8.25999L59.5403 8.24958C59.5299 8.24437 59.5247 8.23396 59.5143 8.22875C59.4622 8.18189 59.4102 8.12982 59.3581 8.08296L59.3477 8.07255L59.28 8.01006C59.2696 7.99965 59.2592 7.98924 59.2435 7.97882C59.1654 7.91113 59.0925 7.84345 59.0196 7.77576C58.9311 7.69765 58.8478 7.62476 58.7697 7.55707C58.7437 7.53624 58.7176 7.51021 58.6864 7.48938C58.6291 7.44252 58.5719 7.39045 58.5146 7.34359L58.4 7.24986L58.3375 7.1978V7.19259L58.2907 7.15614L58.2647 7.13531C58.197 7.07804 58.1293 7.02597 58.0616 6.96869L58.0512 6.95828L58.046 6.95307L58.0408 6.94787L58.0303 6.94266C57.9783 6.90101 57.9314 6.85935 57.8793 6.8229L57.8741 6.81769H57.8689H57.8637C57.7023 6.68752 57.5357 6.55735 57.3691 6.43239L57.3639 6.42718L57.3587 6.42198C57.3118 6.38553 57.2701 6.35428 57.2233 6.31784L57.166 6.27619L57.1348 6.25015C57.1296 6.24494 57.1191 6.23974 57.1139 6.23453L57.1087 6.22932L57.1035 6.22411L57.0983 6.21891L57.0879 6.2137L56.9942 6.14601L56.9577 6.11998L56.8276 6.02625C56.8119 6.01584 56.8015 6.00543 56.7859 5.99501C56.7599 5.97939 56.739 5.95857 56.713 5.94295L56.6609 5.9065H56.6557H56.6505C56.5985 5.87005 56.5516 5.8336 56.4995 5.79715C56.4891 5.78674 56.4735 5.78153 56.4631 5.77112L56.4475 5.7607L56.4371 5.75029C56.3121 5.66178 56.1923 5.57847 56.0674 5.48995H56.0622H56.0569C55.9997 5.4535 55.9476 5.41185 55.8903 5.3754C55.8747 5.36498 55.8643 5.35457 55.8487 5.34936L55.8435 5.34416C55.7602 5.29209 55.6768 5.23481 55.5935 5.17754C55.5883 5.17233 55.5831 5.17233 55.5779 5.16712L55.5727 5.16192L55.5623 5.15671C55.5467 5.1463 55.5258 5.13588 55.5102 5.12026C55.4477 5.07861 55.3905 5.04216 55.328 5.00571L55.3176 5.0005L55.3072 4.9953C55.2186 4.93802 55.1249 4.88075 55.0364 4.82347L55.026 4.81826L55.0156 4.80785C54.9219 4.75058 54.8281 4.68809 54.7344 4.63603L54.5834 4.54751C54.5574 4.53189 54.5365 4.52148 54.5157 4.50585C54.4897 4.49023 54.4584 4.46941 54.4272 4.45379L54.422 4.44858L54.4168 4.44337C54.4012 4.43296 54.3803 4.42254 54.3647 4.41213C54.297 4.37048 54.2293 4.33403 54.1617 4.29237L54.1096 4.26113C54.0836 4.24551 54.0627 4.2351 54.0419 4.21948C53.9794 4.18303 53.9169 4.14658 53.8544 4.11013C53.8492 4.10493 53.844 4.10493 53.8336 4.09972C53.4119 3.86541 52.9849 3.63631 52.5527 3.42283C52.5423 3.41762 52.5319 3.41242 52.5215 3.40721H52.5163H52.5111L52.5007 3.402C52.4069 3.34993 52.3132 3.30828 52.2143 3.26142L51.9592 3.14166C51.9539 3.13645 51.9435 3.13645 51.9383 3.13125C51.9331 3.13125 51.9279 3.12604 51.9227 3.12604L51.9175 3.12083H51.9123C51.6103 2.98025 51.3343 2.85528 51.0688 2.74073L51.0636 2.73552L51.0584 2.73032H51.0532H51.048C50.9855 2.69908 50.9178 2.67304 50.8553 2.64701L50.8293 2.63659L50.8084 2.62618H50.8032L50.6887 2.57932C50.647 2.5637 50.6054 2.54808 50.5637 2.52725C50.5429 2.51684 50.5273 2.51163 50.5064 2.50642C50.2201 2.39187 49.9858 2.29815 49.7723 2.22005L49.6421 2.17318L49.6265 2.16798L49.4911 2.11591C49.1266 1.98574 48.7517 1.85557 48.3716 1.73581H48.3664H48.3612C48.356 1.73581 48.3508 1.7306 48.3404 1.7306C48.2675 1.70977 48.1946 1.68374 48.1269 1.66291C48.054 1.64209 47.9811 1.61605 47.903 1.59522C47.8614 1.5796 47.8145 1.56919 47.7729 1.55357C47.6062 1.50671 47.45 1.45985 47.3042 1.41819H47.299H47.2938H47.2886C47.2678 1.41298 47.247 1.40778 47.2261 1.40257C47.1949 1.39216 47.1584 1.38695 47.1272 1.37654L47.1064 1.37133L47.0751 1.36092C46.7627 1.27761 46.4451 1.20471 46.1275 1.12661C45.94 1.08495 45.7526 1.0433 45.5651 1.00164C45.2475 0.933952 44.9299 0.866266 44.6071 0.808991C44.4873 0.788163 44.3676 0.767334 44.2478 0.746507H44.2426H44.2374H44.2322C44.1124 0.72568 43.9927 0.704852 43.8729 0.689231C43.8156 0.678818 43.7636 0.673609 43.7063 0.663195C43.6386 0.652782 43.5657 0.642369 43.498 0.631956C43.1544 0.585094 42.8107 0.54344 42.4671 0.506992C41.8006 0.439303 41.1341 0.392439 40.4624 0.366405C40.0875 0.350784 39.7178 0.345581 39.343 0.345581C38.7129 0.345581 38.0881 0.366406 37.4581 0.408061C37.3904 0.413268 37.3279 0.41327 37.2602 0.418477C36.5677 0.465338 35.8752 0.538232 35.1931 0.631956C35.0681 0.647576 34.9484 0.668403 34.8234 0.684023C34.8182 0.684023 34.8182 0.684023 34.813 0.684023H34.8078L10.0128 25.4791L9.99713 25.4686Z" fill="white"/>
<path d="M68.668 34.4869L68.6732 34.4661L68.6784 34.44C68.6836 34.3984 68.6888 34.3567 68.694 34.3151V34.3047V34.289L68.6992 34.2734C68.7096 34.2214 68.7148 34.1641 68.7253 34.1068L68.7305 34.0703L68.7357 34.0339C68.7409 34.0183 68.7409 33.9975 68.7461 33.9818L68.7669 33.7944L68.7825 33.6694C68.7981 33.5445 68.8138 33.4299 68.8242 33.3154V33.2997C68.8346 33.1904 68.8502 33.0863 68.8554 32.9821C68.8658 32.8936 68.871 32.8103 68.8815 32.7322V32.727L68.8919 32.6489C68.8971 32.5916 68.9023 32.5343 68.9075 32.4771V32.4562V32.4354C68.9179 32.3625 68.9179 32.2844 68.9231 32.2115V32.2011V32.1803C68.9335 32.0709 68.9387 31.9564 68.9492 31.8262V31.8158C68.9596 31.7012 68.9648 31.5867 68.97 31.4721V31.4409V31.394V31.3472C68.9752 31.2534 68.9804 31.1545 68.9804 31.0608C68.9856 30.9306 68.9908 30.8109 68.9908 30.6859V30.6703V30.613C68.9908 30.5245 68.996 30.436 68.996 30.3475V30.2485V30.2329C68.996 30.1548 68.996 30.0819 68.996 30.0038C68.996 29.9257 68.996 29.8424 68.996 29.7643V29.7591V29.681C68.9127 24.0367 66.6529 18.7466 62.6332 14.779C58.6083 10.8061 53.2765 8.61926 47.6167 8.61926C46.3098 8.61926 45.0185 8.73381 43.7532 8.96812C46.6794 10.7385 49.2152 13.1076 51.199 15.9557C54.0836 20.09 55.6092 24.948 55.6092 30.0038C55.6092 35.0597 54.0836 39.9177 51.199 44.0519C48.3821 48.0872 44.4769 51.1592 39.9001 52.9296C37.0728 54.023 34.0945 54.5801 31.0329 54.5801C26.5654 54.5801 22.2749 53.393 18.526 51.1749L18.5312 51.1801L18.5468 51.1957L18.5624 51.2113C18.5781 51.2321 18.5989 51.2478 18.6145 51.2634L18.6718 51.3207C18.7187 51.3675 18.7655 51.4144 18.8176 51.4612L18.828 51.4717L18.8384 51.4821C18.9165 51.5602 19.0102 51.6487 19.104 51.732L19.1196 51.7424L19.13 51.7528C19.1925 51.8101 19.2498 51.8674 19.3122 51.9246L19.3174 51.9299L19.3226 51.9351C19.432 52.034 19.5361 52.1329 19.6507 52.2266L19.6559 52.2319L19.6611 52.2371C19.734 52.2995 19.8069 52.3672 19.8798 52.4297L19.8954 52.4401L19.9423 52.4818H19.9475L20.161 52.664L20.2026 52.7005L20.213 52.7109C20.2703 52.7577 20.3276 52.8046 20.3848 52.8515L20.4057 52.8671L20.4265 52.8879C20.4786 52.9296 20.5306 52.9764 20.5931 53.0233L20.6139 53.0389L20.6348 53.0545C20.6816 53.091 20.7233 53.1274 20.7649 53.1639L20.7806 53.1743L20.791 53.1847C20.9472 53.3149 21.1138 53.4398 21.2804 53.5648C21.3169 53.596 21.3533 53.6221 21.3898 53.6481C21.4314 53.6794 21.4731 53.7106 21.5147 53.7418C21.5408 53.7575 21.5616 53.7731 21.5824 53.7939L21.6241 53.8251C21.6918 53.8772 21.7542 53.9241 21.8219 53.9762L21.8844 54.023C21.9157 54.049 21.9521 54.0699 21.9833 54.0959L21.9938 54.1063L22.0094 54.1167C22.0562 54.1532 22.1083 54.1896 22.1604 54.2261L22.2125 54.2625C22.3322 54.351 22.4572 54.4344 22.5821 54.5229L22.5926 54.5281L22.603 54.5385C22.655 54.5749 22.7123 54.6114 22.7696 54.6478L22.8112 54.6739L22.9466 54.7624L23.0924 54.8613C23.1653 54.9082 23.2434 54.9602 23.3215 55.0071C23.3996 55.0592 23.4777 55.106 23.5506 55.1529H23.7381L24.0765 55.4757C24.1286 55.507 24.1806 55.5382 24.2327 55.5694C24.3368 55.6319 24.441 55.6892 24.5451 55.7465L24.5555 55.7517L24.5659 55.7569C24.6493 55.8038 24.7274 55.8506 24.8107 55.8975C25.248 56.1474 25.6906 56.3817 26.1384 56.6004C26.2373 56.6473 26.3363 56.6993 26.43 56.7462C26.4456 56.7566 26.4612 56.7618 26.4717 56.767C26.5654 56.8087 26.6539 56.8555 26.7476 56.8972C27.0288 57.0274 27.3152 57.1575 27.5911 57.2773H27.5963L27.6015 57.2825C27.6692 57.3137 27.7421 57.345 27.8098 57.371C27.8306 57.3814 27.8515 57.3866 27.8775 57.4023C27.9712 57.4387 28.065 57.4804 28.1587 57.5168C28.3878 57.6105 28.6325 57.7043 28.8928 57.8032L28.9033 57.8084L28.9137 57.8136C28.9918 57.8448 29.0751 57.8761 29.1532 57.9021L29.1636 57.9073L29.174 57.9125C29.5541 58.0531 29.929 58.1781 30.2883 58.2926L30.2987 58.2978L30.3091 58.303C30.382 58.3291 30.4549 58.3499 30.5278 58.3759H30.5382L30.5486 58.3811C30.658 58.4176 30.7673 58.4488 30.8767 58.4853L30.9704 58.5113C31.1005 58.5478 31.2359 58.5842 31.3661 58.6207C31.439 58.6415 31.5067 58.6571 31.5692 58.6779L31.5848 58.6831C32.4023 58.9018 33.2354 59.0893 34.0528 59.2351L34.0632 59.2403H34.0737C34.1726 59.2559 34.2819 59.2767 34.4121 59.2976H34.4225H34.4277C34.5579 59.3184 34.6724 59.3392 34.7714 59.3496H34.787L34.8026 59.3548C34.9172 59.3757 35.0317 59.3913 35.1515 59.4069H35.1619C36.5313 59.5995 37.9267 59.6933 39.3118 59.6933C40.702 59.6933 42.0974 59.5943 43.4668 59.4069L43.4981 59.4017C43.6074 59.3861 43.7167 59.3705 43.8261 59.3548L43.8417 59.3496H43.8521L68.6472 34.5546C68.6628 34.5129 68.6628 34.5025 68.668 34.4869Z" fill="white"/>
</svg>
