<svg width="40" height="40" viewBox="0 0 40 40" fill="none" xmlns="http://www.w3.org/2000/svg">
<g clip-path="url(#clip0_224_9471)">
<path d="M38.1764 24.9742L39.3208 23.8301C40.041 23.1096 40.041 21.9374 39.3208 21.2169C38.9716 20.868 38.5078 20.6758 38.014 20.6758C37.6435 20.6758 37.2896 20.7841 36.9886 20.9859L36.7475 20.1766L37.9863 18.9375C38.7067 18.217 38.7067 17.0448 37.9863 16.3246C37.3231 15.6612 36.2776 15.6102 35.5534 16.1684L34.0855 11.2404C34.6496 10.698 35.2086 10.1502 35.7624 9.59734C37.2874 8.07203 38.5273 6.45797 39.2539 5.05172C40.4817 2.675 39.9678 1.40453 39.3205 0.757262C38.6735 0.109997 37.4031 -0.403675 35.026 0.824137C33.6201 1.55047 32.0057 2.79039 30.4807 4.31562C29.9278 4.86928 29.3801 5.42819 28.8378 5.99226L23.9094 4.52437C24.4676 3.80047 24.4166 2.755 23.7535 2.09156C23.0329 1.37125 21.8607 1.37101 21.1406 2.09156L19.9015 3.33054L19.0919 3.08945C19.2936 2.7882 19.402 2.43422 19.402 2.06375C19.4026 1.82102 19.3551 1.58057 19.2623 1.35632C19.1694 1.13206 19.033 0.928451 18.8609 0.757262C18.1406 0.0367936 16.9682 0.0367936 16.248 0.757262L15.1039 1.9014L9.27229 0.164294C9.1704 0.133952 9.06221 0.131721 8.95916 0.157838C8.85611 0.183955 8.76204 0.237447 8.6869 0.312653L7.18581 1.81382C6.9337 2.06554 6.96698 2.49617 7.2544 2.70648L21.9682 13.4764C18.6507 17.2169 15.4549 20.962 13.1986 23.6378L8.87065 21.9731C8.76419 21.9322 8.64813 21.923 8.53655 21.9466C8.42497 21.9703 8.32264 22.0258 8.24198 22.1065L6.46284 23.8856C6.35235 23.9962 6.29028 24.1462 6.29028 24.3025C6.29028 24.4588 6.35235 24.6088 6.46284 24.7194L15.3584 33.6149C15.5854 33.8423 15.9651 33.8423 16.1924 33.6149L17.9714 31.836C18.052 31.7553 18.1076 31.653 18.1312 31.5413C18.1549 31.4297 18.1457 31.3136 18.1046 31.2071L16.4403 26.8794C19.116 24.6232 22.8608 21.4274 26.6017 18.1096L27.7704 19.7069C27.978 19.9904 28.3989 20.027 28.6534 19.7853C28.8655 19.5839 28.8948 19.2461 28.7224 19.0105L27.4867 17.3222C29.4429 15.5763 31.3746 13.8148 33.1273 12.155L38.683 30.8058L37.9167 31.5718L30.2809 21.1397C30.1885 21.0135 30.0498 20.9292 29.8953 20.9053C29.7408 20.8813 29.5831 20.9198 29.4569 21.0121C29.3944 21.0578 29.3415 21.1154 29.3012 21.1816C29.261 21.2478 29.2341 21.3212 29.2223 21.3978C29.2104 21.4743 29.2138 21.5525 29.2322 21.6277C29.2505 21.703 29.2835 21.7738 29.3293 21.8363L37.3716 32.8237C37.5819 33.1112 38.0125 33.1444 38.2642 32.8923L39.7654 31.3912C39.8406 31.316 39.8941 31.2219 39.9202 31.1189C39.9463 31.0159 39.9441 30.9077 39.9138 30.8058L38.1764 24.9742ZM21.9746 2.92554C22.2321 2.66797 22.6621 2.66797 22.9197 2.92554C23.1803 3.18617 23.1803 3.61007 22.9197 3.8707L22.6432 4.14718L21.1866 3.7132L21.9746 2.92554ZM17.082 1.59132C17.3423 1.3307 17.7665 1.3307 18.0271 1.59132C18.2878 1.85195 18.2878 2.27586 18.0271 2.53648L17.8453 2.71804L16.389 2.28445L17.082 1.59132ZM8.50596 2.16109L9.27229 1.39507L27.9231 6.95054C26.2632 8.70343 24.5017 10.6352 22.7556 12.5914L8.50596 2.16109ZM8.80502 23.2115L12.3954 24.5924C11.7269 25.3882 11.0607 26.1859 10.3968 26.9856L7.7137 24.3025L8.80502 23.2115ZM11.2346 27.8234C13.2902 25.3432 24.156 12.3082 31.3148 5.14937C32.7351 3.72875 34.2854 2.53429 35.5674 1.87203C36.5299 1.37468 37.8178 0.922419 38.4867 1.59132C39.1557 2.26023 38.7031 3.54812 38.206 4.51062C37.5438 5.79265 36.3489 7.34265 34.9284 8.76328C27.7702 15.9215 14.7349 26.7875 12.2547 28.8435L11.2346 27.8234ZM16.8666 31.273L15.7756 32.3641L13.0924 29.6809C13.5831 29.2738 14.4132 28.5833 15.4856 27.6827L16.8666 31.273ZM37.5416 22.0509C37.8022 21.7903 38.2261 21.7903 38.4867 22.0509C38.7474 22.3116 38.7474 22.7355 38.4867 22.9961L37.7937 23.6891L37.3597 22.2328L37.5416 22.0509ZM36.2074 17.1584C36.4677 16.8977 36.8919 16.898 37.1525 17.1584C37.4101 17.4159 37.4101 17.8459 37.1525 18.1035L36.3646 18.8915L35.9306 17.4348L36.2074 17.1584ZM35.3971 34.0391L30.3651 39.0712C30.1506 39.286 30.1362 39.6407 30.3337 39.8713C30.5543 40.1289 30.9592 40.1451 31.1992 39.9052L36.2312 34.8732C36.286 34.8184 36.3294 34.7534 36.3591 34.6819C36.3887 34.6103 36.404 34.5336 36.404 34.4562C36.404 34.3787 36.3887 34.302 36.3591 34.2305C36.3294 34.1589 36.286 34.0939 36.2312 34.0391C36.001 33.8091 35.6275 33.8091 35.3971 34.0391Z" fill="#10B981"/>
<path d="M33.7149 32.3569C33.7697 32.3022 33.8132 32.2372 33.8428 32.1657C33.8725 32.0942 33.8877 32.0175 33.8877 31.9401C33.8877 31.8626 33.8725 31.7859 33.8428 31.7144C33.8132 31.6429 33.7697 31.5779 33.7149 31.5232C33.6602 31.4684 33.5952 31.425 33.5237 31.3953C33.4522 31.3657 33.3755 31.3504 33.2981 31.3504C33.2207 31.3504 33.144 31.3657 33.0725 31.3953C33.0009 31.425 32.936 31.4684 32.8812 31.5232L29.7361 34.668C29.5216 34.8829 29.5072 35.2375 29.7047 35.4682C29.9253 35.7258 30.3303 35.7419 30.5702 35.5021L33.7149 32.3569ZM31.828 29.2121C31.8828 29.1573 31.9263 29.0923 31.9559 29.0208C31.9856 28.9492 32.0009 28.8725 32.0009 28.795C32.0009 28.7176 31.9856 28.6409 31.9559 28.5693C31.9263 28.4978 31.8828 28.4328 31.828 28.378C31.7733 28.3232 31.7083 28.2798 31.6367 28.2502C31.5652 28.2205 31.4885 28.2053 31.4111 28.2053C31.3336 28.2053 31.2569 28.2205 31.1854 28.2502C31.1138 28.2798 31.0488 28.3232 30.9941 28.378L28.7925 30.5796C28.578 30.7941 28.5636 31.149 28.7614 31.3797C28.9817 31.6373 29.3866 31.6535 29.6266 31.4136L31.828 29.2121ZM6.03891 4.16114C5.80844 3.93099 5.435 3.93099 5.20484 4.16114L0.172813 9.19349C0.118028 9.24821 0.0745676 9.31319 0.0449151 9.38472C0.0152626 9.45625 0 9.53293 0 9.61036C0 9.68779 0.0152626 9.76447 0.0449151 9.836C0.0745676 9.90753 0.118028 9.97251 0.172813 10.0272C0.399844 10.2543 0.779531 10.2543 1.00688 10.0272L6.03891 4.99521C6.14942 4.88455 6.21149 4.73456 6.21149 4.57817C6.21149 4.42179 6.14942 4.2718 6.03891 4.16114ZM8.55477 6.67731C8.50004 6.62253 8.43506 6.57907 8.36353 6.54942C8.292 6.51976 8.21532 6.5045 8.13789 6.5045C8.06046 6.5045 7.98378 6.51976 7.91225 6.54942C7.84072 6.57907 7.77574 6.62253 7.72102 6.67731L4.57586 9.82239C4.36102 10.037 4.34695 10.3916 4.54445 10.6223C4.76508 10.8799 5.16977 10.8961 5.40961 10.6561L8.55477 7.5113C8.60954 7.45655 8.65299 7.39154 8.68263 7.31999C8.71228 7.24844 8.72753 7.17175 8.72753 7.09431C8.72753 7.01686 8.71228 6.94017 8.68263 6.86862C8.65299 6.79708 8.60954 6.73207 8.55477 6.67731ZM8.6643 11.5997C8.89164 11.8268 9.27102 11.8268 9.49836 11.5997L11.6999 9.39817C11.8104 9.28752 11.8725 9.13755 11.8725 8.98118C11.8725 8.82482 11.8104 8.67484 11.6999 8.56419C11.5893 8.45368 11.4393 8.39161 11.2829 8.39161C11.1265 8.39161 10.9765 8.45368 10.8659 8.56419L8.6643 10.7658C8.55381 10.8764 8.49176 11.0264 8.49176 11.1827C8.49176 11.3391 8.55381 11.4891 8.6643 11.5997Z" fill="#10B981"/>
</g>
<defs>
<clipPath id="clip0_224_9471">
<rect width="40" height="40" fill="white"/>
</clipPath>
</defs>
</svg>
